<?xml version="1.0" encoding="utf-8"?>
<!-- Generator: Adobe Illustrator 16.0.0, SVG Export Plug-In . SVG Version: 6.00 Build 0)  -->
<!DOCTYPE svg PUBLIC "-//W3C//DTD SVG 1.1//EN" "http://www.w3.org/Graphics/SVG/1.1/DTD/svg11.dtd">
<svg version="1.1" id="Layer_1" xmlns="http://www.w3.org/2000/svg" xmlns:xlink="http://www.w3.org/1999/xlink" x="0px" y="0px"
	 width="1750px" height="750px" viewBox="0 0 1750 750" enable-background="new 0 0 1750 750" xml:space="preserve">
<g>
	<g>
		<path fill="#00B1EE" d="M420.117,179.702h-45.829c-5.379,0-7.961-3.228-7.961-7.53c0-4.519,3.012-7.961,9.251-7.961h54.437
			c6.24,0,8.391,3.227,8.391,8.606l-10.112,96.393c-3.443,32.704-25.819,47.765-51.854,47.765
			c-22.591,0-38.514-14.846-44.107-30.337c-0.861-2.367-1.077-4.088-1.077-6.024c0-4.304,3.658-8.177,8.822-8.177
			c3.442,0,6.025,1.722,7.53,5.595c6.025,14.846,15.062,23.452,30.553,23.452c17.429,0,30.124-11.833,32.489-34.425L420.117,179.702
			z"/>
		<path fill="#00B1EE" d="M453.251,270.716c0-30.768,22.162-59.169,56.587-59.169c24.098,0,38.514,12.48,57.232,12.48
			c12.264,0,17.859-2.583,29.908-9.037c1.722-0.861,3.227-1.291,4.733-1.291c3.874,0,6.455,2.798,6.455,6.67
			c0,2.582-1.291,5.379-4.732,7.315c-12.264,6.885-20.871,10.543-35.287,10.543c-6.885,0-12.909-1.076-17.857-2.367
			c3.227,6.455,4.733,14.631,4.733,23.238c0,30.553-21.516,57.877-56.157,57.877C474.122,316.975,453.251,301.269,453.251,270.716z
			 M470.464,268.135c0,21.73,10.973,34.64,29.262,34.64c22.593,0,37.869-19.579,37.869-42.816c0-22.162-12.05-34.211-28.401-34.211
			C487.462,225.747,470.464,245.757,470.464,268.135z"/>
		<path fill="#00B1EE" d="M595.04,221.874c0.431-4.088,3.228-8.176,8.175-8.176c5.165,0,7.747,2.151,7.747,8.176l-5.594,55.942
			c-0.216,2.151-0.216,3.012-0.216,4.303c0,11.834,5.81,20.655,17.428,20.655c15.922,0,25.604-10.757,29.261-42.601
			c0.646-5.81,4.305-8.607,7.962-8.607c4.088,0,7.53,3.228,7.53,10.112c-4.087,35.071-18.934,55.296-44.968,55.296
			c-17.429,0-33.565-9.252-33.565-33.564c0-1.506,0-2.366,0.43-6.885L595.04,221.874z M607.304,170.665
			c6.67,0,12.049,5.379,12.049,12.05c0,6.67-5.379,12.05-12.049,12.05c-6.669,0-12.048-5.38-12.048-12.05
			C595.255,176.044,600.634,170.665,607.304,170.665z"/>
		<path fill="#00B1EE" d="M722.629,243.39c0.215-1.937,0.215-2.583,0.215-3.873c0-9.467-4.52-13.771-13.771-13.771
			c-12.694,0-24.959,11.834-31.414,21.516c-5.163,7.962-10.327,18.719-12.049,35.287l-2.581,23.669
			c-0.646,5.378-3.443,8.604-8.606,8.604c-4.304,0-7.746-2.366-7.746-7.96l8.607-84.558c0.645-6.024,4.518-8.606,8.39-8.606
			c5.595,0,8.177,2.798,8.177,8.822l-1.506,15.276c7.96-14.2,24.744-26.25,41.956-26.25c19.15,0,26.895,10.543,26.895,26.25
			c0,1.722,0,2.797-0.215,5.379l-2.797,24.099c-0.43,3.657-0.43,4.948-0.43,7.101c0,20.01,11.188,28.4,26.034,28.4
			c9.252,0,18.074-2.797,26.896-7.96c1.936-1.076,3.873-1.507,5.378-1.507c4.303,0,7.101,3.228,7.101,6.886
			c0,2.367-1.075,4.733-3.873,6.454c-9.682,6.024-24.312,10.327-37.008,10.327c-23.021,0-40.666-15.061-40.666-39.804
			c0-1.722,0-2.582,0.216-5.594L722.629,243.39z"/>
		<path fill="#00B1EE" d="M812.564,299.978c5.594,1.722,12.049,2.797,19.579,2.797c18.075,0,32.49-3.872,44.324-13.771
			c8.392-6.885,16.137-18.503,19.365-34.855c0.86-4.519,4.089-6.456,7.53-6.456c4.089,0,8.392,3.013,8.392,7.746
			c0,0.861-0.215,1.506-0.43,2.368c-4.734,17.858-14.417,32.919-25.174,41.956c-15.061,12.694-35.072,17.212-54.221,17.212
			c-38.944,0-58.094-21.3-58.094-47.335c0-34.21,26.035-58.093,51.208-58.093c21.516,0,32.275,12.695,32.275,28.402
			C857.318,262.325,840.104,284.486,812.564,299.978z M799.224,292.018c25.819-11.835,41.311-32.06,41.311-49.919
			c0-9.896-6.024-16.352-16.997-16.352c-16.999,0-33.781,17.213-33.781,42.388C789.757,278.031,792.985,286.207,799.224,292.018z"/>
		<path fill="#00B1EE" d="M986.842,281.904c-0.216,2.582-0.216,3.012-0.216,4.303c0,11.404,5.594,16.567,13.986,16.567
			c5.809,0,9.681-3.227,15.276-8.176c1.936-1.507,3.657-2.151,5.378-2.151c3.873,0,6.886,3.013,6.886,6.885
			c0,1.936-0.861,3.873-2.583,5.81c-6.885,7.1-14.847,11.833-26.68,11.833c-12.049,0-21.731-5.809-25.819-16.781
			c-12.479,13.339-23.883,16.781-38.729,16.781c-20.871,0-40.665-15.061-40.665-45.613c0-29.908,20.225-59.815,54.436-59.815
			c13.125,0,23.883,5.595,28.401,12.049l7.53-68.853c0.646-5.594,3.658-8.605,9.253-8.605c4.087,0,7.1,2.366,7.1,8.177
			L986.842,281.904z M973.286,254.364c0.215-2.582,0.215-3.227,0.215-4.734c0-5.164-1.076-9.251-4.303-13.125
			c-5.379-6.454-12.049-10.758-21.517-10.758c-21.73,0-36.792,21.302-36.792,44.324c0,20.44,9.896,32.704,27.755,32.704
			c10.543,0,19.149-4.948,24.528-11.188c5.379-6.024,7.101-10.543,7.961-18.935L973.286,254.364z"/>
		<path fill="#00B1EE" d="M1102.163,309.875c0-4.088,3.013-7.1,8.822-7.1c24.958,0,37.868-17.212,40.881-47.549l3.228-32.921
			c0.43-5.379,3.657-8.606,9.036-8.606c5.81,0,7.531,2.798,7.531,7.101l-6.024,54.866c-0.215,2.581-0.215,3.657-0.215,5.379
			c0,16.782,10.758,21.73,21.086,21.73c10.112,0,17.642-3.442,24.743-9.683c6.24-5.593,8.391-11.833,9.468-21.515l5.163-49.272
			c0.646-5.594,3.659-8.606,8.822-8.606c5.378,0,7.53,3.013,7.53,8.176l-6.024,55.082c-0.215,1.936-0.215,2.797-0.215,4.088
			c0,13.555,7.746,21.73,18.934,21.73c14.201,0,24.099-10.112,29.047-42.601c0.861-5.165,3.872-7.532,7.746-7.532
			c4.303,0,6.669,2.584,6.669,9.252c-3.873,35.071-18.074,55.081-43.893,55.081c-15.276,0-25.604-6.885-30.768-16.781
			c-11.619,12.479-22.592,16.781-38.73,16.781c-14.415,0-27.97-5.809-33.349-19.148c-8.822,12.048-21.731,19.148-40.666,19.148
			C1105.175,316.975,1102.163,313.963,1102.163,309.875z"/>
		<path fill="#00B1EE" d="M1410.486,282.334c4.518,0,7.531,3.229,7.531,7.101c0,2.583-1.292,5.595-4.519,7.961
			c-21.73,16.137-51.208,19.579-75.736,19.579c-23.453,0-34.856-5.162-41.741-12.263l-7.745,69.065
			c-0.646,6.025-3.658,8.606-8.176,8.606c-4.734,0-8.177-2.581-8.177-7.745l16.353-151.688c0.645-6.024,4.303-9.252,8.605-9.252
			c3.874,0,6.67,1.937,7.101,7.961l0.43,6.454c7.315-8.175,19.149-16.567,36.147-16.567c23.453,0,39.804,15.707,39.804,46.69
			c0,16.783-5.809,32.92-16.782,42.816c13.77-2.15,26.25-6.885,41.312-16.782C1407.043,282.766,1408.98,282.334,1410.486,282.334z
			 M1299.033,281.689c0,6.456,1.505,9.683,7.1,14.201c4.087,3.228,13.124,6.885,20.87,6.885h2.152
			c20.441,0,33.78-19.579,33.78-43.462c0-20.656-9.251-33.565-26.679-33.565c-11.619,0-21.301,7.531-28.402,15.707
			c-3.873,4.519-6.239,10.543-7.1,18.934l-1.506,15.922C1299.033,279.752,1299.033,280.613,1299.033,281.689z"/>
	</g>
	<g>
		<path fill="#00B1EE" d="M219.159,563.104c0-4.088,3.013-7.101,8.392-7.101c25.174,0,37.869-16.998,41.096-47.551l10.328-100.48
			c0.646-6.024,3.658-8.606,9.036-8.606c5.165,0,7.316,2.798,7.316,8.606l-8.606,80.686c7.961-11.618,24.958-23.883,42.171-23.883
			c17.644,0,29.047,9.036,29.047,27.11c0,1.937-0.214,4.088-0.43,5.809l-3.873,33.351c-0.215,1.72-0.215,3.442-0.215,4.949
			c0,13.984,7.53,20.01,18.073,20.01c15.061,0,26.25-11.403,30.122-42.602c0.646-5.81,4.304-8.392,7.962-8.392
			c3.657,0,7.53,2.798,7.53,8.392l-0.215,1.721c-3.873,32.919-19.149,55.081-46.044,55.081c-17.644,0-33.78-9.897-33.78-33.564
			c0-2.152,0.215-4.519,0.43-6.885l3.658-31.845c0.215-1.937,0.215-2.582,0.215-3.657c0-10.328-6.025-15.276-16.568-15.276
			c-14.201,0-26.034,12.694-31.198,20.01c-4.733,6.455-9.682,15.276-11.188,30.337l-2.797,30.124
			c-0.43,4.949-3.013,8.606-8.391,8.606c-5.595,0-7.962-3.873-7.962-8.606l0.215-2.583c-8.607,8.607-20.225,13.34-35.502,13.34
			C221.74,570.203,219.159,567.191,219.159,563.104z"/>
		<path fill="#00B1EE" d="M495.854,530.184c-0.214,2.151-0.214,3.228-0.214,4.734c0,13.339,7.315,21.085,18.934,21.085
			c14.415,0,24.313-10.112,29.047-42.602c0.645-5.164,3.872-7.746,7.961-7.746c4.733,0,7.101,3.228,7.101,9.897
			c-4.089,35.071-18.72,54.65-44.539,54.65c-14.847,0-25.174-6.455-30.337-15.921c-9.683,11.188-23.453,15.921-37.223,15.921
			c-24.744,0-45.83-16.137-45.83-46.044c0-32.704,23.023-59.385,58.094-59.385c12.48,0,21.946,4.304,28.832,9.251
			c0.646-3.657,3.442-7.1,7.961-7.1c4.948,0,6.885,3.228,6.885,8.822L495.854,530.184z M483.374,503.504
			c0.215-2.152,0.215-3.442,0.215-4.733c0-6.025-1.721-9.037-5.809-12.479c-5.379-4.734-12.264-7.316-20.871-7.316
			c-22.376,0-38.729,18.934-38.729,43.462c0,21.517,12.049,33.565,29.692,33.565c10.973,0,18.073-3.013,24.528-10.112
			c4.303-4.734,6.885-11.619,8.176-21.086L483.374,503.504z"/>
		<path fill="#00B1EE" d="M614.836,496.618c0.215-1.937,0.215-2.582,0.215-3.873c0-9.466-4.518-13.77-13.77-13.77
			c-12.695,0-24.959,11.833-31.414,21.516c-5.163,7.961-10.328,18.719-12.049,35.286l-2.582,23.668
			c-0.646,5.378-3.443,8.606-8.607,8.606c-4.303,0-7.745-2.367-7.745-7.961l8.606-84.559c0.645-6.023,4.518-8.606,8.391-8.606
			c5.595,0,8.177,2.798,8.177,8.822l-1.506,15.275c7.961-14.2,24.743-26.249,41.956-26.249c19.15,0,26.896,10.543,26.896,26.249
			c0,1.722,0,2.798-0.216,5.38l-3.873,33.78c-0.215,2.366-0.215,3.013-0.215,4.519c0,13.555,7.315,21.301,18.934,21.301
			c13.341,0,24.099-10.112,29.047-42.602c0.861-5.164,3.659-7.746,7.531-7.746c5.379,0,7.961,3.228,7.961,9.683
			c-4.519,33.995-19.15,54.865-44.97,54.865c-25.173,0-34.425-17.213-34.425-34.641c0-1.722,0-2.582,0.215-5.164L614.836,496.618z"
			/>
		<path fill="#00B1EE" d="M766.953,539.865c-0.216,2.152-0.216,2.367-0.216,3.013c0,8.607,4.304,12.265,10.759,12.265
			c14.201,0,28.832-32.705,39.375-81.332c1.076-4.518,3.873-6.454,6.67-6.454c3.658,0,7.101,3.012,7.101,7.315
			c0,0.646,0,1.292-0.216,1.937c-11.404,51.639-26.895,93.595-54.651,93.595c-12.48,0-19.365-6.67-22.377-16.137
			c-11.834,11.834-21.947,16.137-38.299,16.137c-20.01,0-40.665-15.061-40.665-45.614c0-29.908,20.225-59.815,54.435-59.815
			c13.125,0,23.883,5.594,28.402,12.049l7.531-68.852c0.646-5.594,3.658-8.606,9.252-8.606c4.088,0,7.1,2.367,7.1,8.177
			L766.953,539.865z M754.043,507.592c0.215-2.582,0.215-3.228,0.215-4.733c0-5.165-1.076-9.252-4.303-13.125
			c-5.379-6.454-12.049-10.758-21.517-10.758c-21.73,0-36.792,21.301-36.792,44.323c0,20.44,9.897,32.704,27.755,32.704
			c10.543,0,19.149-4.948,24.529-11.188c5.378-6.024,7.1-10.543,7.96-18.935L754.043,507.592z"/>
		<path fill="#00B1EE" d="M817.513,478.545c-0.431-1.292-0.646-2.581-0.646-3.657c0-4.734,3.442-7.962,8.392-7.962
			c3.658,0,6.454,1.938,8.391,8.176l18.289,62.397l21.731-56.157c2.151-5.594,4.733-7.961,9.467-7.961
			c3.873,0,6.886,2.583,8.606,8.177l15.922,55.941l25.174-63.042c2.152-5.594,5.594-7.531,9.252-7.531
			c7.531,0,13.771,4.734,24.528,4.734c8.176,0,13.556-4.734,19.149-4.734c3.228,0,5.809,2.798,5.809,6.67
			c0,3.013-1.505,5.595-5.378,7.53c-7.316,3.658-12.479,4.735-19.364,4.735c-9.037,0-14.847-1.292-20.226-3.228l-30.983,77.458
			c-2.367,5.595-5.164,7.961-8.821,7.961c-3.873,0-6.67-2.583-8.392-8.176l-16.781-58.524l-23.023,58.739
			c-2.151,5.595-4.518,7.961-8.606,7.961c-3.873,0-6.455-2.367-8.176-8.176L817.513,478.545z"/>
		<path fill="#00B1EE" d="M993.729,485.215c6.454-8.391,14.846-14.631,24.098-17.428c3.443-1.076,7.315-1.937,11.618-1.937
			c4.52,0,7.531,1.075,11.404,5.379c6.24,6.67,10.328,9.037,18.288,9.037c6.886,0,13.986-3.228,22.808-10.974
			c1.936-1.721,4.087-2.367,6.455-2.367c3.227,0,5.809,3.228,5.809,6.885c0,2.153-1.075,4.52-3.442,6.456
			c-7.1,6.025-17.428,14.415-32.059,14.415c-13.771,0-22.162-5.595-30.553-14.415c-8.821,0-16.137,3.013-23.237,9.682
			c-7.316,7.101-13.556,18.074-15.062,33.78l-3.656,35.717c-0.646,5.378-3.658,8.606-8.177,8.606c-5.38,0-8.177-3.228-8.177-7.961
			l8.607-84.559c0.646-5.809,4.518-8.606,8.606-8.606c4.734,0,7.746,2.152,7.746,8.176L993.729,485.215z"/>
		<path fill="#00B1EE" d="M1081.513,475.102c0.431-4.087,3.228-8.176,8.176-8.176c5.164,0,7.746,2.152,7.746,8.176l-5.594,55.943
			c-0.216,2.152-0.216,3.012-0.216,4.303c0,11.834,5.81,20.655,17.428,20.655c15.922,0,25.604-10.757,29.262-42.602
			c0.646-5.81,4.303-8.607,7.961-8.607c4.088,0,7.531,3.228,7.531,10.113c-4.088,35.07-18.934,55.296-44.969,55.296
			c-17.427,0-33.565-9.251-33.565-33.564c0-1.506,0-2.367,0.43-6.885L1081.513,475.102z M1093.776,423.894
			c6.67,0,12.049,5.379,12.049,12.049c0,6.67-5.379,12.05-12.049,12.05c-6.67,0-12.048-5.38-12.048-12.05
			C1081.728,429.273,1087.106,423.894,1093.776,423.894z"/>
		<path fill="#00B1EE" d="M1143.907,455.093h-13.77c-4.734,0-7.531-2.798-7.531-6.886c0-4.519,3.227-7.315,9.252-7.315h13.771
			l1.72-15.492c0.431-4.088,3.228-7.96,8.607-7.96c5.378,0,7.745,3.227,7.745,7.96l-1.721,15.492h29.046
			c4.734,0,7.531,2.583,7.531,6.885c0,4.303-3.227,7.316-9.251,7.316h-29.047l-7.96,75.952c-0.216,3.012-0.216,3.658-0.216,5.164
			c0,13.556,6.455,19.795,18.289,19.795c12.91,0,29.047-11.403,32.92-42.602c0.646-5.81,4.303-7.961,7.746-7.961
			c3.442,0,7.1,2.367,7.1,7.745c0,0.431-0.215,1.722-0.215,1.722c-3.873,34.21-24.744,55.296-50.133,55.296
			c-16.353,0-32.059-9.897-32.059-34.426c0-1.937,0.214-4.302,0.43-6.67L1143.907,455.093z"/>
		<path fill="#00B1EE" d="M1207.376,475.102c0.43-4.087,3.227-8.176,8.176-8.176c5.165,0,7.746,2.152,7.746,8.176l-5.594,55.943
			c-0.215,2.152-0.215,3.012-0.215,4.303c0,11.834,5.809,20.655,17.428,20.655c15.921,0,25.604-10.757,29.261-42.602
			c0.646-5.81,4.304-8.607,7.961-8.607c4.088,0,7.53,3.228,7.53,10.113c-4.088,35.07-18.934,55.296-44.968,55.296
			c-17.428,0-33.565-9.251-33.565-33.564c0-1.506,0-2.367,0.43-6.885L1207.376,475.102z M1219.64,423.894
			c6.67,0,12.05,5.379,12.05,12.049c0,6.67-5.38,12.05-12.05,12.05c-6.669,0-12.049-5.38-12.049-12.05
			C1207.591,429.273,1212.971,423.894,1219.64,423.894z"/>
		<path fill="#00B1EE" d="M1334.965,496.618c0.214-1.937,0.214-2.582,0.214-3.873c0-9.466-4.518-13.77-13.77-13.77
			c-12.694,0-24.959,11.833-31.413,21.516c-5.164,7.961-10.328,18.719-12.049,35.286l-2.582,23.668
			c-0.646,5.378-3.442,8.606-8.606,8.606c-4.303,0-7.746-2.367-7.746-7.961l8.606-84.559c0.646-6.023,4.519-8.606,8.391-8.606
			c5.595,0,8.176,2.798,8.176,8.822l-1.506,15.275c7.961-14.2,24.744-26.249,41.957-26.249c19.149,0,26.895,10.543,26.895,26.249
			c0,1.722,0,2.798-0.215,5.38l-3.872,33.78c-0.215,2.366-0.215,3.013-0.215,4.519c0,13.555,7.314,21.301,18.934,21.301
			c13.34,0,24.098-10.112,29.047-42.602c0.86-5.164,3.658-7.746,7.531-7.746c5.379,0,7.96,3.228,7.96,9.683
			c-4.519,33.995-19.149,54.865-44.969,54.865c-25.173,0-34.426-17.213-34.426-34.641c0-1.722,0-2.582,0.215-5.164L1334.965,496.618
			z"/>
		<path fill="#00B1EE" d="M1484.715,580.316c-4.519,40.021-23.237,57.448-46.475,57.448c-16.352,0-27.11-11.404-27.11-26.035
			c0-24.099,23.023-38.083,58.094-43.462l1.506-12.265c-9.251,6.885-19.364,11.188-32.489,11.188
			c-22.807,0-43.677-15.061-43.677-45.398c0-29.478,19.149-57.019,53.575-57.019c13.34,0,24.529,5.81,30.337,15.277l0.861-4.95
			c0.646-4.518,3.658-8.176,8.822-8.176c4.948,0,7.315,2.367,7.315,7.746l-9.252,90.152c12.48-4.304,20.226-10.758,30.769-21.085
			c1.936-1.937,4.087-2.583,6.024-2.583c4.088,0,7.101,3.228,7.101,7.316c0,2.366-0.861,4.087-2.797,6.238
			C1516.344,566.116,1503.433,576.013,1484.715,580.316z M1475.678,511.25c0.215-2.582,0.215-3.228,0.215-4.734
			c0-16.782-11.834-27.54-29.908-27.54c-19.795,0-34.21,19.148-34.21,41.095c0,22.808,11.619,32.919,30.553,32.919
			c9.251,0,16.352-2.582,22.592-8.606c5.809-5.378,7.96-10.327,8.821-17.428L1475.678,511.25z M1467.287,583.113
			c-28.617,4.518-40.235,16.137-40.235,28.186c0,7.102,4.518,12.265,11.833,12.265
			C1453.085,623.563,1462.983,608.072,1467.287,583.113z"/>
	</g>
</g>
</svg>
