<?xml version="1.0" encoding="utf-8"?>
<!-- Generator: Adobe Illustrator 16.0.0, SVG Export Plug-In . SVG Version: 6.00 Build 0)  -->
<!DOCTYPE svg PUBLIC "-//W3C//DTD SVG 1.1//EN" "http://www.w3.org/Graphics/SVG/1.1/DTD/svg11.dtd">
<svg version="1.1" id="Layer_1" xmlns="http://www.w3.org/2000/svg" xmlns:xlink="http://www.w3.org/1999/xlink" x="0px" y="0px"
	 width="2400px" height="1600px" viewBox="0 0 2400 1600" enable-background="new 0 0 2400 1600" xml:space="preserve">
<path fill="#00B1EE" d="M-20-20v1640h2440V-20H-20z M56.172,1560C47.24,1560,40,1552.758,40,1543.826
	c0-8.933,7.24-16.172,16.172-16.172c8.932,0,16.173,7.239,16.173,16.172C72.345,1552.758,65.104,1560,56.172,1560z M56.172,72.346
	C47.24,72.346,40,65.104,40,56.172C40,47.239,47.24,40,56.172,40c8.932,0,16.173,7.239,16.173,16.172
	C72.345,65.104,65.104,72.346,56.172,72.346z M2343.827,1560c-8.933,0-16.172-7.242-16.172-16.174
	c0-8.933,7.24-16.172,16.172-16.172s16.173,7.239,16.173,16.172C2360,1552.758,2352.76,1560,2343.827,1560z M2343.827,72.346
	c-8.933,0-16.172-7.242-16.172-16.174c0-8.933,7.24-16.172,16.172-16.172S2360,47.239,2360,56.172
	C2360,65.104,2352.76,72.346,2343.827,72.346z"/>
<g>
	<path fill="#FFFFFF" d="M380.308,630.047c0-4.9,2.1-7,7-7h129.497c4.9,0,7,2.1,7,7v5.25c0,71.751-42.349,121.802-111.647,121.802
		c-64.048,0-124.947-40.95-124.947-126.002c0-82.251,61.599-126.003,125.997-126.003c45.849,0,81.897,23.451,100.797,49.701
		c1.4,1.75,1.75,3.5,1.75,4.9c0,2.45-1.05,3.85-3.5,6.3l-21.7,19.251c-2.45,2.1-4.2,2.8-5.95,2.8c-2.1,0-3.85-1.05-5.95-3.851
		c-18.2-23.45-38.149-36.4-67.198-36.4c-38.849,0-75.948,27.65-75.948,83.302c0,53.551,37.099,83.302,76.298,83.302
		c32.549,0,55.648-16.101,62.648-48.651h-87.147c-4.9,0-7-2.101-7-7V630.047z"/>
	<path fill="#FFFFFF" d="M606.055,740.998l-61.598-144.553c-0.7-1.75-0.7-2.449-0.7-3.5c0-2.799,2.45-3.85,4.9-3.85h36.749
		c4.9,0,6.65,1.75,8.05,5.6l35.699,88.553l32.899-87.502c1.75-4.9,3.85-6.65,9.1-6.65h34.999c2.8,0,4.9,1.051,4.9,3.85
		c0,0.701,0,1.4-0.7,3.15L617.254,829.2c-1.4,3.149-3.15,4.899-6.65,4.899h-37.099c-2.45,0-4.2-1.05-4.2-3.149
		c0-1.4,0.7-2.8,1.05-3.851L606.055,740.998z"/>
	<path fill="#FFFFFF" d="M735.2,596.096c0-4.9,2.1-7,7-7h29.399c4.9,0,7,2.1,7,7v10.5c10.15-12.6,26.599-21,45.499-21
		c20.999,0,34.999,11.2,41.649,21c14-12.6,27.299-21,52.848-21c28.35,0,52.499,16.801,52.499,53.551v107.452c0,4.899-2.1,7-7,7
		h-29.399c-4.899,0-7-2.101-7-7V645.097c0-13.3-7.35-21.001-18.899-21.001c-8.4,0-16.45,2.451-24.149,10.15
		c-8.4,8.4-11.2,19.951-11.2,38.151v74.201c0,4.899-2.1,7-7,7h-29.399c-4.899,0-7-2.101-7-7V641.947c0-10.15-7-17.852-17.85-17.852
		c-7.7,0-15.399,2.801-22.049,9.801c-8.05,8.75-11.55,17.15-11.55,37.101v75.602c0,4.899-2.1,7-7,7H742.2c-4.9,0-7-2.101-7-7
		V596.096z"/>
	<path fill="#FFFFFF" d="M1015.897,596.096c0-4.9,2.1-7,7-7h29.399c4.9,0,7,2.1,7,7v14.7c15.399-15.399,36.749-25.2,61.598-25.2
		c32.549,0,51.449,18.9,51.449,45.851v115.152c0,4.899-2.1,7-7,7h-29.399c-4.9,0-7-2.101-7-7V645.447
		c0-14.351-7.35-21.352-21.349-21.352c-16.45,0-29.399,9.801-37.099,22.051c-7.35,11.551-11.2,21.351-11.2,40.251v60.201
		c0,4.899-2.1,7-7,7h-29.399c-4.9,0-7-2.101-7-7V596.096z"/>
	<path fill="#FFFFFF" d="M1340.343,739.599c-11.899,10.149-25.199,17.5-48.998,17.5c-44.1,0-83.298-27.65-83.298-85.751
		c0-54.252,38.849-85.752,84.348-85.752c22.049,0,35.699,5.95,47.599,16.801v-6.301c0-4.9,2.1-7,7-7h29.399
		c4.899,0,6.999,2.1,6.999,7v150.503c0,4.899-2.1,7-6.999,7h-24.85c-4.55,0-7-1.75-9.45-9.101L1340.343,739.599z M1339.993,660.848
		c0-10.851-2.45-18.201-9.8-25.201c-7.7-7.35-17.85-11.551-31.849-11.551c-24.149,0-45.499,17.852-45.499,47.252
		s20.299,47.25,44.799,47.25c14.35,0,26.599-5.6,33.949-14.699c5.949-8.051,8.399-13.65,8.399-24.852V660.848z"/>
	<path fill="#FFFFFF" d="M1436.94,695.498c2.45-1.4,3.5-1.75,5.6-1.75c2.45,0,4.551,1.399,6.65,4.199
		c12.949,17.5,24.149,22.051,37.799,22.051c10.149,0,16.8-5.25,16.8-13.65c0-10.15-4.2-16.1-33.6-24.15
		c-28.699-7.7-48.299-23.801-48.299-48.65c0-32.201,31.5-47.951,57.398-47.951c27.649,0,44.1,8.051,60.549,21.351
		c2.1,1.75,3.15,3.149,3.15,5.95c0,1.75-1.051,3.5-2.101,4.9l-14.35,17.85c-2.1,2.45-3.5,3.15-5.949,3.15
		c-2.45,0-4.2-1.051-5.601-2.1c-12.249-9.451-21.699-14.701-35.349-14.701c-8.4,0-15.75,4.2-15.75,10.851
		c0,7,5.25,11.899,30.8,18.55c37.799,9.801,53.898,24.501,53.898,53.201c0,28.701-23.1,52.501-63.349,52.501
		c-28.35,0-55.648-12.95-72.098-37.801c-1.051-1.75-1.4-2.8-1.4-4.899c0-2.801,1.75-5.601,4.55-7.351L1436.94,695.498z"/>
	<path fill="#FFFFFF" d="M1602.842,511.395c15.399,0,27.299,11.9,27.299,27.301s-11.899,27.3-27.299,27.3
		s-27.299-11.899-27.299-27.3S1587.442,511.395,1602.842,511.395z M1581.143,596.096c0-4.9,2.1-7,7-7h29.398c4.9,0,7,2.1,7,7
		v150.503c0,4.899-2.1,7-7,7h-29.398c-4.9,0-7-2.101-7-7V596.096z"/>
	<path fill="#FFFFFF" d="M1666.544,596.096c0-4.9,2.1-7,7-7h29.399c4.899,0,6.999,2.1,6.999,7v92.402c0,19.25,10.85,30.1,30.1,30.1
		c11.55,0,22.05-4.199,29.049-11.55c8.4-8.4,10.5-16.101,10.5-31.851v-79.102c0-4.9,2.1-7,7-7h29.399c4.899,0,7,2.1,7,7v150.503
		c0,4.899-2.101,7-7,7h-29.399c-4.9,0-7-2.101-7-7v-3.851c-14.699,10.5-26.949,14.351-48.999,14.351
		c-40.599,0-64.048-25.2-64.048-64.751V596.096z"/>
	<path fill="#FFFFFF" d="M1866.392,596.096c0-4.9,2.1-7,6.999-7h29.399c4.9,0,7,2.1,7,7v10.5c10.149-12.6,26.6-21,45.499-21
		c20.999,0,34.999,11.2,41.648,21c14-12.6,27.3-21,52.849-21c28.35,0,52.499,16.801,52.499,53.551v107.452c0,4.899-2.1,7-7,7
		h-29.399c-4.899,0-7-2.101-7-7V645.097c0-13.3-7.35-21.001-18.899-21.001c-8.399,0-16.449,2.451-24.149,10.15
		c-8.399,8.4-11.199,19.951-11.199,38.151v74.201c0,4.899-2.1,7-7,7h-29.399c-4.899,0-7-2.101-7-7V641.947
		c0-10.15-6.999-17.852-17.85-17.852c-7.699,0-15.399,2.801-22.049,9.801c-8.05,8.75-11.55,17.15-11.55,37.101v75.602
		c0,4.899-2.1,7-7,7h-29.399c-4.899,0-6.999-2.101-6.999-7V596.096z"/>
	<path d="M285.995,873.494c0-3.5,1.4-4.9,4.9-4.9h91.348c47.249,0,79.448,28.701,79.448,71.752
		c0,41.301-29.749,70.701-73.498,70.701h-73.498v97.651c0,3.5-1.4,4.9-4.9,4.9h-18.899c-3.5,0-4.9-1.4-4.9-4.9V873.494z
		 M386.093,985.846c31.849,0,46.898-20.649,46.898-45.5s-15.399-46.551-46.898-46.551h-71.398v92.051H386.093z"/>
	<path d="M498.441,873.494c0-3.5,1.4-4.9,4.9-4.9h145.596c3.5,0,4.9,1.4,4.9,4.9v15.4c0,3.5-1.4,4.9-4.9,4.9H527.14v78.401h98.698
		c3.5,0,4.899,1.399,4.899,4.899v15.4c0,3.5-1.4,4.9-4.899,4.9H527.14v91.002h126.697c3.5,0,4.9,1.399,4.9,4.899v15.4
		c0,3.5-1.4,4.9-4.9,4.9H503.341c-3.5,0-4.9-1.4-4.9-4.9V873.494z"/>
	<path d="M915.979,1093.298c-17.5,15.751-38.499,23.801-66.498,23.801c-43.749,0-73.848-28.351-73.848-71.051
		c0-33.951,21.349-55.651,44.799-68.602l-4.55-5.95c-11.2-14.7-20.3-29.75-20.3-49.701c0-35,27.649-56.701,61.599-56.701
		c36.749,0,60.548,22.751,60.548,54.252c0,26.25-19.25,53.9-54.249,66.15l53.898,65.451c8.75-13.65,16.45-30.801,23.45-49.351
		c0.7-2.45,2.1-3.149,3.5-3.149c0.7,0,1.05,0,3.15,0.699l15.75,7c1.75,0.7,2.45,2.1,2.45,3.5c0,0.7,0,1.051-0.35,2.101
		c-10.5,25.2-19.949,44.45-30.799,60.201l27.649,33.601c1.4,1.75,1.75,2.8,1.75,4.2c0,2.449-1.75,3.85-3.85,3.85h-20.3
		c-5.95,0-8.75-2.8-11.899-6.3L915.979,1093.298z M836.881,997.047c-19.95,11.199-32.549,26.6-32.549,49.7
		c0,27.65,21,45.151,47.249,45.151c18.55,0,34.299-6.3,47.599-18.9L836.881,997.047z M847.731,966.596
		c28.699-10.5,41.999-24.5,41.999-47.25c0-18.551-12.949-29.751-32.549-29.751s-32.899,12.95-32.899,31.15
		c0,13.65,5.6,23.45,16.8,37.45L847.731,966.596z"/>
	<path d="M1172.869,991.097c0-3.5,1.4-4.9,4.9-4.9h126.347c3.499,0,4.899,1.4,4.899,4.9v7.351
		c0,66.501-38.499,118.651-106.397,118.651c-62.648,0-118.297-42.351-118.297-126.002c0-80.852,56.349-126.003,119.347-126.003
		c39.55,0,76.299,18.9,95.198,47.602c1.399,2.1,2.1,3.85,2.1,5.6c0,1.4-0.35,2.801-2.1,4.2l-11.9,9.8
		c-1.399,1.051-2.449,1.75-3.85,1.75c-2.1,0-3.5-1.049-4.899-3.149c-20.649-29.751-48.299-40.601-76.299-40.601
		c-43.398,0-86.797,31.5-86.797,100.802c0,66.851,41.299,100.802,86.797,100.802c47.249,0,75.248-30.451,77.349-80.502h-101.498
		c-3.5,0-4.9-1.399-4.9-4.9V991.097z"/>
	<path d="M1478.408,1095.398c-13.649,14-29.749,21.7-54.249,21.7c-45.148,0-80.498-29.75-80.498-85.751
		c0-52.852,34.999-85.752,83.998-85.752c23.449,0,43.399,10.5,52.148,21v-12.6c0-3.5,1.4-4.9,4.9-4.9h16.8
		c3.499,0,4.899,1.4,4.899,4.9v154.702c0,3.5-1.4,4.9-4.899,4.9h-11.2c-3.85,0-5.95-1.75-7-4.9L1478.408,1095.398z
		 M1479.808,1014.197c0-12.25-3.149-19.601-10.499-27.65c-9.8-10.5-22.75-17.851-40.249-17.851c-33.249,0-57.398,23.8-57.398,63.001
		c0,38.15,23.099,62.301,56.698,62.301c20.999,0,33.949-9.45,43.049-21.351c6.3-7.699,8.399-15.75,8.399-29.05V1014.197z"/>
	<path d="M1552.61,953.996c0-3.5,1.4-4.9,4.9-4.9h16.799c3.5,0,4.9,1.4,4.9,4.9v21.7c9.1-15.4,27.299-30.101,52.849-30.101
		c21.699,0,37.099,10.5,42.349,31.15c11.899-18.551,30.1-31.15,51.799-31.15c29.049,0,46.898,14.35,46.898,45.501v117.602
		c0,3.5-1.399,4.9-4.899,4.9h-16.8c-3.5,0-4.899-1.4-4.899-4.9V994.597c0-15.4-7.7-25.9-23.8-25.9
		c-17.5,0-27.649,10.149-38.149,24.5c-6.3,8.751-8.399,14.7-8.399,28.7v86.802c0,3.5-1.4,4.9-4.899,4.9h-16.8
		c-3.5,0-4.9-1.4-4.9-4.9V994.597c0-16.45-8.399-25.9-23.799-25.9c-16.1,0-28.699,10.5-37.1,22.75
		c-5.949,8.751-9.449,16.45-9.449,26.251v91.001c0,3.5-1.4,4.9-4.9,4.9h-16.799c-3.5,0-4.9-1.4-4.9-4.9V953.996z"/>
	<path d="M1964.906,1080.348c1.05,1.051,1.75,2.101,1.75,3.851c0,1.4-0.7,2.8-2.1,4.2c-19.6,19.601-41.649,28.7-68.599,28.7
		c-44.799,0-85.748-30.45-85.748-85.751c0-52.151,36.749-85.752,82.599-85.752c48.998,0,78.048,38.851,80.497,79.801v9.101
		c0,2.8-1.75,4.9-4.899,4.9H1838.21c2.1,34.301,26.249,54.601,57.748,54.601c23.8,0,39.549-9.1,51.449-22.75
		c1.749-1.75,2.8-2.101,4.199-2.101c1.4,0,2.8,0.7,4.2,2.101L1964.906,1080.348z M1945.307,1017.697
		c-1.399-25.9-21.699-49.001-51.799-49.001c-31.148,0-51.099,19.601-55.298,49.001H1945.307z"/>
	<path d="M2013.908,1063.897c1.05-0.699,2.449-1.05,3.149-1.05c2.45,0,3.5,1.05,4.55,2.45c14.7,21.7,28.699,28.7,50.398,28.7
		c21,0,29.05-10.5,29.05-23.45c0-18.2-15.399-24.851-44.099-32.2c-24.85-6.301-50.049-18.551-50.049-47.602
		c0-30.45,27.299-45.15,55.998-45.15c22.05,0,39.199,6.301,56.699,24.15c1.05,1.05,1.399,2.1,1.399,3.5c0,1.051-0.35,2.45-1.75,3.85
		l-7.35,8.4c-1.4,1.4-2.8,2.45-4.55,2.45c-2.1,0-3.5-0.7-5.25-2.101c-13.3-11.899-24.85-17.149-40.249-17.149
		c-16.449,0-28.349,7.351-28.349,21c0,16.45,19.949,22.751,40.248,28.351c29.399,8.051,54.599,20.65,54.599,49.701
		c0,25.55-19.249,49.351-57.398,49.351c-28.699,0-54.248-10.5-71.748-37.45c-0.7-1.051-1.05-2.45-1.05-3.851
		c0-1.75,0.7-3.5,3.15-4.9L2013.908,1063.897z"/>
</g>
</svg>
