<?xml version="1.0" encoding="utf-8"?>
<!-- Generator: Adobe Illustrator 16.0.0, SVG Export Plug-In . SVG Version: 6.00 Build 0)  -->
<!DOCTYPE svg PUBLIC "-//W3C//DTD SVG 1.1//EN" "http://www.w3.org/Graphics/SVG/1.1/DTD/svg11.dtd">
<svg version="1.1" id="Layer_1" xmlns="http://www.w3.org/2000/svg" xmlns:xlink="http://www.w3.org/1999/xlink" x="0px" y="0px"
	 width="2400px" height="1600px" viewBox="0 0 2400 1600" enable-background="new 0 0 2400 1600" xml:space="preserve">
<path fill="#00B1EE" d="M-20-20v1640h2440V-20H-20z M56.172,1560C47.24,1560,40,1552.758,40,1543.826
	c0-8.933,7.24-16.172,16.172-16.172c8.933,0,16.174,7.239,16.174,16.172C72.346,1552.758,65.104,1560,56.172,1560z M56.172,72.346
	C47.24,72.346,40,65.104,40,56.172C40,47.239,47.24,40,56.172,40c8.933,0,16.174,7.239,16.174,16.172
	C72.346,65.104,65.104,72.346,56.172,72.346z M2343.827,1560c-8.933,0-16.173-7.242-16.173-16.174
	c0-8.933,7.24-16.172,16.173-16.172s16.173,7.239,16.173,16.172C2360,1552.758,2352.76,1560,2343.827,1560z M2343.827,72.346
	c-8.933,0-16.173-7.242-16.173-16.174c0-8.933,7.24-16.172,16.173-16.172S2360,47.239,2360,56.172
	C2360,65.104,2352.76,72.346,2343.827,72.346z"/>
<g>
	<path fill="#FFFFFF" d="M510.684,485.022c2.1-1.399,3.5-1.75,4.899-1.75c2.45,0,3.499,0.7,5.249,3.851
		c13.65,25.2,31.85,38.85,58.449,38.85c21.699,0,38.85-13.649,38.85-35.35c0-26.25-16.1-33.951-54.6-45.15
		c-33.249-9.801-66.148-30.801-66.148-70.352c0-43.751,32.199-66.852,75.949-66.852c40.248,0,61.248,17.851,75.947,36.75
		c1.4,1.75,2.1,3.15,2.1,4.551s-0.699,2.801-2.799,4.551l-18.2,15.049c-1.75,1.4-3.149,2.101-4.899,2.101
		c-2.101,0-4.2-1.05-5.95-3.149c-12.25-15.051-26.6-25.551-46.198-25.551c-23.1,0-37.449,12.95-37.449,29.75
		c0,19.951,19.6,30.801,51.098,40.251c45.149,13.65,71.748,30.45,71.748,74.552c0,43.75-34.648,73.15-80.848,73.15
		c-44.099,0-78.047-22.05-91.697-51.801c-1.051-2.1-1.4-2.8-1.4-4.55c0-2.101,1.4-3.851,3.85-5.25L510.684,485.022z"/>
	<path fill="#FFFFFF" d="M707.38,423.072h-26.249c-4.9,0-7-2.101-7-7.001v-16.8c0-4.9,2.1-7,7-7h26.249V342.57c0-4.9,2.1-7,6.999-7
		h21.7c4.899,0,6.999,2.1,6.999,7v49.701h37.449c4.9,0,7,2.1,7,7v16.8c0,4.9-2.1,7.001-7,7.001h-37.449v81.9
		c0,15.4,6.301,24.501,21.35,24.501c7,0,10.5-1.75,13.301-1.75c2.449,0,3.5,1.399,3.5,3.851v22.05c0,3.5-1.051,4.55-5.25,5.25
		c-6.65,1.05-14.35,1.399-23.449,1.399c-26.6,0-45.149-14.35-45.149-44.1V423.072z"/>
	<path fill="#FFFFFF" d="M820.43,399.271c0-4.9,2.1-7,6.999-7h21.7c4.899,0,7,2.1,7,7v98.352c0,20.65,11.898,31.851,31.498,31.851
		c14.7,0,26.949-4.2,37.1-15.05c8.05-8.751,9.449-16.102,9.449-26.602v-88.551c0-4.9,2.1-7,7-7h21.699c4.9,0,7,2.1,7,7v150.502
		c0,4.9-2.1,7-7,7h-21.699c-4.9,0-7-2.1-7-7v-7c-15.399,13.301-31.148,17.5-54.248,17.5c-36.399,0-59.498-22.4-59.498-56V399.271z"
		/>
	<path fill="#FFFFFF" d="M1130.174,542.424c-13.65,11.551-25.55,17.85-50.749,17.85c-41.298,0-75.948-28.699-75.948-85.751
		c0-53.901,36.75-85.751,80.148-85.751c20.648,0,36.398,6.649,46.549,17.5V311.77c0-4.9,2.1-7,7-7h21.699c4.899,0,7,2.1,7,7v238.004
		c0,4.9-2.101,7-6.65,7h-17.149c-4.899,0-7.351-1.75-9.1-7L1130.174,542.424z M1130.174,460.872c0-10.851-2.1-17.851-9.45-25.9
		c-7.7-8.75-19.249-15.399-33.599-15.399c-26.6,0-46.549,21-46.549,55.301c0,31.5,17.85,54.601,46.198,54.601
		c15.75,0,27.999-6.65,34.999-15.751c6.65-8.399,8.4-15.75,8.4-27.3V460.872z"/>
	<path fill="#FFFFFF" d="M1226.775,318.07c13.301,0,23.801,10.5,23.801,23.8s-10.5,23.8-23.801,23.8
		c-13.299,0-23.799-10.5-23.799-23.8S1213.477,318.07,1226.775,318.07z M1208.926,399.271c0-4.9,2.102-7,7-7h21.699c4.9,0,7,2.1,7,7
		v150.502c0,4.9-2.1,7-7,7h-21.699c-4.898,0-7-2.1-7-7V399.271z"/>
	<path fill="#FFFFFF" d="M1277.178,474.522c0-52.851,36.049-85.751,85.748-85.751s85.748,32.9,85.748,85.751
		c0,56.701-39.199,85.751-85.748,85.751S1277.178,531.224,1277.178,474.522z M1411.574,474.873
		c0-35.352-21.699-55.301-48.648-55.301s-48.648,19.949-48.648,55.301c0,32.2,18.199,54.601,48.648,54.601
		S1411.574,507.073,1411.574,474.873z"/>
	<path fill="#FFFFFF" d="M1563.121,528.424c0-4.551,1.049-6.65,4.199-10.15l81.549-79.802c20.998-20.65,28.699-38.851,28.699-57.401
		c0-23.1-16.1-38.5-38.15-38.5c-22.748,0-36.049,16.1-45.148,37.101c-1.4,2.8-2.799,3.851-4.549,3.851
		c-1.051,0-2.451-0.351-3.852-1.051l-23.098-10.85c-2.451-1.051-3.852-2.451-3.852-4.551c0-1.05,0.352-2.449,1.051-3.85
		c12.949-31.15,40.6-54.951,79.447-54.951c45.5,0,78.049,28.701,78.049,70.701c0,30.801-13.65,54.602-38.5,79.801l-62.998,63.701
		h99.049c4.898,0,6.998,2.101,6.998,7.001v20.3c0,4.9-2.1,7-6.998,7h-144.896c-4.9,0-7-2.1-7-7V528.424z"/>
	<path fill="#FFFFFF" d="M1892.461,358.32c-1.4,1.75-2.801,2.45-4.9,2.45c-1.75,0-3.85-0.7-5.6-2.101
		c-15.4-12.6-26.949-16.1-42.699-16.1c-29.049,0-50.049,29.4-53.197,71.051c11.549-12.25,29.748-21.35,50.748-21.35
		c44.449,0,78.748,31.15,78.748,84.001c0,49.001-37.449,84.001-83.998,84.001c-49.699,0-86.098-37.1-86.098-104.301
		c0-84.002,34.648-147.703,94.498-147.703c29.049,0,49.348,10.15,64.398,24.851c1.398,1.399,2.1,3.5,2.1,4.899
		c0,1.75-0.352,2.801-1.4,4.201L1892.461,358.32z M1788.164,480.473c0,28,19.949,45.5,44.098,45.5c23.449,0,44.799-17.5,44.799-49.7
		c0-31.851-21.699-49.7-44.799-49.7c-13.648,0-22.748,5.25-31.498,12.6c-4.551,3.85-12.25,11.9-12.6,29.051V480.473z"/>
	<path d="M453.11,800.222c0-67.551,48.999-131.952,128.097-131.952c37.799,0,59.148,11.2,75.248,25.201
		c6.65,5.6,11.199,11.199,11.199,19.25c0,11.9-8.749,18.55-18.898,18.55c-8.051,0-12.95-3.149-18.2-8.05
		c-11.899-11.551-26.599-20.65-49.698-20.65c-55.648,0-87.148,46.551-87.148,99.052c0,56.7,35,84.351,74.549,84.351
		c29.749,0,44.799-11.199,58.098-28c5.25-6.65,10.5-10.15,18.2-10.15c10.499,0,18.55,7.701,18.55,18.551
		c0,5.949-3.15,12.25-8.75,17.85c-21.699,23.102-48.299,36.051-87.498,36.051C502.809,920.273,453.11,881.773,453.11,800.222z"/>
	<path d="M779.652,748.771c47.248,0,80.147,30.801,80.147,80.501c0,51.45-33.95,91.001-88.548,91.001
		c-45.148,0-81.897-26.6-81.897-80.5C689.354,790.422,722.953,748.771,779.652,748.771z M822.701,829.973
		c0-32.201-19.6-50.4-44.799-50.4c-30.799,0-51.449,25.199-51.449,59.15c0,30.1,16.449,50.75,45.498,50.75
		C801.002,889.473,822.701,866.373,822.701,829.973z"/>
	<path d="M902.502,684.02c0.699-13.65,8.75-19.25,18.199-19.25c12.25,0,17.5,7,17.5,19.25l-10.5,187.953
		c-0.699,12.602,5.25,17.5,11.9,17.5c7.699,0,10.5-3.5,16.449-3.5c8.75,0,12.949,5.602,12.949,13.301c0,11.9-10.85,21-36.748,21
		c-21.699,0-40.6-11.9-40.6-42.701L902.502,684.02z"/>
	<path d="M1073.652,748.771c47.25,0,80.148,30.801,80.148,80.501c0,51.45-33.949,91.001-88.547,91.001
		c-45.148,0-81.898-26.6-81.898-80.5C983.355,790.422,1016.955,748.771,1073.652,748.771z M1116.701,829.973
		c0-32.201-19.598-50.4-44.799-50.4c-30.798,0-51.447,25.199-51.447,59.15c0,30.1,16.449,50.75,45.498,50.75
		S1116.701,866.373,1116.701,829.973z"/>
	<path d="M1190.201,771.521c0.701-13.65,8.75-19.25,18.199-19.25c9.801,0,14.701,4.9,16.1,12.6l1.051,5.6
		c11.549-12.25,30.1-21.699,51.799-21.699c41.998,0,71.398,26.95,71.398,77.701c0,50.75-28,93.801-82.598,93.801
		c-21.35,0-37.1-5.6-47.25-14l-4.199,71.752c-0.699,13.65-8.75,19.25-18.551,19.25c-11.199,0-17.148-7-17.148-19.25
		L1190.201,771.521z M1221.352,854.473c0,10.85,1.75,17.15,9.1,23.451c7.35,6.299,18.199,11.549,33.949,11.549
		c31.498,0,47.248-28,47.248-60.2c0-29.051-14.699-49.7-40.949-49.7c-15.75,0-27.648,7.35-36.049,17.5
		c-6.65,7.699-10.85,17.15-11.549,29.051L1221.352,854.473z"/>
	<path d="M1391.445,684.02c0.701-13.65,8.75-19.25,18.199-19.25c12.25,0,17.5,7,17.5,19.25l-4.9,91.352
		c15.051-15.05,33.949-26.6,62.299-26.6c29.049,0,51.1,16.449,51.1,49.351v4.2l-3.85,72.451c-0.352,7.35,0.699,10.85,7.35,13.301
		c6.648,2.449,9.449,6.648,9.449,12.6c0,10.15-7.699,16.1-21,16.1c-16.1,0-32.199-6.299-32.199-30.449v-3.15l4.201-77.002
		c0-16.801-7.352-26.6-25.199-26.6c-16.451,0-32.551,10.85-42.699,25.199c-6.65,9.451-12.25,23.102-13.301,40.602l-2.799,52.15
		c-0.701,13.65-8.75,19.25-18.199,19.25c-12.25,0-17.5-7-17.5-19.25L1391.445,684.02z"/>
	<path d="M1664.791,748.771c47.248,0,80.146,30.801,80.146,80.501c0,51.45-33.949,91.001-88.547,91.001
		c-45.148,0-81.898-26.6-81.898-80.5C1574.492,790.422,1608.092,748.771,1664.791,748.771z M1707.84,829.973
		c0-32.201-19.6-50.4-44.799-50.4c-30.801,0-51.449,25.199-51.449,59.15c0,30.1,16.449,50.75,45.498,50.75
		C1686.141,889.473,1707.84,866.373,1707.84,829.973z"/>
	<path d="M1782.389,771.521c0.699-13.65,8.75-19.25,18.199-19.25c12.25,0,17.5,7,17.5,19.25l-0.352,4.55
		c15.051-15.05,37.1-27.3,61.6-27.3c34.998,0,50.748,17.5,50.748,47.95c0,1.4-0.35,3.15-0.35,5.95l-3.85,72.102
		c-0.35,7.35,0.699,10.5,7.35,13.301c5.949,2.449,9.449,5.6,9.449,14s-6.65,14.699-20.648,14.699
		c-16.451,0-32.551-8.049-32.551-33.6l4.551-78.752c0-14.7-6.301-24.85-24.148-24.85c-18.9,0-36.051,15.399-44.449,27.65
		c-6.65,10.149-10.15,17.15-11.551,41.301l-2.799,49c-0.701,13.65-8.75,19.25-18.199,19.25c-12.25,0-17.5-7-17.5-19.25
		L1782.389,771.521z"/>
	<path d="M576.831,1051.02c0.7-13.299,7-19.25,20.3-19.25h124.597c10.85,0,18.55,4.9,18.55,17.15c0,11.201-8.051,17.15-20.3,17.15
		H614.631l-3.851,68.951h82.599c10.85,0,18.549,4.9,18.549,17.15c0,11.199-8.05,17.15-20.299,17.15H609.03l-4.55,88.201
		c-0.699,13.301-8.4,19.25-20.299,19.25c-11.9,0-18.2-6.299-18.2-19.25L576.831,1051.02z"/>
	<path d="M825.324,1108.771c47.249,0,80.148,30.801,80.148,80.5c0,51.451-33.949,91.002-88.548,91.002
		c-45.149,0-81.897-26.6-81.897-80.5C735.027,1150.422,768.627,1108.771,825.324,1108.771z M868.373,1189.973
		c0-32.201-19.6-50.4-44.799-50.4c-30.799,0-51.447,25.199-51.447,59.15c0,30.1,16.448,50.75,45.498,50.75
		C846.674,1249.473,868.373,1226.373,868.373,1189.973z"/>
	<path d="M939.773,1219.723l4.551-88.201c0.699-13.65,8.75-19.25,18.199-19.25c12.25,0,17.5,7,17.5,19.25l-4.551,86.102
		c0,20.65,9.8,31.85,28.699,31.85c14.699,0,26.25-4.199,37.1-15.049c8.399-8.75,10.149-16.102,10.85-26.602l3.85-76.301
		c0.7-13.65,8.75-19.25,18.199-19.25c12.25,0,17.5,7,17.5,19.25l-5.6,99.752c0,11.9,2.1,15.4,5.949,19.25
		c2.801,2.801,4.199,5.6,4.199,11.201c0,8.75-6.299,15.049-17.498,15.049c-10.5,0-19.25-5.949-24.5-16.1
		c-17.5,15.051-36.398,19.6-55.648,19.6c-37.1,0-58.799-20.301-58.799-55.301V1219.723z"/>
	<path d="M1137.525,1131.521c0.699-13.65,8.75-19.25,18.199-19.25c12.25,0,17.5,7,17.5,19.25l-0.35,4.551
		c15.049-15.051,37.098-27.301,61.598-27.301c35,0,50.748,17.5,50.748,47.951c0,1.398-0.35,3.148-0.35,5.949l-3.85,72.102
		c-0.35,7.35,0.699,10.5,7.35,13.301c5.949,2.449,9.449,5.6,9.449,14s-6.648,14.699-20.648,14.699
		c-16.449,0-32.549-8.049-32.549-33.6l4.549-78.752c0-14.699-6.299-24.85-24.148-24.85c-18.9,0-36.049,15.4-44.449,27.65
		c-6.65,10.15-10.15,17.15-11.55,41.301l-2.8,49c-0.7,13.65-8.75,19.25-18.199,19.25c-12.25,0-17.5-7-17.5-19.25L1137.525,1131.521z
		"/>
	<path d="M1458.471,1044.02c0.699-13.65,8.75-19.25,18.199-19.25c12.25,0,17.5,7,17.5,19.25l-10.15,189.354
		c0,2.801-0.35,5.6-0.35,7.35c0,5.951,1.4,10.15,3.15,14.701c1.049,2.449,1.398,5.25,1.398,7.35c0,10.15-7.699,15.75-17.848,15.75
		c-7.701,0-15.4-3.15-20.301-14.35c-14.699,10.15-28.35,16.1-50.049,16.1c-40.949,0-76.297-28-76.297-79.102
		c0-52.15,32.898-92.4,84.697-92.4c19.6,0,35.35,6.65,45.498,16.799L1458.471,1044.02z M1451.121,1182.623
		c0-10.852-1.051-19.602-9.1-29.051c-6.301-7.352-18.199-14-32.9-14c-27.648,0-48.299,22.75-48.299,58.451
		c0,32.549,18.9,51.449,43.4,51.449c16.799,0,27.648-5.6,35.348-15.4c7.35-9.449,9.451-16.1,10.15-27.65L1451.121,1182.623z"/>
	<path d="M1535.473,1131.521c0.699-13.65,8.75-19.25,18.199-19.25c12.25,0,17.5,7,17.5,19.25v2.801
		c12.6-15.752,31.848-25.551,52.498-25.551c29.75,0,50.049,19.25,50.049,50.051c0,11.199-7.699,17.15-16.449,17.15
		c-9.1,0-17.15-4.551-18.199-15.051c-1.75-14.35-10.85-21.35-22.75-21.35c-14,0-26.6,9.449-35,20.299
		c-8.049,10.852-13.299,24.15-14.35,45.152l-2.799,52.5c-0.701,13.65-8.75,19.25-18.199,19.25c-12.25,0-17.5-7-17.5-19.25
		L1535.473,1131.521z"/>
	<path d="M1746.168,1271.174l-50.047-132.652c-1.051-2.801-1.4-5.25-1.4-7.699c0-11.201,9.449-18.551,19.248-18.551
		c8.051,0,14,4.199,17.5,13.65l35.35,99.4l46.199-102.551c3.148-7.35,9.799-10.5,16.1-10.5c10.148,0,17.85,6.299,17.85,15.75
		c0,2.449-0.701,4.9-1.75,7.35l-95.549,211.404c-3.5,7.35-9.799,10.5-16.1,10.5c-10.148,0-17.148-5.949-17.148-15.75
		c0-2.451,0.35-5.25,1.75-8.4L1746.168,1271.174z"/>
</g>
</svg>
