<?xml version="1.0" encoding="utf-8"?>
<!-- Generator: Adobe Illustrator 16.0.0, SVG Export Plug-In . SVG Version: 6.00 Build 0)  -->
<!DOCTYPE svg PUBLIC "-//W3C//DTD SVG 1.1//EN" "http://www.w3.org/Graphics/SVG/1.1/DTD/svg11.dtd">
<svg version="1.1" id="Layer_1" xmlns="http://www.w3.org/2000/svg" xmlns:xlink="http://www.w3.org/1999/xlink" x="0px" y="0px"
	 width="2400px" height="1600px" viewBox="0 0 2400 1600" enable-background="new 0 0 2400 1600" xml:space="preserve">
<g>
	<path fill="#00B1EE" d="M-20-20v800h1200V-20H-20z M55.827,739.346c-8.933,0-16.173-7.242-16.173-16.174
		c0-8.933,7.24-16.172,16.173-16.172S72,714.239,72,723.172C72,732.104,64.76,739.346,55.827,739.346z M55.827,72.346
		c-8.933,0-16.173-7.242-16.173-16.174c0-8.933,7.24-16.172,16.173-16.172S72,47.239,72,56.172
		C72,65.104,64.76,72.346,55.827,72.346z M1123.827,739.346c-8.933,0-16.173-7.242-16.173-16.174c0-8.933,7.24-16.172,16.173-16.172
		S1140,714.239,1140,723.172C1140,732.104,1132.76,739.346,1123.827,739.346z M1123.827,72.346c-8.933,0-16.173-7.242-16.173-16.174
		c0-8.933,7.24-16.172,16.173-16.172S1140,47.239,1140,56.172C1140,65.104,1132.76,72.346,1123.827,72.346z"/>
	<path fill="#00B1EE" d="M1220-20v800h1200V-20H1220z M1275.827,739.346c-8.933,0-16.173-7.242-16.173-16.174
		c0-8.933,7.24-16.172,16.173-16.172S1292,714.239,1292,723.172C1292,732.104,1284.76,739.346,1275.827,739.346z M1275.827,72.346
		c-8.933,0-16.173-7.242-16.173-16.174c0-8.933,7.24-16.172,16.173-16.172S1292,47.239,1292,56.172
		C1292,65.104,1284.76,72.346,1275.827,72.346z M2343.827,739.346c-8.933,0-16.173-7.242-16.173-16.174
		c0-8.933,7.24-16.172,16.173-16.172S2360,714.239,2360,723.172C2360,732.104,2352.76,739.346,2343.827,739.346z M2343.827,72.346
		c-8.933,0-16.173-7.242-16.173-16.174c0-8.933,7.24-16.172,16.173-16.172S2360,47.239,2360,56.172
		C2360,65.104,2352.76,72.346,2343.827,72.346z"/>
	<path fill="#00B1EE" d="M-20,820v800h1200V820H-20z M55.827,1560.346c-8.933,0-16.173-7.242-16.173-16.174
		c0-8.933,7.24-16.172,16.173-16.172S72,1535.239,72,1544.172C72,1553.104,64.76,1560.346,55.827,1560.346z M55.827,893.346
		c-8.933,0-16.173-7.242-16.173-16.174c0-8.933,7.24-16.172,16.173-16.172S72,868.239,72,877.172
		C72,886.104,64.76,893.346,55.827,893.346z M1123.827,1560.346c-8.933,0-16.173-7.242-16.173-16.174
		c0-8.933,7.24-16.172,16.173-16.172s16.173,7.239,16.173,16.172C1140,1553.104,1132.76,1560.346,1123.827,1560.346z
		 M1123.827,893.346c-8.933,0-16.173-7.242-16.173-16.174c0-8.933,7.24-16.172,16.173-16.172S1140,868.239,1140,877.172
		C1140,886.104,1132.76,893.346,1123.827,893.346z"/>
	<path fill="#00B1EE" d="M1220,820v800h1200V820H1220z M1275.827,1560.346c-8.933,0-16.173-7.242-16.173-16.174
		c0-8.933,7.24-16.172,16.173-16.172s16.173,7.239,16.173,16.172C1292,1553.104,1284.76,1560.346,1275.827,1560.346z
		 M1275.827,893.346c-8.933,0-16.173-7.242-16.173-16.174c0-8.933,7.24-16.172,16.173-16.172S1292,868.239,1292,877.172
		C1292,886.104,1284.76,893.346,1275.827,893.346z M2343.827,1560.346c-8.933,0-16.173-7.242-16.173-16.174
		c0-8.933,7.24-16.172,16.173-16.172s16.173,7.239,16.173,16.172C2360,1553.104,2352.76,1560.346,2343.827,1560.346z
		 M2343.827,893.346c-8.933,0-16.173-7.242-16.173-16.174c0-8.933,7.24-16.172,16.173-16.172S2360,868.239,2360,877.172
		C2360,886.104,2352.76,893.346,2343.827,893.346z"/>
</g>
<g>
	<g>
		<path fill="#FFFFFF" d="M231.086,281.545c4.2-9.1,8.751-12.949,16.801-12.949c7.7,0,13.65,5.25,15.4,13.299l51.451,212.805
			c0.699,2.449,1.05,4.9,1.05,6.299c0,8.051-5.95,14.002-13.65,14.002c-8.05,0-11.9-4.551-14-12.951l-14.351-60.9h-91.002
			l-30.101,63c-3.85,8.051-7.7,10.852-14,10.852c-6.65,0-12.95-5.602-12.95-13.301c0-2.801,1.05-5.951,3.15-10.15L231.086,281.545z
			 M267.837,415.947l-23.801-103.602l-49.351,103.602H267.837z"/>
		<path fill="#FFFFFF" d="M356.025,364.146c1.051-9.801,7.001-15.051,14.001-15.051c6.3,0,10.85,3.15,11.55,12.951l0.7,10.5
			c11.9-13.301,31.15-26.951,58.801-26.951c38.15,0,64.751,25.551,64.751,75.951c0,27.301-9.45,53.551-27.3,69.652
			c48.65-7.352,75.951-27.65,82.601-69.652c1.4-9.799,6.301-14.35,13.301-14.35c6.3,0,12.601,5.25,12.601,14.701
			c0,1.75-0.351,3.5-0.7,5.25c-13.301,61.25-59.852,89.951-149.803,89.951c-38.15,0-56.701-8.4-67.901-19.951L356.025,609.5
			c-1.05,9.801-5.949,14.002-13.3,14.002c-7.7,0-13.3-4.201-13.3-12.602L356.025,364.146z M373.876,450.947
			c-0.35,5.602-0.35,7-0.35,8.75c0,10.502,2.45,15.752,11.55,23.102c6.65,5.25,21.351,11.199,33.951,11.199h3.5
			c33.25,0,54.95-31.85,54.95-70.701c0-33.6-15.05-54.6-43.4-54.6c-18.9,0-34.65,12.25-46.201,25.549
			c-6.3,7.352-10.149,17.15-11.55,30.801L373.876,450.947z"/>
		<path fill="#FFFFFF" d="M567.422,364.146c1.051-9.801,7.001-15.051,14.001-15.051c6.3,0,10.85,3.15,11.55,12.951l0.7,10.5
			c11.9-13.301,31.15-26.951,58.801-26.951c38.15,0,64.751,25.551,64.751,75.951c0,27.301-9.45,53.551-27.3,69.652
			c48.65-7.352,75.951-27.65,82.601-69.652c1.4-9.799,6.301-14.35,13.301-14.35c6.3,0,12.601,5.25,12.601,14.701
			c0,1.75-0.351,3.5-0.7,5.25c-13.301,61.25-59.852,89.951-149.803,89.951c-38.15,0-56.701-8.4-67.901-19.951L567.422,609.5
			c-1.05,9.801-5.949,14.002-13.3,14.002c-7.7,0-13.3-4.201-13.3-12.602L567.422,364.146z M585.272,450.947
			c-0.35,5.602-0.35,7-0.35,8.75c0,10.502,2.45,15.752,11.55,23.102c6.65,5.25,21.351,11.199,33.951,11.199h3.5
			c33.25,0,54.95-31.85,54.95-70.701c0-33.6-15.05-54.6-43.4-54.6c-18.9,0-34.65,12.25-46.201,25.549
			c-6.3,7.352-10.149,17.15-11.55,30.801L585.272,450.947z"/>
		<path fill="#FFFFFF" d="M790.019,252.494c0.7-7.35,5.601-13.299,14.001-13.299c7.35,0,12.25,2.799,12.25,11.898l-20.301,196.354
			c-0.35,3.852-0.35,5.951-0.35,8.75c0,26.951,15.4,37.801,41.65,37.801c18.551,0,30.801-2.449,49.001-10.85
			c2.45-1.051,4.55-1.75,6.65-1.75c8.05,0,11.9,5.951,11.9,11.9c0,3.5-1.75,7-5.25,9.1c-16.45,9.801-40.602,14.701-64.401,14.701
			c-39.201,0-65.802-19.951-65.802-62.301c0-0.352,0-4.201,0.7-11.9L790.019,252.494z"/>
		<path fill="#FFFFFF" d="M1018.221,457.947c3.149-3.85,6.3-5.25,10.149-5.25c6.301,0,11.9,4.201,11.9,11.201
			c0,3.15-1.4,6.301-3.85,9.449C1015.42,497.85,986.37,517.1,947.519,517.1c-52.851,0-83.651-37.451-83.651-83.652
			c0-52.15,39.201-87.852,80.502-87.852c32.551,0,52.15,20.65,52.15,47.602c0,35-25.2,70.701-71.751,96.602
			c6.65,2.801,14.7,4.199,24.15,4.199C983.569,493.998,1000.72,478.598,1018.221,457.947z M941.569,368.697
			c-23.451,0-50.401,21.699-50.401,66.85c0,14.352,4.2,28.352,12.95,39.201c32.551-16.801,65.102-42,65.102-79.451
			C969.22,379.197,959.069,368.697,941.569,368.697z"/>
	</g>
</g>
<g>
	<g>
		<path fill="#FFFFFF" d="M1454.76,1113.795h-108.151c-8.75,0-12.95-5.25-12.95-12.25c0-7.35,4.899-12.949,15.05-12.949h124.952
			c8.75,0,15.4,5.949,15.4,13.648c0,5.951-2.45,9.102-7.35,15.752l-142.453,190.402h121.103c8.75,0,12.95,5.25,12.95,12.25
			c0,7.352-4.9,12.951-15.051,12.951h-138.603c-8.05,0-15.05-5.25-15.05-15.051c0-6.65,3.85-11.551,8.75-17.85L1454.76,1113.795z"/>
		<path fill="#FFFFFF" d="M1565.356,1309.449c9.101,2.799,19.601,4.549,31.851,4.549c29.4,0,52.851-6.299,72.102-22.4
			c13.65-11.199,26.25-30.1,31.5-56.701c1.4-7.35,6.65-10.5,12.251-10.5c6.649,0,13.649,4.9,13.649,12.602
			c0,1.4-0.35,2.449-0.699,3.85c-7.7,29.051-23.451,53.551-40.951,68.252c-24.5,20.65-57.051,28-88.201,28
			c-63.352,0-94.502-34.65-94.502-77.002c0-55.65,42.351-94.502,83.302-94.502c35,0,52.501,20.65,52.501,46.201
			C1638.158,1248.197,1610.157,1284.248,1565.356,1309.449z M1543.656,1296.498c42.001-19.25,67.201-52.15,67.201-81.201
			c0-16.1-9.8-26.6-27.65-26.6c-27.65,0-54.951,28-54.951,68.951C1528.256,1273.748,1533.506,1287.049,1543.656,1296.498z"/>
		<path fill="#FFFFFF" d="M1715.15,1073.195c1.05-9.801,6.3-14,13.65-14c8.75,0,13.3,4.199,13.3,13.648l-12.95,125.303
			c10.5-16.1,36.4-32.551,64.051-32.551c40.251,0,66.502,28.002,66.502,73.152c0,31.15-16.101,63-42.001,77.352
			c55.65-5.951,86.451-26.951,95.901-73.852c1.75-7.701,6.3-11.551,12.601-11.551c5.25,0,10.85,3.85,10.85,11.551
			c0,1.4-0.35,2.799-0.699,4.549c-14.001,62.652-60.901,90.303-144.903,90.303c-31.851,0-57.751-6.65-72.451-25.201l-1.05,6.301
			c-2.1,12.6-10.5,15.4-16.101,15.4c-6.649,0-11.2-4.9-11.2-14.352L1715.15,1073.195z M1723.2,1266.049
			c-0.35,3.5-0.35,3.85-0.35,5.6c0,23.1,15.4,42.35,47.251,42.35c40.601,0,61.251-32.199,61.251-74.9
			c0-30.801-12.251-50.4-41.651-50.4s-60.551,28-64.4,59.85L1723.2,1266.049z"/>
		<path fill="#FFFFFF" d="M1944.399,1198.848c10.501-13.65,24.151-23.801,39.201-28.352c5.6-1.75,11.9-3.15,18.9-3.15
			c7.35,0,11.9,2.1,17.851,8.051c10.149,10.15,22.05,18.551,43.75,18.551c37.101,0,54.951-28.352,105.002-28.352
			c6.65,0,11.9,3.5,11.9,11.9c0,7.701-5.25,11.201-11.9,11.201c-44.801,0-66.501,28-107.102,28c-26.25,0-46.9-10.85-61.602-25.9
			c-14.35,0-26.25,4.9-37.8,15.75c-11.9,11.551-22.051,29.4-24.501,54.951l-5.95,58.102c-1.05,8.75-5.95,14-13.3,14
			c-8.75,0-13.301-5.25-13.301-12.951l14.001-137.553c1.05-9.449,7.35-14,14-14c7.7,0,12.601,3.5,12.601,13.301L1944.399,1198.848z"
			/>
		<path fill="#FFFFFF" d="M2231.398,1274.799c-0.35,3.85-0.699,6.648-0.699,9.799c0,20.301,9.8,29.4,23.8,29.4
			c10.851,0,16.45-4.199,26.251-12.6c2.8-2.449,5.95-3.5,8.75-3.5c6.3,0,10.85,5.25,10.85,11.201c0,3.148-1.05,5.949-3.5,8.75
			c-10.5,12.25-25.9,19.25-45.15,19.25s-34.301-8.051-41.301-23.451c-16.8,16.801-37.101,23.451-58.451,23.451
			c-37.101,0-74.201-24.852-74.201-74.902c0-53.201,37.101-96.602,94.151-96.602c20.301,0,35.701,7,46.901,15.051
			c1.05-5.949,5.6-11.551,12.95-11.551c8.05,0,11.2,5.25,11.2,14.352L2231.398,1274.799z M2211.799,1228.598
			c0.35-3.5,0.35-5.6,0.35-7.701c0-9.799-2.8-14.699-9.45-20.299c-8.75-7.701-19.95-11.9-33.95-11.9
			c-36.401,0-63.001,30.801-63.001,70.701c0,35,19.6,54.6,48.301,54.6c17.85,0,29.4-4.898,39.9-16.449
			c7-7.701,11.2-18.9,13.3-34.301L2211.799,1228.598z"/>
	</g>
</g>
<g>
	<g>
		<path d="M419.554,1093.494c0-3.5,1.4-4.898,4.9-4.898h75.951c45.851,0,70.351,29.049,70.351,62.65
			c0,18.199-9.45,36.75-25.55,47.25c36.75,10.5,51.45,33.602,51.45,64.402c0,39.199-24.5,70.701-77.351,70.701h-94.852
			c-3.5,0-4.9-1.4-4.9-4.9V1093.494z M500.405,1192.197c22.75,0,41.65-14,41.65-39.201c0-28-18.9-39.201-41.65-39.201h-52.151
			v78.402H500.405z M515.455,1308.398c33.601,0,52.501-17.5,52.501-45.5c0-27.301-17.851-45.502-52.501-45.502h-67.201v91.002
			H515.455z"/>
		<path d="M625.349,1205.496c0-3.5,1.4-4.898,4.9-4.898h140.702c3.5,0,4.9,1.398,4.9,4.898v14.701c0,3.5-1.4,4.9-4.9,4.9H630.249
			c-3.5,0-4.9-1.4-4.9-4.9V1205.496z"/>
	</g>
</g>
<g>
	<g>
		<path d="M1610.854,293.795h-124.602c-3.5,0-4.9-1.4-4.9-4.9v-15.4c0-3.5,1.4-4.898,4.9-4.898h149.803
			c3.5,0,4.899,1.398,4.899,4.898v14.352c0,4.9-1.399,7.35-3.149,11.199l-89.602,210.004c-1.75,3.85-3.851,4.551-9.101,4.551h-16.1
			c-2.801,0-4.551-1.4-4.551-3.85c0-1.051,0.351-1.75,0.7-2.801L1610.854,293.795z"/>
		<path d="M1661.604,391.098c0-80.852,40.95-126.002,96.252-126.002c55.301,0,96.251,45.15,96.251,126.002
			c0,78.4-36.4,126.002-96.251,126.002C1698.005,517.1,1661.604,469.498,1661.604,391.098z M1823.308,391.098
			c0-66.502-27.651-100.803-65.451-100.803c-37.801,0-65.451,34.301-65.451,100.803c0,68.6,27.3,100.801,65.451,100.801
			C1796.007,491.898,1823.308,459.697,1823.308,391.098z"/>
		<path d="M1880.699,323.545c0-35.699,22.4-58.449,56.351-58.449c33.951,0,56.352,22.75,56.352,58.449
			c0,37.801-24.501,58.451-56.352,58.451S1880.699,361.346,1880.699,323.545z M1969.601,323.896c0-22.4-14-37.801-32.551-37.801
			c-18.55,0-32.55,15.4-32.55,37.801s12.95,37.1,32.55,37.1C1956.65,360.996,1969.601,346.297,1969.601,323.896z M2078.453,273.846
			c2.449-3.5,4.899-5.25,8.75-5.25h15.75c2.8,0,4.2,1.75,4.2,3.85c0,1.049-0.351,2.1-1.05,3.15L1940.2,508.35
			c-2.45,3.5-4.9,5.25-8.75,5.25h-15.75c-2.801,0-4.2-1.75-4.2-3.85c0-1.051,0.35-2.102,1.05-3.15L2078.453,273.846z
			 M2025.252,458.648c0-35.701,22.4-58.451,56.351-58.451c33.951,0,56.352,22.75,56.352,58.451
			c0,37.801-24.501,58.451-56.352,58.451S2025.252,496.449,2025.252,458.648z M2114.153,458.998c0-22.4-14-37.801-32.551-37.801
			c-18.55,0-32.551,15.4-32.551,37.801s12.95,37.102,32.551,37.102S2114.153,481.398,2114.153,458.998z"/>
	</g>
</g>
</svg>
