<?xml version="1.0" encoding="utf-8"?>
<!-- Generator: Adobe Illustrator 16.0.0, SVG Export Plug-In . SVG Version: 6.00 Build 0)  -->
<!DOCTYPE svg PUBLIC "-//W3C//DTD SVG 1.1//EN" "http://www.w3.org/Graphics/SVG/1.1/DTD/svg11.dtd">
<svg version="1.1" id="Layer_1" xmlns="http://www.w3.org/2000/svg" xmlns:xlink="http://www.w3.org/1999/xlink" x="0px" y="0px"
	 width="2400px" height="1600px" viewBox="0 0 2400 1600" enable-background="new 0 0 2400 1600" xml:space="preserve">
<path fill="#00B1EE" d="M-20-20v1640h2440V-20H-20z M56.172,1560C47.24,1560,40,1552.758,40,1543.826
	c0-8.933,7.24-16.172,16.172-16.172c8.932,0,16.173,7.239,16.173,16.172C72.345,1552.758,65.105,1560,56.172,1560z M56.172,72.346
	C47.24,72.346,40,65.104,40,56.172C40,47.239,47.24,40,56.172,40c8.932,0,16.173,7.239,16.173,16.172
	C72.345,65.104,65.105,72.346,56.172,72.346z M2343.827,1560c-8.933,0-16.172-7.242-16.172-16.174
	c0-8.933,7.24-16.172,16.172-16.172s16.173,7.239,16.173,16.172C2360,1552.758,2352.76,1560,2343.827,1560z M2343.827,72.346
	c-8.933,0-16.172-7.242-16.172-16.174c0-8.933,7.24-16.172,16.172-16.172S2360,47.239,2360,56.172
	C2360,65.104,2352.76,72.346,2343.827,72.346z"/>
<g>
	<path fill="#FFFFFF" d="M473.76,331.043c0-3.5,1.4-4.9,4.9-4.9h85.748c48.298,0,76.298,27.65,76.298,63.701
		s-28,63.701-70.348,63.701h-4.2l78.048,110.603c0.7,1.05,1.05,2.101,1.05,3.149c0,2.101-1.75,3.851-4.55,3.851h-20.649
		c-4.9,0-6.65-1.399-9.45-5.25l-78.748-112.353h-29.4v112.703c0,3.5-1.4,4.899-4.9,4.899H478.66c-3.5,0-4.9-1.399-4.9-4.899V331.043
		z M564.757,428.345c32.199,0,47.249-13.649,47.249-38.501c0-24.85-15.05-38.5-47.249-38.5h-62.299v77.001H564.757z"/>
	<path fill="#FFFFFF" d="M664.51,488.896c0-52.151,34.299-85.752,82.598-85.752s82.598,33.601,82.598,85.752
		c0,55.301-37.449,85.751-82.598,85.751C701.959,574.647,664.51,544.197,664.51,488.896z M801.707,489.246
		c0-39.201-24.5-63.001-54.599-63.001c-30.099,0-54.599,23.8-54.599,63.001c0,35.701,21.699,62.301,54.599,62.301
		C780.007,551.547,801.707,524.947,801.707,489.246z"/>
	<path fill="#FFFFFF" d="M859.108,488.896c0-52.151,34.299-85.752,82.598-85.752s82.598,33.601,82.598,85.752
		c0,55.301-37.449,85.751-82.598,85.751S859.108,544.197,859.108,488.896z M996.305,489.246c0-39.201-24.5-63.001-54.599-63.001
		s-54.599,23.8-54.599,63.001c0,35.701,21.7,62.301,54.599,62.301C974.605,551.547,996.305,524.947,996.305,489.246z"/>
	<path fill="#FFFFFF" d="M1060.708,411.545c0-3.5,1.4-4.9,4.9-4.9h16.8c3.5,0,4.9,1.4,4.9,4.9v21.7
		c9.1-15.4,27.299-30.101,52.849-30.101c21.699,0,37.099,10.5,42.349,31.15c11.9-18.551,30.1-31.15,51.799-31.15
		c29.049,0,46.898,14.35,46.898,45.501v117.603c0,3.5-1.399,4.899-4.899,4.899h-16.8c-3.5,0-4.899-1.399-4.899-4.899V452.146
		c0-15.4-7.7-25.9-23.8-25.9c-17.5,0-27.649,10.149-38.149,24.5c-6.3,8.751-8.4,14.7-8.4,28.7v86.803c0,3.5-1.4,4.899-4.9,4.899
		h-16.799c-3.5,0-4.9-1.399-4.9-4.899V452.146c0-16.45-8.4-25.9-23.799-25.9c-16.1,0-28.7,10.5-37.099,22.75
		c-5.95,8.751-9.45,16.45-9.45,26.251v91.002c0,3.5-1.4,4.899-4.9,4.899h-16.8c-3.5,0-4.9-1.399-4.9-4.899V411.545z"/>
	<path fill="#FFFFFF" d="M1410.001,550.848c0-3.5,1.399-4.9,4.899-4.9h42.349V362.544l-31.849,29.751c-1.4,1.399-2.45,1.75-3.5,1.75
		s-2.1-0.351-3.149-1.75l-10.851-14.351c-1.05-1.4-1.399-2.45-1.399-3.501c0-1.049,0.35-2.1,1.399-3.149l45.149-40.601
		c3.5-3.5,5.25-4.551,10.5-4.551h17.499c3.5,0,4.9,1.4,4.9,4.9v214.904h42.349c3.5,0,4.899,1.4,4.899,4.9v15.4
		c0,3.5-1.399,4.899-4.899,4.899H1414.9c-3.5,0-4.899-1.399-4.899-4.899V550.848z"/>
	<path fill="#FFFFFF" d="M1573.099,505.346c1.05-0.699,2.1-1.049,2.8-1.049c1.75,0,2.45,0.699,3.15,2.449
		c9.449,19.951,26.949,42.701,57.748,42.701c31.149,0,53.199-20.65,53.199-56.001c0-38.501-24.85-56.001-51.799-56.001
		c-23.449,0-40.6,11.9-50.749,23.45c-1.75,2.101-2.45,2.45-4.2,2.45c-0.699,0-1.05,0-2.449-0.35l-17.149-3.851
		c-1.4-0.351-2.101-1.05-2.101-2.45v-1.4l17.85-122.502c0.7-4.199,2.8-6.65,7-6.65h110.247c3.5,0,4.899,1.4,4.899,4.9v15.4
		c0,3.5-1.399,4.9-4.899,4.9h-93.447l-11.55,74.901c11.899-8.05,28.349-14.001,46.898-14.001c42.699,0,80.148,23.801,80.148,81.202
		c0,48.651-34.649,81.201-81.898,81.201c-43.049,0-69.998-28.351-81.548-54.601c-0.35-1.051-0.35-1.4-0.35-1.75
		c0-1.4,0.35-2.45,2.1-3.5L1573.099,505.346z"/>
	<path fill="#FFFFFF" d="M1763.844,331.043c0-3.5,1.399-4.9,4.899-4.9h75.948c45.849,0,70.348,29.051,70.348,62.652
		c0,18.199-9.449,36.75-25.549,47.25c36.749,10.5,51.448,33.601,51.448,64.401c0,39.2-24.499,70.701-77.348,70.701h-94.848
		c-3.5,0-4.899-1.399-4.899-4.899V331.043z M1844.691,429.745c22.749,0,41.648-14.001,41.648-39.2
		c0-28.001-18.899-39.201-41.648-39.201h-52.148v78.401H1844.691z M1859.741,545.947c33.599,0,52.498-17.5,52.498-45.501
		c0-27.301-17.85-45.501-52.498-45.501h-67.198v91.002H1859.741z"/>
	<path d="M403.236,861.646c0-8.05,6.65-14,14.699-14c5.6,0,10.15,2.8,13.3,8.399c13.3,24.501,29.399,43.401,63.349,43.401
		c28.699,0,48.648-15.4,48.648-41.651c0-28.7-17.85-43.05-54.949-53.55c-34.299-9.801-65.098-29.751-65.098-66.502
		c0-39.201,31.849-65.102,76.298-65.102c36.749,0,61.248,16.801,74.198,33.251c3.5,4.2,4.9,8.05,4.9,11.9c0,8.05-5.6,14-13.649,14
		c-4.2,0-8.75-1.75-12.25-5.95c-15.75-17.5-30.099-28-54.599-28c-22.399,0-46.198,12.25-46.198,37.451
		c0,24.5,23.799,36.05,52.849,45.5c38.849,12.6,69.298,33.951,69.298,71.751c0,41.651-32.549,72.102-82.948,72.102
		c-43.049,0-72.798-24.5-85.748-53.9C403.936,867.246,403.236,864.446,403.236,861.646z"/>
	<path d="M632.133,779.745h-22.399c-9.1,0-12.95-4.55-12.95-11.2c0-7,4.55-11.9,14.35-11.9h22.399l2.45-44.451
		c0.35-6.649,4.55-12.949,13.65-12.949c8.05,0,12.95,5.949,12.95,12.949l-2.45,44.451h37.449c9.1,0,12.95,4.551,12.95,11.2
		c0,7-4.55,11.9-14.35,11.9h-37.449l-4.9,94.852c-1.05,18.551,6.65,26.95,19.95,26.95c5.95,0,9.799-2.45,14.699-2.45
		c5.6,0,9.8,2.801,9.8,10.15c0,8.051-3.85,10.851-11.2,12.95c-7,2.101-12.6,2.45-19.949,2.45c-23.8,0-39.899-14.351-40.249-42.001
		L632.133,779.745z"/>
	<path d="M876.428,881.247c0,12.25,4.2,19.95,18.2,20.3c8.399,0.351,11.899,5.601,11.899,10.851c0,7.35-4.9,12.25-14.7,12.25
		c-18.199,0-31.149-8.75-36.399-22.75c-16.1,14.7-30.799,22.75-58.448,22.75c-38.849,0-74.548-28-74.548-78.401
		c0-55.65,36.749-93.102,89.598-93.102c29.75,0,52.149,15.051,63.698,30.101c4.55,5.95,6.3,11.55,6.3,16.45l-5.6,77.352V881.247z
		 M855.429,812.295v-3.5c0-7.699-2.45-13.649-9.45-19.6c-10.5-8.75-22.049-12.95-36.049-12.95c-34.999,0-59.498,27.65-59.498,67.901
		c0,36.05,21.349,57.4,49.349,57.4c20.299,0,31.499-5.25,43.049-19.25c5.6-6.65,8.4-16.101,9.45-29.751L855.429,812.295z"/>
	<path d="M947.128,779.745h-22.4c-9.1,0-12.949-4.55-12.949-11.2c0-7,4.55-11.9,14.35-11.9h22.399l2.449-44.451
		c0.35-6.649,4.55-12.949,13.65-12.949c8.05,0,12.95,5.949,12.95,12.949l-2.45,44.451h37.449c9.1,0,12.95,4.551,12.95,11.2
		c0,7-4.55,11.9-14.35,11.9h-37.449l-4.9,94.852c-1.05,18.551,6.65,26.95,19.95,26.95c5.95,0,9.799-2.45,14.699-2.45
		c5.6,0,9.8,2.801,9.8,10.15c0,8.051-3.85,10.851-11.2,12.95c-7,2.101-12.6,2.45-19.949,2.45c-23.799,0-39.899-14.351-40.249-42.001
		L947.128,779.745z"/>
	<path d="M1057.727,769.945c0.35-7.351,3.5-13.301,14-13.301c8.75,0,12.25,5.25,12.25,13.301l-5.6,113.401
		c-0.35,10.5,1.05,14.351,8.75,16.45c4.9,1.4,7,4.9,7,9.45c0,7.351-6.3,11.9-15.399,11.9c-15.05,0-26.95-7.351-26.95-26.25
		L1057.727,769.945z M1074.526,686.644c10.85,0,19.6,8.75,19.6,19.601c0,10.85-8.75,19.6-19.6,19.6s-19.6-8.75-19.6-19.6
		C1054.926,695.394,1063.676,686.644,1074.526,686.644z"/>
	<path d="M1121.428,845.546c0-47.601,31.149-92.401,88.547-92.401c44.799,0,76.299,29.75,76.299,80.151
		c0,49.351-31.85,91.352-86.448,91.352C1156.427,924.647,1121.428,896.997,1121.428,845.546z M1258.274,834.346
		c0-36.4-21.35-58.101-49.349-58.101c-37.099,0-59.498,31.501-59.498,67.201c0,35.351,21.349,58.101,50.749,58.101
		C1237.625,901.547,1258.274,873.196,1258.274,834.346z"/>
	<path d="M1324.775,770.645c0.351-9.8,5.95-14,14-14c9.1,0,12.95,5.25,12.95,14l-0.7,12.601c12.6-15.4,37.449-30.101,65.448-30.101
		c30.449,0,46.549,17.5,46.549,43.4c0,1.4,0,2.801-0.351,8.051l-4.55,78.751v3.851c0,8.05,2.101,10.5,8.75,12.6
		c4.2,1.4,6.649,4.2,6.649,9.45c0,8.051-6.3,11.9-15.399,11.9c-13.649,0-26.599-7-26.599-28.7l4.899-91.702
		c-0.35-17.149-9.449-24.5-26.6-24.5c-23.799,0-41.998,15.399-51.798,30.101c-5.25,7.699-9.101,18.551-10.5,43.051l-3.15,57.751
		c-0.35,8.4-4.899,14-14.35,14c-8.399,0-11.899-4.9-12.249-14L1324.775,770.645z"/>
	<path d="M1578.867,901.547c24.5,0,38.499-9.8,51.799-24.851c2.8-2.8,5.95-4.899,10.149-4.899c7,0,11.9,4.55,11.9,11.9
		c0,4.199-2.101,8.399-5.25,11.55c-18.55,20.301-43.049,29.4-71.049,29.4c-42.349,0-73.848-29.051-73.848-74.201
		c0-54.251,43.399-97.302,96.598-97.302c32.899,0,53.198,18.9,53.198,44.801c0,22.75-13.649,39.551-40.948,51.451
		c-19.6,8.399-47.249,14-80.148,16.8C1536.519,888.947,1554.018,901.547,1578.867,901.547z M1588.317,833.296
		c26.599-7.7,37.449-18.2,37.449-33.251c0-12.949-9.8-22.75-28.699-22.75c-33.25,0-62.999,26.25-66.499,65.801
		C1555.418,840.996,1573.968,837.496,1588.317,833.296z"/>
	<path d="M1694.019,769.945c0.351-7.351,3.5-13.301,14-13.301c8.75,0,12.25,4.551,12.25,13.301l-0.7,13.3
		c12.25-14.7,31.85-30.101,58.099-30.101c30.799,0,48.299,20.65,48.299,49.352c0,7-5.601,12.25-13.3,12.25
		c-7.35,0-12.25-4.551-13.3-12.25c-2.45-18.9-11.899-26.251-28.35-26.251c-19.949,0-33.948,14-42.698,28.7
		c-5.25,8.75-10.85,23.451-11.9,44.451l-3.149,58.451c-0.35,7.35-3.5,13.3-14,13.3c-8.749,0-11.899-4.55-12.249-13.3
		L1694.019,769.945z"/>
	<path d="M1901.915,917.298l-52.498-141.403c-0.7-2.1-1.05-4.199-1.05-5.949c0-8.051,5.949-13.301,13.3-13.301
		c5.949,0,10.85,3.15,13.649,10.85l41.299,117.603l53.549-119.353c2.8-6.649,8.05-9.1,12.949-9.1c7.35,0,12.95,4.551,12.95,11.551
		c0,1.75-0.351,3.5-1.4,5.949l-99.397,219.454c-2.8,5.95-7.7,8.05-11.899,8.05c-7,0-12.6-4.199-12.6-11.55
		c0-1.75,0.35-4.2,1.399-6.3L1901.915,917.298z"/>
	<path d="M424.409,1155.646c0-64.751,46.548-133.002,122.847-133.002c29.749,0,55.648,11.2,73.848,28.7c4.2,4.2,7,7.7,7,14
		c0,7.351-5.6,12.95-12.6,12.95c-3.85,0-8.05-2.1-10.85-4.55c-20.649-17.5-34.3-25.9-57.398-25.9
		c-59.849,0-92.048,54.601-92.048,107.802c0,64.051,38.499,93.802,79.098,93.802c26.249,0,45.149-11.2,65.098-32.201
		c3.85-4.199,8.4-6.3,12.6-6.3c7.7,0,12.95,5.25,12.95,12.95c0,4.9-2.45,9.45-7.7,14.7c-24.85,24.851-50.399,36.051-85.048,36.051
		C472.708,1274.647,424.409,1234.747,424.409,1155.646z"/>
	<path d="M667.654,1120.645c0.35-9.8,5.95-14,14.7-14c8.749,0,11.899,5.95,11.899,14l-4.9,91.352v3.851c0,28,18.9,35.7,36.4,35.7
		c16.449,0,28.349-5.6,39.199-15.75c9.8-9.101,12.95-19.25,13.65-35.001l4.2-80.151c0.35-9.8,4.9-14,14.7-14
		c8.4,0,11.899,5.95,11.899,14l-6.3,113.752v3.5c0,5.95,1.4,9.101,5.6,11.2c4.2,2.101,5.95,5.601,5.95,10.15
		c0,7.351-4.9,11.9-13.3,11.9c-13.299,0-20.299-8.05-22.749-16.801c-16.1,13.301-33.949,20.301-56.699,20.301
		c-33.249,0-59.148-18.9-59.148-52.851L667.654,1120.645z"/>
	<path d="M858.751,1121.695c0.7-9.801,5.95-15.051,12.95-15.051c6.3,0,10.85,3.15,12.25,11.9l1.4,8.4
		c11.2-13.301,30.449-23.801,54.599-23.801c43.049,0,71.398,25.9,71.398,79.451c0,51.801-27.999,92.052-85.397,92.052
		c-19.25,0-37.449-7.35-47.949-14.7l-4.9,77.701c-0.7,9.801-5.95,14-14,14c-8.75,0-12.6-4.199-12.6-14L858.751,1121.695z
		 M880.451,1217.246c0,9.45,1.75,14.7,9.1,20.301c9.45,7.7,22.05,14,37.449,14c38.149,0,56.349-32.2,56.349-67.551
		c0-34.301-16.8-57.751-46.549-57.751c-18.899,0-33.599,9.1-44.449,22.4c-5.95,7.35-9.45,17.15-10.15,30.801l-1.75,32.55V1217.246z"
		/>
	<path d="M1054.048,1033.144c0.35-8.4,4.2-14,14-14c8.4,0,12.25,4.899,12.6,14l-4.9,102.552
		c9.45-16.101,33.599-32.551,62.298-32.551c40.249,0,70.348,28.7,70.348,79.102c0,53.9-37.099,92.401-86.448,92.401
		c-23.799,0-38.499-5.95-51.798-14.7c-2.45,8.05-7,11.2-14,11.2c-8.05,0-12.6-4.9-12.6-14.351L1054.048,1033.144z
		 M1072.597,1218.297c0,22.05,24.85,33.25,48.298,33.25c34.3,0,59.499-26.25,59.499-70.001c0-32.2-13.3-55.301-44.799-55.301
		c-29.399,0-59.499,28.7-61.249,59.851L1072.597,1218.297z"/>
	<path d="M1238.494,1195.546c0-47.601,31.149-92.401,88.548-92.401c44.799,0,76.298,29.751,76.298,80.151
		c0,49.351-31.85,91.352-86.447,91.352C1273.493,1274.647,1238.494,1246.997,1238.494,1195.546z M1375.341,1184.346
		c0-36.4-21.35-58.101-49.349-58.101c-37.1,0-59.499,31.5-59.499,67.201c0,35.351,21.35,58.101,50.749,58.101
		C1354.691,1251.547,1375.341,1223.196,1375.341,1184.346z"/>
	<path d="M1587.435,1231.247c0,12.25,4.2,19.95,18.199,20.3c8.4,0.351,11.9,5.601,11.9,10.851c0,7.35-4.9,12.25-14.7,12.25
		c-18.199,0-31.149-8.75-36.398-22.75c-16.1,14.7-30.8,22.75-58.449,22.75c-38.849,0-74.548-28-74.548-78.401
		c0-55.651,36.749-93.102,89.598-93.102c29.749,0,52.148,15.05,63.698,30.101c4.55,5.95,6.3,11.55,6.3,16.45l-5.6,77.352V1231.247z
		 M1566.436,1162.296v-3.5c0-7.7-2.45-13.65-9.45-19.601c-10.5-8.75-22.05-12.95-36.049-12.95c-34.999,0-59.499,27.65-59.499,67.901
		c0,36.05,21.35,57.4,49.349,57.4c20.3,0,31.5-5.25,43.049-19.25c5.601-6.65,8.4-16.101,9.45-29.751L1566.436,1162.296z"/>
	<path d="M1652.189,1119.944c0.351-7.35,3.5-13.3,14-13.3c8.75,0,12.25,4.55,12.25,13.3l-0.7,13.301
		c12.25-14.7,31.85-30.101,58.099-30.101c30.799,0,48.299,20.65,48.299,49.351c0,7-5.601,12.25-13.3,12.25
		c-7.35,0-12.25-4.55-13.3-12.25c-2.45-18.9-11.899-26.25-28.35-26.25c-19.949,0-33.948,14-42.698,28.7
		c-5.25,8.75-10.85,23.45-11.9,44.451l-3.149,58.451c-0.35,7.35-3.5,13.3-14,13.3c-8.749,0-11.899-4.55-12.249-13.3
		L1652.189,1119.944z"/>
	<path d="M1956.336,1237.547c0,6.3,0.35,10.5,2.449,17.15c1.051,2.8,1.051,4.55,1.051,6.3c0,7.351-5.25,11.9-12.601,11.9
		c-9.1,0-15.399-5.95-18.199-17.851c-12.25,10.501-29.749,19.601-54.248,19.601c-36.749,0-70.349-26.95-70.349-78.401
		c0-49.701,32.549-93.102,83.647-93.102c21.35,0,39.199,9.101,47.249,19.601l4.9-89.602c0.35-9.101,4.55-14,13.299-14
		c9.8,0,13.3,4.199,13.3,14l-10.499,197.053V1237.547z M1932.536,1172.796c0-12.25-1.05-21.001-8.05-29.051
		c-9.449-10.5-20.649-17.5-36.049-17.5c-35.35,0-55.999,31.15-55.999,67.901c0,35.351,17.5,57.4,47.949,57.4
		c17.149,0,30.799-8.05,41.648-21.351c5.601-6.649,8.05-14,8.75-27.65L1932.536,1172.796z"/>
</g>
</svg>
