<?xml version="1.0" encoding="utf-8"?>
<!-- Generator: Adobe Illustrator 16.0.0, SVG Export Plug-In . SVG Version: 6.00 Build 0)  -->
<!DOCTYPE svg PUBLIC "-//W3C//DTD SVG 1.1//EN" "http://www.w3.org/Graphics/SVG/1.1/DTD/svg11.dtd">
<svg version="1.1" id="Layer_1" xmlns="http://www.w3.org/2000/svg" xmlns:xlink="http://www.w3.org/1999/xlink" x="0px" y="0px"
	 width="2400px" height="1600px" viewBox="0 0 2400 1600" enable-background="new 0 0 2400 1600" xml:space="preserve">
<path fill="#00B1EE" d="M-20-20v1640h2440V-20H-20z M56.172,1560C47.24,1560,40,1552.758,40,1543.826
	c0-8.933,7.24-16.172,16.172-16.172c8.932,0,16.173,7.239,16.173,16.172C72.345,1552.758,65.104,1560,56.172,1560z M56.172,72.345
	C47.24,72.345,40,65.104,40,56.171S47.24,40,56.172,40c8.932,0,16.173,7.239,16.173,16.171S65.104,72.345,56.172,72.345z
	 M2343.827,1560c-8.933,0-16.172-7.242-16.172-16.174c0-8.933,7.24-16.172,16.172-16.172s16.173,7.239,16.173,16.172
	C2360,1552.758,2352.76,1560,2343.827,1560z M2343.827,72.346c-8.933,0-16.172-7.242-16.172-16.174
	c0-8.933,7.24-16.172,16.172-16.172S2360,47.239,2360,56.172C2360,65.104,2352.76,72.346,2343.827,72.346z"/>
<g>
	<path fill="#FFFFFF" d="M528.708,498.07c0-4.9,2.1-7,7-7h87.147c49.699,0,78.748,25.551,78.748,65.801
		c0,37.451-29.399,65.101-70.698,65.801l77.348,105.702c1.05,1.4,1.4,2.8,1.4,3.85c0,2.45-1.75,3.85-4.55,3.85h-33.249
		c-4.9,0-6.65-1.4-9.45-5.25l-79.098-108.152h-16.1v106.402c0,4.9-2.1,7-7,7h-24.499c-4.9,0-7-2.1-7-7V498.07z M623.906,588.372
		c26.599,0,39.199-11.55,39.199-31.5s-12.6-31.5-39.199-31.5h-56.699v63.001H623.906z"/>
	<path fill="#FFFFFF" d="M722.259,653.823c0-52.851,36.049-85.751,85.748-85.751s85.748,32.9,85.748,85.751
		c0,56.701-39.199,85.751-85.748,85.751S722.259,710.524,722.259,653.823z M856.656,654.173c0-35.351-21.699-55.301-48.648-55.301
		s-48.649,19.95-48.649,55.301c0,32.201,18.2,54.601,48.649,54.601S856.656,686.374,856.656,654.173z"/>
	<path fill="#FFFFFF" d="M923.853,653.823c0-52.851,36.049-85.751,85.748-85.751s85.748,32.9,85.748,85.751
		c0,56.701-39.199,85.751-85.748,85.751S923.853,710.524,923.853,653.823z M1058.25,654.173c0-35.351-21.699-55.301-48.648-55.301
		s-48.649,19.95-48.649,55.301c0,32.201,18.2,54.601,48.649,54.601S1058.25,686.374,1058.25,654.173z"/>
	<path fill="#FFFFFF" d="M1131.751,578.571c0-4.9,2.1-7,7-7h21.699c4.9,0,7,2.1,7,7v15.05c11.2-15.75,25.549-25.55,48.649-25.55
		c20.999,0,35.349,8.4,41.648,23.101c11.2-13.3,28.35-23.101,52.849-23.101c29.05,0,49.349,15.75,49.349,48.651v112.352
		c0,4.9-2.1,7-7,7h-21.699c-4.899,0-7-2.1-7-7V621.622c0-14.7-6.3-22.75-20.649-22.75c-10.499,0-20.299,4.9-28.699,15.05
		c-8.749,10.5-12.6,20.301-12.6,37.801v77.352c0,4.9-2.1,7-7,7h-21.699c-4.899,0-7-2.1-7-7V621.272c0-14.701-6.3-22.4-20.649-22.4
		c-9.799,0-19.949,5.6-27.299,15.05c-7.35,9.45-11.2,16.451-11.2,34.651v80.501c0,4.9-2.1,7-7,7h-21.699c-4.9,0-7-2.1-7-7V578.571z"
		/>
	<path fill="#FFFFFF" d="M1502.742,665.023c1.75-1.05,2.8-1.4,3.85-1.4c1.4,0,2.8,0.7,3.851,2.8
		c9.8,20.3,27.649,38.851,54.948,38.851c26.249,0,44.449-17.85,44.449-46.551c0-31.5-24.85-49-57.749-49h-8.399c-4.9,0-7-2.1-7-7
		v-16.8c0-3.85,1.75-6.3,4.55-9.8l44.099-50.751h-88.197c-4.9,0-7-2.1-7-7v-20.3c0-4.9,2.1-7,7-7h131.946c4.9,0,7,2.1,7,7v15.05
		c0,6.65-2.8,11.2-5.95,14.701l-46.549,51.451c34.3,8.05,64.749,32.551,64.749,79.451c0,47.251-34.649,80.852-83.298,80.852
		c-45.149,0-74.549-27.65-86.798-53.201c-0.351-1.05-0.7-1.75-0.7-2.8c0-2.1,1.4-3.85,3.5-5.25L1502.742,665.023z"/>
	<path fill="#FFFFFF" d="M1689.294,498.07c0-4.9,2.1-7,7-7h62.298c66.499,0,125.997,39.201,125.997,122.502
		c0,86.451-59.498,122.502-125.997,122.502h-62.298c-4.9,0-7-2.1-7-7V498.07z M1756.143,701.773c48.998,0,87.848-24.5,87.848-88.201
		c0-64.401-39.199-88.202-87.848-88.202h-28.35v176.403H1756.143z"/>
	<path d="M274.09,858.07c0-4.9,2.1-7,7-7h38.499c4.55,0,5.95,2.1,7,7l38.149,157.853l45.499-157.853c1.4-4.551,3.5-7,8.75-7h30.1
		c5.25,0,7.35,2.449,8.75,7l45.499,157.853l38.149-157.853c1.05-4.9,2.45-7,7-7h38.499c4.899,0,7,2.1,7,7l-62.999,231.004
		c-1.4,4.9-4.2,7-9.1,7h-33.949c-4.9,0-7.35-2.45-8.75-7l-45.149-157.503l-45.149,157.503c-1.4,4.55-3.85,7-8.75,7h-33.949
		c-4.9,0-7.7-2.1-9.1-7L274.09,858.07z"/>
	<path d="M593.288,1013.823c0-53.552,38.499-85.752,87.498-85.752c48.999,0,87.498,32.2,87.498,85.752
		c0,57.4-39.549,85.751-87.498,85.751S593.288,1071.224,593.288,1013.823z M723.485,1014.173c0-30.45-19.6-47.601-42.699-47.601
		c-23.1,0-42.699,17.15-42.699,47.601c0,27.65,16.45,46.9,42.699,46.9C707.035,1061.073,723.485,1041.823,723.485,1014.173z"/>
	<path d="M793.483,1013.823c0-53.552,38.499-85.752,87.498-85.752c48.999,0,87.498,32.2,87.498,85.752
		c0,57.4-39.549,85.751-87.498,85.751S793.483,1071.224,793.483,1013.823z M923.68,1014.173c0-30.45-19.6-47.601-42.699-47.601
		c-23.1,0-42.699,17.15-42.699,47.601c0,27.65,16.45,46.9,42.699,46.9C907.23,1061.073,923.68,1041.823,923.68,1014.173z"/>
	<path d="M1117.924,1083.824c-11.2,10.15-26.25,15.75-47.249,15.75c-39.549,0-76.998-28.7-76.998-85.751
		c0-53.901,37.799-85.752,81.198-85.752c16.799,0,31.149,4.2,42.699,14.351V851.07c0-4.9,2.1-7,7-7h29.399c4.9,0,7,2.1,7,7v238.004
		c0,4.9-2.1,7-6.65,7h-24.849c-4.9,0-6.65-2.1-9.1-7L1117.924,1083.824z M1117.574,1004.022c0-10.851-2.8-17.851-9.1-24.851
		c-7.7-8.75-18.2-12.6-28-12.6c-22.399,0-41.999,16.8-41.999,47.601c0,28.351,16.45,46.9,39.549,46.9
		c12.25,0,23.799-4.2,30.799-13.3c6.65-8.4,8.75-18.2,8.75-26.95V1004.022z"/>
	<path d="M1269.819,858.07c0-4.9,2.1-7,6.999-7h38.499c4.55,0,5.95,2.1,7,7l38.149,157.853l45.498-157.853c1.4-4.551,3.5-7,8.75-7
		h30.1c5.25,0,7.35,2.449,8.75,7l45.498,157.853l38.149-157.853c1.05-4.9,2.45-7,7-7h38.499c4.899,0,7,2.1,7,7l-62.999,231.004
		c-1.399,4.9-4.199,7-9.1,7h-33.949c-4.899,0-7.35-2.45-8.75-7l-45.148-157.503l-45.148,157.503c-1.4,4.55-3.851,7-8.75,7h-33.949
		c-4.899,0-7.7-2.1-9.1-7L1269.819,858.07z"/>
	<path d="M1589.017,1013.823c0-53.552,38.499-85.752,87.498-85.752s87.498,32.2,87.498,85.752c0,57.4-39.55,85.751-87.498,85.751
		C1628.565,1099.574,1589.017,1071.224,1589.017,1013.823z M1719.214,1014.173c0-30.45-19.6-47.601-42.699-47.601
		s-42.699,17.15-42.699,47.601c0,27.65,16.45,46.9,42.699,46.9S1719.214,1041.823,1719.214,1014.173z"/>
	<path d="M1799.015,938.571c0-4.899,2.1-7,6.999-7h29.399c4.9,0,7,2.101,7,7v10.501c11.55-12.951,27.299-21.001,48.999-21.001
		c32.549,0,52.849,21.351,52.849,52.151c0,4.899-2.45,7-7,7h-28.35c-3.85,0-4.899-1.4-5.6-5.601c-1.4-9.45-8.05-15.05-19.25-15.05
		c-11.899,0-20.649,5.949-26.949,13.3c-8.749,10.15-14.699,24.15-14.699,45.151v64.051c0,4.9-2.1,7-7,7h-29.399
		c-4.899,0-6.999-2.1-6.999-7V938.571z"/>
	<path d="M1970.862,851.07c0-4.9,2.1-7,6.999-7h29.399c4.9,0,7,2.1,7,7v124.602l37.799-39.2c2.45-2.8,5.95-4.9,9.45-4.9h43.398
		c2.8,0,4.2,1.399,4.2,3.5c0,1.05-0.351,2.45-1.4,3.5l-55.298,56.701l68.598,94.151c0.7,1.051,1.05,1.75,1.05,3.15
		c0,2.1-1.399,3.5-4.199,3.5h-43.049c-3.5,0-6.3-1.75-8.4-4.9l-45.849-63.001l-6.3,6.3v54.602c0,4.9-2.1,7-7,7h-29.399
		c-4.899,0-6.999-2.1-6.999-7V851.07z"/>
</g>
</svg>
