<?xml version="1.0" encoding="utf-8"?>
<!-- Generator: Adobe Illustrator 16.0.0, SVG Export Plug-In . SVG Version: 6.00 Build 0)  -->
<!DOCTYPE svg PUBLIC "-//W3C//DTD SVG 1.1//EN" "http://www.w3.org/Graphics/SVG/1.1/DTD/svg11.dtd">
<svg version="1.1" id="Layer_1" xmlns="http://www.w3.org/2000/svg" xmlns:xlink="http://www.w3.org/1999/xlink" x="0px" y="0px"
	 width="2440px" height="1018px" viewBox="0 0 2440 1018" enable-background="new 0 0 2440 1018" xml:space="preserve">
<g>
	<path d="M0,0v1018h2440V0H0z"/>
	<g>
		<g>
			<g>
				<circle fill="#FFFFFF" cx="76.172" cy="76.173" r="16.173"/>
			</g>
			<g>
				<circle fill="#FFFFFF" cx="2363.827" cy="941.827" r="16.173"/>
			</g>
			<g>
				<circle fill="#FFFFFF" cx="2363.827" cy="76.173" r="16.173"/>
			</g>
			<g>
				<circle fill="#FFFFFF" cx="76.172" cy="941.827" r="16.173"/>
			</g>
		</g>
	</g>
</g>
<path fill="#FFDD00" d="M378.437,650.072c2.1,0,3.5,1.4,3.5,3.5s-1.4,3.5-3.5,3.5c-2.1,0-3.5-1.4-3.5-3.5
	S376.336,650.072,378.437,650.072z M379.836,634.672c2.1,0,3.5,1.4,3.5,3.5s-1.4,3.5-3.5,3.5c-2.1,0-3.5-1.4-3.5-3.5
	S377.736,634.672,379.836,634.672z M381.236,619.271c2.1,0,3.5,1.4,3.5,3.5c0,2.1-1.4,3.5-3.5,3.5c-2.1,0-3.5-1.4-3.5-3.5
	C377.736,620.672,379.136,619.271,381.236,619.271z M382.986,603.521c2.1,0,3.5,1.4,3.5,3.5s-1.4,3.5-3.5,3.5
	c-2.1,0-3.5-1.4-3.5-3.5S380.886,603.521,382.986,603.521z M384.736,587.771c2.1,0,3.5,1.4,3.5,3.5s-1.4,3.5-3.5,3.5
	c-2.1,0-3.5-1.4-3.5-3.5S382.636,587.771,384.736,587.771z M386.486,572.021c2.1,0,3.5,1.4,3.5,3.5s-1.4,3.5-3.5,3.5
	c-2.1,0-3.5-1.4-3.5-3.5S384.386,572.021,386.486,572.021z M388.236,556.271c2.1,0,3.5,1.4,3.5,3.5s-1.4,3.5-3.5,3.5
	c-2.1,0-3.5-1.4-3.5-3.5S386.136,556.271,388.236,556.271z M389.986,540.87c2.1,0,3.5,1.4,3.5,3.5c0,2.1-1.4,3.5-3.5,3.5
	c-2.1,0-3.5-1.4-3.5-3.5C386.486,542.271,387.886,540.87,389.986,540.87z M391.386,525.47c2.1,0,3.5,1.4,3.5,3.5s-1.4,3.5-3.5,3.5
	c-2.1,0-3.5-1.4-3.5-3.5S389.286,525.47,391.386,525.47z M393.136,509.72c2.1,0,3.5,1.4,3.5,3.5s-1.4,3.5-3.5,3.5
	c-2.1,0-3.5-1.4-3.5-3.5S391.036,509.72,393.136,509.72z M394.186,650.072c2.1,0,3.5,1.4,3.5,3.5s-1.4,3.5-3.5,3.5
	c-2.1,0-3.5-1.4-3.5-3.5S392.086,650.072,394.186,650.072z M394.886,493.969c2.1,0,3.5,1.4,3.5,3.5c0,2.1-1.4,3.5-3.5,3.5
	c-2.1,0-3.5-1.4-3.5-3.5C391.386,495.37,392.786,493.969,394.886,493.969z M396.286,478.569c2.1,0,3.5,1.4,3.5,3.5s-1.4,3.5-3.5,3.5
	c-2.1,0-3.5-1.4-3.5-3.5S394.186,478.569,396.286,478.569z M398.036,462.819c2.1,0,3.5,1.4,3.5,3.5s-1.4,3.5-3.5,3.5
	c-2.1,0-3.5-1.4-3.5-3.5S395.936,462.819,398.036,462.819z M399.786,447.068c2.1,0,3.5,1.4,3.5,3.5s-1.4,3.5-3.5,3.5
	s-3.5-1.4-3.5-3.5S397.686,447.068,399.786,447.068z M401.536,431.668c2.1,0,3.5,1.4,3.5,3.5s-1.4,3.5-3.5,3.5s-3.5-1.4-3.5-3.5
	S399.436,431.668,401.536,431.668z M403.286,415.568c2.1,0,3.5,1.4,3.5,3.5c0,2.1-1.4,3.5-3.5,3.5s-3.5-1.4-3.5-3.5
	C399.786,416.968,401.186,415.568,403.286,415.568z M409.936,650.072c2.1,0,3.5,1.4,3.5,3.5s-1.4,3.5-3.5,3.5s-3.5-1.4-3.5-3.5
	S407.835,650.072,409.936,650.072z M425.685,650.072c2.1,0,3.5,1.4,3.5,3.5s-1.4,3.5-3.5,3.5s-3.5-1.4-3.5-3.5
	S423.585,650.072,425.685,650.072z M441.435,650.072c2.1,0,3.5,1.4,3.5,3.5s-1.4,3.5-3.5,3.5s-3.5-1.4-3.5-3.5
	S439.334,650.072,441.435,650.072z M457.184,650.072c2.1,0,3.5,1.4,3.5,3.5s-1.4,3.5-3.5,3.5c-2.1,0-3.5-1.4-3.5-3.5
	S455.084,650.072,457.184,650.072z M472.934,650.072c2.1,0,3.5,1.4,3.5,3.5s-1.4,3.5-3.5,3.5c-2.1,0-3.5-1.4-3.5-3.5
	S470.834,650.072,472.934,650.072z M488.684,650.072c2.1,0,3.5,1.4,3.5,3.5s-1.4,3.5-3.5,3.5c-2.1,0-3.5-1.4-3.5-3.5
	S486.583,650.072,488.684,650.072z M504.433,650.072c2.1,0,3.5,1.4,3.5,3.5s-1.4,3.5-3.5,3.5c-2.1,0-3.5-1.4-3.5-3.5
	S502.333,650.072,504.433,650.072z"/>
<path fill="#FFDD00" d="M719.332,650.072c2.1,0,3.5,1.4,3.5,3.5s-1.4,3.5-3.5,3.5c-2.1,0-3.5-1.4-3.5-3.5
	S717.231,650.072,719.332,650.072z M720.731,634.672c2.1,0,3.5,1.4,3.5,3.5s-1.4,3.5-3.5,3.5c-2.1,0-3.5-1.4-3.5-3.5
	S718.631,634.672,720.731,634.672z M722.131,619.271c2.1,0,3.5,1.4,3.5,3.5c0,2.1-1.4,3.5-3.5,3.5s-3.5-1.4-3.5-3.5
	C718.631,620.672,720.031,619.271,722.131,619.271z M723.881,603.521c2.1,0,3.5,1.4,3.5,3.5s-1.4,3.5-3.5,3.5
	c-2.1,0-3.5-1.4-3.5-3.5S721.781,603.521,723.881,603.521z M725.631,587.771c2.1,0,3.5,1.4,3.5,3.5s-1.4,3.5-3.5,3.5
	c-2.1,0-3.5-1.4-3.5-3.5S723.531,587.771,725.631,587.771z M727.381,572.021c2.1,0,3.5,1.4,3.5,3.5s-1.4,3.5-3.5,3.5
	c-2.1,0-3.5-1.4-3.5-3.5S725.281,572.021,727.381,572.021z M729.131,556.271c2.1,0,3.5,1.4,3.5,3.5s-1.4,3.5-3.5,3.5
	c-2.1,0-3.5-1.4-3.5-3.5S727.031,556.271,729.131,556.271z M730.881,540.87c2.1,0,3.5,1.4,3.5,3.5c0,2.1-1.4,3.5-3.5,3.5
	c-2.1,0-3.5-1.4-3.5-3.5C727.381,542.271,728.781,540.87,730.881,540.87z M732.281,525.47c2.1,0,3.5,1.4,3.5,3.5s-1.4,3.5-3.5,3.5
	c-2.1,0-3.5-1.4-3.5-3.5S730.181,525.47,732.281,525.47z M734.031,509.72c2.1,0,3.5,1.4,3.5,3.5s-1.4,3.5-3.5,3.5
	c-2.1,0-3.5-1.4-3.5-3.5S731.931,509.72,734.031,509.72z M735.081,650.072c2.1,0,3.5,1.4,3.5,3.5s-1.4,3.5-3.5,3.5
	c-2.1,0-3.5-1.4-3.5-3.5S732.981,650.072,735.081,650.072z M735.781,493.969c2.1,0,3.5,1.4,3.5,3.5c0,2.1-1.4,3.5-3.5,3.5
	c-2.1,0-3.5-1.4-3.5-3.5C732.281,495.37,733.681,493.969,735.781,493.969z M737.181,478.569c2.1,0,3.5,1.4,3.5,3.5s-1.4,3.5-3.5,3.5
	c-2.1,0-3.5-1.4-3.5-3.5S735.081,478.569,737.181,478.569z M738.931,462.819c2.1,0,3.5,1.4,3.5,3.5s-1.4,3.5-3.5,3.5
	c-2.1,0-3.5-1.4-3.5-3.5S736.831,462.819,738.931,462.819z M740.681,447.068c2.1,0,3.5,1.4,3.5,3.5s-1.4,3.5-3.5,3.5
	c-2.1,0-3.5-1.4-3.5-3.5S738.581,447.068,740.681,447.068z M742.431,431.668c2.1,0,3.5,1.4,3.5,3.5s-1.4,3.5-3.5,3.5
	c-2.1,0-3.5-1.4-3.5-3.5S740.331,431.668,742.431,431.668z M744.181,415.568c2.1,0,3.5,1.4,3.5,3.5c0,2.1-1.4,3.5-3.5,3.5
	s-3.5-1.4-3.5-3.5C740.681,416.968,742.081,415.568,744.181,415.568z M748.031,525.47c2.1,0,3.5,1.4,3.5,3.5s-1.4,3.5-3.5,3.5
	c-2.1,0-3.5-1.4-3.5-3.5S745.931,525.47,748.031,525.47z M750.831,650.072c2.1,0,3.5,1.4,3.5,3.5s-1.4,3.5-3.5,3.5s-3.5-1.4-3.5-3.5
	S748.73,650.072,750.831,650.072z M759.93,415.568c2.1,0,3.5,1.4,3.5,3.5c0,2.1-1.4,3.5-3.5,3.5c-2.1,0-3.5-1.4-3.5-3.5
	C756.43,416.968,757.831,415.568,759.93,415.568z M763.78,525.47c2.1,0,3.5,1.4,3.5,3.5s-1.4,3.5-3.5,3.5s-3.5-1.4-3.5-3.5
	S761.68,525.47,763.78,525.47z M766.58,650.072c2.1,0,3.5,1.4,3.5,3.5s-1.4,3.5-3.5,3.5s-3.5-1.4-3.5-3.5
	S764.48,650.072,766.58,650.072z M775.68,415.568c2.1,0,3.5,1.4,3.5,3.5c0,2.1-1.4,3.5-3.5,3.5c-2.1,0-3.5-1.4-3.5-3.5
	C772.18,416.968,773.58,415.568,775.68,415.568z M779.53,525.47c2.1,0,3.5,1.4,3.5,3.5s-1.4,3.5-3.5,3.5s-3.5-1.4-3.5-3.5
	S777.43,525.47,779.53,525.47z M782.33,650.072c2.1,0,3.5,1.4,3.5,3.5s-1.4,3.5-3.5,3.5c-2.1,0-3.5-1.4-3.5-3.5
	S780.23,650.072,782.33,650.072z M791.43,415.568c2.1,0,3.5,1.4,3.5,3.5c0,2.1-1.4,3.5-3.5,3.5c-2.1,0-3.5-1.4-3.5-3.5
	C787.93,416.968,789.33,415.568,791.43,415.568z M795.279,525.47c2.1,0,3.5,1.4,3.5,3.5s-1.4,3.5-3.5,3.5s-3.5-1.4-3.5-3.5
	S793.179,525.47,795.279,525.47z M798.079,650.072c2.1,0,3.5,1.4,3.5,3.5s-1.4,3.5-3.5,3.5c-2.1,0-3.5-1.4-3.5-3.5
	S795.979,650.072,798.079,650.072z M807.179,415.568c2.1,0,3.5,1.4,3.5,3.5c0,2.1-1.4,3.5-3.5,3.5c-2.1,0-3.5-1.4-3.5-3.5
	C803.679,416.968,805.079,415.568,807.179,415.568z M811.029,525.47c2.1,0,3.5,1.4,3.5,3.5s-1.4,3.5-3.5,3.5c-2.1,0-3.5-1.4-3.5-3.5
	S808.929,525.47,811.029,525.47z M813.829,650.072c2.1,0,3.5,1.4,3.5,3.5s-1.4,3.5-3.5,3.5c-2.1,0-3.5-1.4-3.5-3.5
	S811.729,650.072,813.829,650.072z M822.929,415.568c2.1,0,3.5,1.4,3.5,3.5c0,2.1-1.4,3.5-3.5,3.5s-3.5-1.4-3.5-3.5
	C819.429,416.968,820.829,415.568,822.929,415.568z M826.778,525.47c2.1,0,3.5,1.4,3.5,3.5s-1.4,3.5-3.5,3.5c-2.1,0-3.5-1.4-3.5-3.5
	S824.679,525.47,826.778,525.47z M829.579,650.072c2.1,0,3.5,1.4,3.5,3.5s-1.4,3.5-3.5,3.5c-2.1,0-3.5-1.4-3.5-3.5
	S827.479,650.072,829.579,650.072z M838.678,415.568c2.1,0,3.5,1.4,3.5,3.5c0,2.1-1.4,3.5-3.5,3.5s-3.5-1.4-3.5-3.5
	C835.178,416.968,836.578,415.568,838.678,415.568z M842.528,525.47c2.1,0,3.5,1.4,3.5,3.5s-1.4,3.5-3.5,3.5c-2.1,0-3.5-1.4-3.5-3.5
	S840.428,525.47,842.528,525.47z M845.328,650.072c2.1,0,3.5,1.4,3.5,3.5s-1.4,3.5-3.5,3.5s-3.5-1.4-3.5-3.5
	S843.228,650.072,845.328,650.072z M854.428,415.568c2.1,0,3.5,1.4,3.5,3.5c0,2.1-1.4,3.5-3.5,3.5c-2.1,0-3.5-1.4-3.5-3.5
	C850.928,416.968,852.328,415.568,854.428,415.568z M861.078,650.072c2.1,0,3.5,1.4,3.5,3.5s-1.4,3.5-3.5,3.5s-3.5-1.4-3.5-3.5
	S858.978,650.072,861.078,650.072z M870.177,415.568c2.1,0,3.5,1.4,3.5,3.5c0,2.1-1.4,3.5-3.5,3.5c-2.1,0-3.5-1.4-3.5-3.5
	C866.678,416.968,868.078,415.568,870.177,415.568z M885.927,415.568c2.1,0,3.5,1.4,3.5,3.5c0,2.1-1.4,3.5-3.5,3.5
	c-2.1,0-3.5-1.4-3.5-3.5C882.427,416.968,883.827,415.568,885.927,415.568z"/>
<path fill="#FFDD00" d="M1074.577,650.072c2.1,0,3.5,1.4,3.5,3.5s-1.4,3.5-3.5,3.5s-3.5-1.4-3.5-3.5
	S1072.477,650.072,1074.577,650.072z M1081.577,635.372c2.1,0,3.5,1.4,3.5,3.5s-1.4,3.5-3.5,3.5c-2.1,0-3.5-1.4-3.5-3.5
	S1079.477,635.372,1081.577,635.372z M1088.577,620.672c2.1,0,3.5,1.4,3.5,3.5c0,2.1-1.4,3.5-3.5,3.5c-2.1,0-3.5-1.4-3.5-3.5
	C1085.077,622.072,1086.477,620.672,1088.577,620.672z M1095.577,605.971c2.1,0,3.5,1.4,3.5,3.5c0,2.1-1.4,3.5-3.5,3.5
	s-3.5-1.4-3.5-3.5C1092.077,607.372,1093.477,605.971,1095.577,605.971z M1102.926,591.271c2.1,0,3.5,1.4,3.5,3.5s-1.4,3.5-3.5,3.5
	c-2.1,0-3.5-1.4-3.5-3.5S1100.827,591.271,1102.926,591.271z M1109.926,576.921c2.1,0,3.5,1.4,3.5,3.5s-1.4,3.5-3.5,3.5
	s-3.5-1.4-3.5-3.5S1107.826,576.921,1109.926,576.921z M1116.926,562.221c2.1,0,3.5,1.4,3.5,3.5s-1.4,3.5-3.5,3.5
	c-2.1,0-3.5-1.4-3.5-3.5S1114.826,562.221,1116.926,562.221z M1123.926,547.521c2.1,0,3.5,1.4,3.5,3.5s-1.4,3.5-3.5,3.5
	s-3.5-1.4-3.5-3.5S1121.826,547.521,1123.926,547.521z M1126.726,574.121c2.1,0,3.5,1.4,3.5,3.5c0,2.1-1.4,3.5-3.5,3.5
	c-2.1,0-3.5-1.4-3.5-3.5C1123.226,575.521,1124.626,574.121,1126.726,574.121z M1130.926,532.82c2.1,0,3.5,1.4,3.5,3.5
	s-1.4,3.5-3.5,3.5c-2.1,0-3.5-1.4-3.5-3.5S1128.826,532.82,1130.926,532.82z M1138.275,518.12c2.1,0,3.5,1.4,3.5,3.5
	c0,2.1-1.4,3.5-3.5,3.5s-3.5-1.4-3.5-3.5C1134.775,519.52,1136.175,518.12,1138.275,518.12z M1143.525,574.121
	c2.1,0,3.5,1.4,3.5,3.5c0,2.1-1.4,3.5-3.5,3.5s-3.5-1.4-3.5-3.5C1140.025,575.521,1141.425,574.121,1143.525,574.121z
	 M1145.275,503.419c2.1,0,3.5,1.4,3.5,3.5c0,2.1-1.4,3.5-3.5,3.5c-2.1,0-3.5-1.4-3.5-3.5
	C1141.775,504.82,1143.175,503.419,1145.275,503.419z M1152.275,488.719c2.1,0,3.5,1.4,3.5,3.5s-1.4,3.5-3.5,3.5
	c-2.1,0-3.5-1.4-3.5-3.5S1150.175,488.719,1152.275,488.719z M1159.275,474.019c2.1,0,3.5,1.4,3.5,3.5s-1.4,3.5-3.5,3.5
	s-3.5-1.4-3.5-3.5S1157.175,474.019,1159.275,474.019z M1160.325,574.121c2.1,0,3.5,1.4,3.5,3.5c0,2.1-1.4,3.5-3.5,3.5
	c-2.1,0-3.5-1.4-3.5-3.5C1156.825,575.521,1158.225,574.121,1160.325,574.121z M1166.625,459.319c2.1,0,3.5,1.4,3.5,3.5
	s-1.4,3.5-3.5,3.5c-2.1,0-3.5-1.4-3.5-3.5S1164.525,459.319,1166.625,459.319z M1173.625,444.969c2.1,0,3.5,1.4,3.5,3.5
	s-1.4,3.5-3.5,3.5s-3.5-1.4-3.5-3.5S1171.524,444.969,1173.625,444.969z M1177.125,574.121c2.1,0,3.5,1.4,3.5,3.5
	c0,2.1-1.4,3.5-3.5,3.5s-3.5-1.4-3.5-3.5C1173.625,575.521,1175.024,574.121,1177.125,574.121z M1180.625,430.269
	c2.1,0,3.5,1.4,3.5,3.5c0,2.1-1.4,3.5-3.5,3.5c-2.1,0-3.5-1.4-3.5-3.5C1177.125,431.668,1178.524,430.269,1180.625,430.269z
	 M1187.274,415.568c2.1,0,3.5,1.4,3.5,3.5c0,2.1-1.4,3.5-3.5,3.5c-2.1,0-3.5-1.4-3.5-3.5
	C1183.774,416.968,1185.174,415.568,1187.274,415.568z M1191.474,430.968c2.1,0,3.5,1.4,3.5,3.5s-1.4,3.5-3.5,3.5s-3.5-1.4-3.5-3.5
	S1189.374,430.968,1191.474,430.968z M1193.924,574.121c2.1,0,3.5,1.4,3.5,3.5c0,2.1-1.4,3.5-3.5,3.5c-2.1,0-3.5-1.4-3.5-3.5
	C1190.424,575.521,1191.824,574.121,1193.924,574.121z M1195.324,446.719c2.1,0,3.5,1.4,3.5,3.5s-1.4,3.5-3.5,3.5
	c-2.1,0-3.5-1.4-3.5-3.5S1193.224,446.719,1195.324,446.719z M1199.174,462.469c2.1,0,3.5,1.4,3.5,3.5c0,2.1-1.4,3.5-3.5,3.5
	s-3.5-1.4-3.5-3.5C1195.674,463.869,1197.074,462.469,1199.174,462.469z M1203.024,477.869c2.1,0,3.5,1.4,3.5,3.5s-1.4,3.5-3.5,3.5
	c-2.1,0-3.5-1.4-3.5-3.5S1200.924,477.869,1203.024,477.869z M1206.874,493.62c2.1,0,3.5,1.4,3.5,3.5s-1.4,3.5-3.5,3.5
	c-2.1,0-3.5-1.4-3.5-3.5S1204.774,493.62,1206.874,493.62z M1210.724,509.37c2.1,0,3.5,1.4,3.5,3.5s-1.4,3.5-3.5,3.5
	s-3.5-1.4-3.5-3.5S1208.624,509.37,1210.724,509.37z M1210.724,574.121c2.1,0,3.5,1.4,3.5,3.5c0,2.1-1.4,3.5-3.5,3.5
	s-3.5-1.4-3.5-3.5C1207.224,575.521,1208.624,574.121,1210.724,574.121z M1214.573,524.77c2.101,0,3.5,1.4,3.5,3.5
	s-1.399,3.5-3.5,3.5c-2.1,0-3.5-1.4-3.5-3.5S1212.474,524.77,1214.573,524.77z M1218.424,540.52c2.1,0,3.499,1.4,3.499,3.5
	c0,2.1-1.399,3.5-3.499,3.5c-2.101,0-3.5-1.4-3.5-3.5C1214.924,541.92,1216.323,540.52,1218.424,540.52z M1222.273,556.271
	c2.1,0,3.5,1.4,3.5,3.5s-1.4,3.5-3.5,3.5c-2.101,0-3.5-1.4-3.5-3.5S1220.173,556.271,1222.273,556.271z M1226.474,572.021
	c2.1,0,3.499,1.4,3.499,3.5s-1.399,3.5-3.499,3.5c-2.101,0-3.5-1.4-3.5-3.5S1224.373,572.021,1226.474,572.021z M1230.323,587.421
	c2.1,0,3.5,1.4,3.5,3.5c0,2.1-1.4,3.5-3.5,3.5c-2.101,0-3.5-1.4-3.5-3.5C1226.823,588.821,1228.223,587.421,1230.323,587.421z
	 M1234.173,603.171c2.1,0,3.5,1.4,3.5,3.5s-1.4,3.5-3.5,3.5s-3.5-1.4-3.5-3.5S1232.073,603.171,1234.173,603.171z M1238.022,618.921
	c2.101,0,3.5,1.4,3.5,3.5c0,2.1-1.399,3.5-3.5,3.5c-2.1,0-3.5-1.4-3.5-3.5C1234.522,620.322,1235.923,618.921,1238.022,618.921z
	 M1241.873,634.322c2.1,0,3.5,1.4,3.5,3.5s-1.4,3.5-3.5,3.5c-2.101,0-3.5-1.4-3.5-3.5S1239.772,634.322,1241.873,634.322z
	 M1245.723,650.072c2.1,0,3.5,1.4,3.5,3.5s-1.4,3.5-3.5,3.5s-3.5-1.4-3.5-3.5S1243.623,650.072,1245.723,650.072z"/>
<path fill="#FFDD00" d="M1442.772,650.072c2.1,0,3.5,1.4,3.5,3.5s-1.4,3.5-3.5,3.5s-3.5-1.4-3.5-3.5
	S1440.673,650.072,1442.772,650.072z M1444.173,634.672c2.1,0,3.499,1.4,3.499,3.5s-1.399,3.5-3.499,3.5c-2.101,0-3.5-1.4-3.5-3.5
	S1442.072,634.672,1444.173,634.672z M1445.572,619.271c2.1,0,3.5,1.4,3.5,3.5c0,2.1-1.4,3.5-3.5,3.5s-3.5-1.4-3.5-3.5
	C1442.072,620.672,1443.473,619.271,1445.572,619.271z M1447.322,603.521c2.1,0,3.5,1.4,3.5,3.5s-1.4,3.5-3.5,3.5s-3.5-1.4-3.5-3.5
	S1445.223,603.521,1447.322,603.521z M1449.072,587.771c2.1,0,3.5,1.4,3.5,3.5s-1.4,3.5-3.5,3.5s-3.5-1.4-3.5-3.5
	S1446.973,587.771,1449.072,587.771z M1450.822,572.021c2.1,0,3.5,1.4,3.5,3.5s-1.4,3.5-3.5,3.5s-3.5-1.4-3.5-3.5
	S1448.723,572.021,1450.822,572.021z M1452.572,556.271c2.1,0,3.5,1.4,3.5,3.5s-1.4,3.5-3.5,3.5s-3.5-1.4-3.5-3.5
	S1450.473,556.271,1452.572,556.271z M1453.973,540.87c2.1,0,3.499,1.4,3.499,3.5c0,2.1-1.399,3.5-3.499,3.5
	c-2.101,0-3.5-1.4-3.5-3.5C1450.473,542.271,1451.872,540.87,1453.973,540.87z M1455.722,525.47c2.101,0,3.5,1.4,3.5,3.5
	s-1.399,3.5-3.5,3.5c-2.1,0-3.499-1.4-3.499-3.5S1453.622,525.47,1455.722,525.47z M1457.472,509.72c2.101,0,3.5,1.4,3.5,3.5
	s-1.399,3.5-3.5,3.5c-2.1,0-3.499-1.4-3.499-3.5S1455.372,509.72,1457.472,509.72z M1459.222,493.969c2.101,0,3.5,1.4,3.5,3.5
	c0,2.1-1.399,3.5-3.5,3.5c-2.1,0-3.5-1.4-3.5-3.5C1455.722,495.37,1457.122,493.969,1459.222,493.969z M1460.622,478.569
	c2.1,0,3.5,1.4,3.5,3.5s-1.4,3.5-3.5,3.5s-3.5-1.4-3.5-3.5S1458.522,478.569,1460.622,478.569z M1462.372,462.819
	c2.1,0,3.5,1.4,3.5,3.5s-1.4,3.5-3.5,3.5s-3.5-1.4-3.5-3.5S1460.272,462.819,1462.372,462.819z M1464.122,447.068
	c2.1,0,3.5,1.4,3.5,3.5s-1.4,3.5-3.5,3.5s-3.5-1.4-3.5-3.5S1462.022,447.068,1464.122,447.068z M1465.872,431.668
	c2.1,0,3.5,1.4,3.5,3.5s-1.4,3.5-3.5,3.5c-2.101,0-3.5-1.4-3.5-3.5S1463.771,431.668,1465.872,431.668z M1467.622,415.568
	c2.1,0,3.5,1.4,3.5,3.5c0,2.1-1.4,3.5-3.5,3.5c-2.101,0-3.5-1.4-3.5-3.5C1464.122,416.968,1465.521,415.568,1467.622,415.568z
	 M1471.821,525.47c2.101,0,3.5,1.4,3.5,3.5s-1.399,3.5-3.5,3.5c-2.1,0-3.499-1.4-3.499-3.5S1469.722,525.47,1471.821,525.47z
	 M1483.722,415.568c2.1,0,3.5,1.4,3.5,3.5c0,2.1-1.4,3.5-3.5,3.5c-2.101,0-3.5-1.4-3.5-3.5
	C1480.222,416.968,1481.621,415.568,1483.722,415.568z M1487.921,525.47c2.101,0,3.5,1.4,3.5,3.5s-1.399,3.5-3.5,3.5
	c-2.1,0-3.5-1.4-3.5-3.5S1485.821,525.47,1487.921,525.47z M1499.821,415.568c2.1,0,3.5,1.4,3.5,3.5c0,2.1-1.4,3.5-3.5,3.5
	c-2.101,0-3.5-1.4-3.5-3.5C1496.321,416.968,1497.721,415.568,1499.821,415.568z M1504.021,525.47c2.101,0,3.5,1.4,3.5,3.5
	s-1.399,3.5-3.5,3.5c-2.1,0-3.5-1.4-3.5-3.5S1501.921,525.47,1504.021,525.47z M1515.921,415.568c2.1,0,3.5,1.4,3.5,3.5
	c0,2.1-1.4,3.5-3.5,3.5c-2.101,0-3.5-1.4-3.5-3.5C1512.421,416.968,1513.82,415.568,1515.921,415.568z M1520.12,525.47
	c2.101,0,3.5,1.4,3.5,3.5s-1.399,3.5-3.5,3.5c-2.1,0-3.5-1.4-3.5-3.5S1518.021,525.47,1520.12,525.47z M1522.92,540.87
	c2.101,0,3.5,1.4,3.5,3.5c0,2.1-1.399,3.5-3.5,3.5c-2.1,0-3.499-1.4-3.499-3.5C1519.421,542.271,1520.82,540.87,1522.92,540.87z
	 M1527.12,555.92c2.1,0,3.5,1.4,3.5,3.5s-1.4,3.5-3.5,3.5s-3.5-1.4-3.5-3.5S1525.021,555.92,1527.12,555.92z M1532.021,415.568
	c2.1,0,3.5,1.4,3.5,3.5c0,2.1-1.4,3.5-3.5,3.5c-2.101,0-3.5-1.4-3.5-3.5C1528.521,416.968,1529.92,415.568,1532.021,415.568z
	 M1532.72,570.271c2.101,0,3.5,1.4,3.5,3.5s-1.399,3.5-3.5,3.5c-2.1,0-3.5-1.4-3.5-3.5S1530.62,570.271,1532.72,570.271z
	 M1536.22,525.47c2.101,0,3.5,1.4,3.5,3.5s-1.399,3.5-3.5,3.5c-2.1,0-3.5-1.4-3.5-3.5S1534.12,525.47,1536.22,525.47z
	 M1539.02,584.271c2.101,0,3.5,1.4,3.5,3.5s-1.399,3.5-3.5,3.5c-2.1,0-3.499-1.4-3.499-3.5S1536.92,584.271,1539.02,584.271z
	 M1546.72,597.921c2.1,0,3.5,1.4,3.5,3.5s-1.4,3.5-3.5,3.5s-3.5-1.4-3.5-3.5S1544.62,597.921,1546.72,597.921z M1547.77,415.568
	c2.101,0,3.5,1.4,3.5,3.5c0,2.1-1.399,3.5-3.5,3.5c-2.1,0-3.5-1.4-3.5-3.5C1544.27,416.968,1545.67,415.568,1547.77,415.568z
	 M1552.67,525.12c2.1,0,3.5,1.4,3.5,3.5s-1.4,3.5-3.5,3.5c-2.101,0-3.5-1.4-3.5-3.5S1550.569,525.12,1552.67,525.12z
	 M1555.47,610.872c2.1,0,3.5,1.4,3.5,3.5s-1.4,3.5-3.5,3.5c-2.101,0-3.5-1.4-3.5-3.5S1553.369,610.872,1555.47,610.872z
	 M1563.869,416.268c2.101,0,3.5,1.4,3.5,3.5s-1.399,3.5-3.5,3.5c-2.1,0-3.5-1.4-3.5-3.5S1561.77,416.268,1563.869,416.268z
	 M1565.619,622.771c2.1,0,3.5,1.4,3.5,3.5c0,2.1-1.4,3.5-3.5,3.5s-3.5-1.4-3.5-3.5
	C1562.119,624.172,1563.52,622.771,1565.619,622.771z M1568.77,523.02c2.1,0,3.5,1.4,3.5,3.5s-1.4,3.5-3.5,3.5
	c-2.101,0-3.5-1.4-3.5-3.5S1566.669,523.02,1568.77,523.02z M1577.169,633.622c2.1,0,3.5,1.4,3.5,3.5s-1.4,3.5-3.5,3.5
	s-3.5-1.4-3.5-3.5S1575.069,633.622,1577.169,633.622z M1580.319,419.418c2.1,0,3.499,1.4,3.499,3.5c0,2.1-1.399,3.5-3.499,3.5
	c-2.101,0-3.5-1.4-3.5-3.5C1576.819,420.818,1578.219,419.418,1580.319,419.418z M1584.169,518.12c2.1,0,3.5,1.4,3.5,3.5
	c0,2.1-1.4,3.5-3.5,3.5c-2.101,0-3.5-1.4-3.5-3.5C1580.669,519.52,1582.068,518.12,1584.169,518.12z M1589.068,643.422
	c2.101,0,3.5,1.4,3.5,3.5c0,2.1-1.399,3.5-3.5,3.5c-2.1,0-3.5-1.4-3.5-3.5C1585.568,644.822,1586.969,643.422,1589.068,643.422z
	 M1594.669,425.718c2.1,0,3.499,1.4,3.499,3.5s-1.399,3.5-3.499,3.5c-2.101,0-3.5-1.4-3.5-3.5S1592.568,425.718,1594.669,425.718z
	 M1597.469,509.72c2.1,0,3.5,1.4,3.5,3.5s-1.4,3.5-3.5,3.5c-2.101,0-3.5-1.4-3.5-3.5S1595.368,509.72,1597.469,509.72z
	 M1602.019,651.822c2.1,0,3.5,1.4,3.5,3.5s-1.4,3.5-3.5,3.5c-2.101,0-3.5-1.4-3.5-3.5S1599.918,651.822,1602.019,651.822z
	 M1606.568,436.218c2.1,0,3.5,1.4,3.5,3.5c0,2.1-1.4,3.5-3.5,3.5c-2.101,0-3.5-1.4-3.5-3.5
	C1603.068,437.619,1604.468,436.218,1606.568,436.218z M1607.618,497.47c2.1,0,3.5,1.4,3.5,3.5c0,2.1-1.4,3.5-3.5,3.5
	s-3.5-1.4-3.5-3.5C1604.118,498.87,1605.519,497.47,1607.618,497.47z M1613.568,482.419c2.1,0,3.5,1.4,3.5,3.5s-1.4,3.5-3.5,3.5
	c-2.101,0-3.5-1.4-3.5-3.5S1611.468,482.419,1613.568,482.419z M1613.918,450.569c2.1,0,3.5,1.4,3.5,3.5s-1.4,3.5-3.5,3.5
	s-3.5-1.4-3.5-3.5S1611.818,450.569,1613.918,450.569z M1615.668,466.319c2.1,0,3.5,1.4,3.5,3.5s-1.4,3.5-3.5,3.5s-3.5-1.4-3.5-3.5
	S1613.568,466.319,1615.668,466.319z"/>
<path fill="#FFDD00" d="M1846.667,650.072c2.101,0,3.5,1.4,3.5,3.5s-1.399,3.5-3.5,3.5c-2.1,0-3.5-1.4-3.5-3.5
	S1844.567,650.072,1846.667,650.072z M1848.067,634.672c2.1,0,3.5,1.4,3.5,3.5s-1.4,3.5-3.5,3.5s-3.5-1.4-3.5-3.5
	S1845.968,634.672,1848.067,634.672z M1849.468,619.271c2.1,0,3.499,1.4,3.499,3.5c0,2.1-1.399,3.5-3.499,3.5
	c-2.101,0-3.5-1.4-3.5-3.5C1845.968,620.672,1847.367,619.271,1849.468,619.271z M1851.217,603.521c2.101,0,3.5,1.4,3.5,3.5
	s-1.399,3.5-3.5,3.5c-2.1,0-3.499-1.4-3.499-3.5S1849.117,603.521,1851.217,603.521z M1852.967,587.771c2.101,0,3.5,1.4,3.5,3.5
	s-1.399,3.5-3.5,3.5c-2.1,0-3.499-1.4-3.499-3.5S1850.867,587.771,1852.967,587.771z M1854.717,572.021c2.101,0,3.5,1.4,3.5,3.5
	s-1.399,3.5-3.5,3.5c-2.1,0-3.5-1.4-3.5-3.5S1852.617,572.021,1854.717,572.021z M1856.467,556.271c2.101,0,3.5,1.4,3.5,3.5
	s-1.399,3.5-3.5,3.5c-2.1,0-3.5-1.4-3.5-3.5S1854.367,556.271,1856.467,556.271z M1858.217,540.87c2.101,0,3.5,1.4,3.5,3.5
	c0,2.1-1.399,3.5-3.5,3.5c-2.1,0-3.5-1.4-3.5-3.5C1854.717,542.271,1856.117,540.87,1858.217,540.87z M1859.617,525.47
	c2.1,0,3.5,1.4,3.5,3.5s-1.4,3.5-3.5,3.5c-2.101,0-3.5-1.4-3.5-3.5S1857.517,525.47,1859.617,525.47z M1861.367,509.72
	c2.1,0,3.5,1.4,3.5,3.5s-1.4,3.5-3.5,3.5c-2.101,0-3.5-1.4-3.5-3.5S1859.267,509.72,1861.367,509.72z M1863.117,493.969
	c2.1,0,3.5,1.4,3.5,3.5c0,2.1-1.4,3.5-3.5,3.5c-2.101,0-3.5-1.4-3.5-3.5C1859.617,495.37,1861.017,493.969,1863.117,493.969z
	 M1864.517,478.569c2.101,0,3.5,1.4,3.5,3.5s-1.399,3.5-3.5,3.5c-2.1,0-3.5-1.4-3.5-3.5S1862.417,478.569,1864.517,478.569z
	 M1866.267,462.819c2.101,0,3.5,1.4,3.5,3.5s-1.399,3.5-3.5,3.5c-2.1,0-3.5-1.4-3.5-3.5S1864.167,462.819,1866.267,462.819z
	 M1868.017,447.068c2.101,0,3.5,1.4,3.5,3.5s-1.399,3.5-3.5,3.5c-2.1,0-3.5-1.4-3.5-3.5S1865.917,447.068,1868.017,447.068z
	 M1869.767,431.668c2.1,0,3.5,1.4,3.5,3.5s-1.4,3.5-3.5,3.5s-3.5-1.4-3.5-3.5S1867.667,431.668,1869.767,431.668z M1871.517,415.568
	c2.1,0,3.5,1.4,3.5,3.5c0,2.1-1.4,3.5-3.5,3.5s-3.5-1.4-3.5-3.5C1868.017,416.968,1869.417,415.568,1871.517,415.568z
	 M1879.217,429.218c2.1,0,3.5,1.4,3.5,3.5s-1.4,3.5-3.5,3.5c-2.101,0-3.5-1.4-3.5-3.5S1877.116,429.218,1879.217,429.218z
	 M1886.916,443.219c2.101,0,3.5,1.4,3.5,3.5s-1.399,3.5-3.5,3.5c-2.1,0-3.5-1.4-3.5-3.5S1884.816,443.219,1886.916,443.219z
	 M1894.966,456.869c2.101,0,3.5,1.4,3.5,3.5s-1.399,3.5-3.5,3.5c-2.1,0-3.5-1.4-3.5-3.5S1892.866,456.869,1894.966,456.869z
	 M1902.666,470.869c2.1,0,3.5,1.4,3.5,3.5s-1.4,3.5-3.5,3.5s-3.5-1.4-3.5-3.5S1900.566,470.869,1902.666,470.869z M1910.365,484.519
	c2.101,0,3.5,1.4,3.5,3.5c0,2.1-1.399,3.5-3.5,3.5c-2.1,0-3.499-1.4-3.499-3.5C1906.866,485.919,1908.266,484.519,1910.365,484.519z
	 M1918.065,498.169c2.1,0,3.5,1.4,3.5,3.5s-1.4,3.5-3.5,3.5s-3.5-1.4-3.5-3.5S1915.966,498.169,1918.065,498.169z M1925.766,512.17
	c2.1,0,3.5,1.4,3.5,3.5s-1.4,3.5-3.5,3.5c-2.101,0-3.5-1.4-3.5-3.5S1923.665,512.17,1925.766,512.17z M1933.465,525.82
	c2.101,0,3.5,1.4,3.5,3.5c0,2.1-1.399,3.5-3.5,3.5c-2.1,0-3.5-1.4-3.5-3.5C1929.965,527.22,1931.365,525.82,1933.465,525.82z
	 M1941.165,539.82c2.1,0,3.5,1.4,3.5,3.5s-1.4,3.5-3.5,3.5s-3.5-1.4-3.5-3.5S1939.065,539.82,1941.165,539.82z M1948.864,553.471
	c2.101,0,3.5,1.4,3.5,3.5c0,2.1-1.399,3.5-3.5,3.5c-2.1,0-3.499-1.4-3.499-3.5C1945.365,554.871,1946.765,553.471,1948.864,553.471z
	 M1956.914,567.471c2.101,0,3.5,1.4,3.5,3.5s-1.399,3.5-3.5,3.5c-2.1,0-3.499-1.4-3.499-3.5S1954.814,567.471,1956.914,567.471z
	 M1964.265,581.121c2.1,0,3.5,1.4,3.5,3.5s-1.4,3.5-3.5,3.5c-2.101,0-3.5-1.4-3.5-3.5S1962.164,581.121,1964.265,581.121z
	 M1972.314,594.771c2.1,0,3.5,1.4,3.5,3.5c0,2.1-1.4,3.5-3.5,3.5c-2.101,0-3.5-1.4-3.5-3.5
	C1968.814,596.171,1970.214,594.771,1972.314,594.771z M1980.014,608.771c2.101,0,3.5,1.4,3.5,3.5s-1.399,3.5-3.5,3.5
	c-2.1,0-3.5-1.4-3.5-3.5S1977.914,608.771,1980.014,608.771z M1987.714,622.422c2.1,0,3.5,1.4,3.5,3.5s-1.4,3.5-3.5,3.5
	c-2.101,0-3.5-1.4-3.5-3.5S1985.613,622.422,1987.714,622.422z M1995.413,636.422c2.101,0,3.5,1.4,3.5,3.5s-1.399,3.5-3.5,3.5
	c-2.1,0-3.5-1.4-3.5-3.5S1993.313,636.422,1995.413,636.422z M2003.463,650.072c2.101,0,3.5,1.4,3.5,3.5s-1.399,3.5-3.5,3.5
	c-2.1,0-3.5-1.4-3.5-3.5S2001.363,650.072,2003.463,650.072z M2004.863,634.672c2.1,0,3.5,1.4,3.5,3.5s-1.4,3.5-3.5,3.5
	s-3.5-1.4-3.5-3.5S2002.764,634.672,2004.863,634.672z M2006.263,619.271c2.101,0,3.5,1.4,3.5,3.5c0,2.1-1.399,3.5-3.5,3.5
	c-2.1,0-3.499-1.4-3.499-3.5C2002.764,620.672,2004.163,619.271,2006.263,619.271z M2008.013,603.521c2.101,0,3.5,1.4,3.5,3.5
	s-1.399,3.5-3.5,3.5c-2.1,0-3.499-1.4-3.499-3.5S2005.913,603.521,2008.013,603.521z M2009.763,587.771c2.101,0,3.5,1.4,3.5,3.5
	s-1.399,3.5-3.5,3.5c-2.1,0-3.5-1.4-3.5-3.5S2007.663,587.771,2009.763,587.771z M2011.513,572.021c2.101,0,3.5,1.4,3.5,3.5
	s-1.399,3.5-3.5,3.5c-2.1,0-3.5-1.4-3.5-3.5S2009.413,572.021,2011.513,572.021z M2013.263,556.271c2.101,0,3.5,1.4,3.5,3.5
	s-1.399,3.5-3.5,3.5c-2.1,0-3.5-1.4-3.5-3.5S2011.163,556.271,2013.263,556.271z M2015.013,540.87c2.101,0,3.5,1.4,3.5,3.5
	c0,2.1-1.399,3.5-3.5,3.5c-2.1,0-3.5-1.4-3.5-3.5C2011.513,542.271,2012.913,540.87,2015.013,540.87z M2016.413,525.47
	c2.1,0,3.5,1.4,3.5,3.5s-1.4,3.5-3.5,3.5s-3.5-1.4-3.5-3.5S2014.313,525.47,2016.413,525.47z M2018.163,509.72
	c2.1,0,3.5,1.4,3.5,3.5s-1.4,3.5-3.5,3.5c-2.101,0-3.5-1.4-3.5-3.5S2016.062,509.72,2018.163,509.72z M2019.913,493.969
	c2.1,0,3.5,1.4,3.5,3.5c0,2.1-1.4,3.5-3.5,3.5c-2.101,0-3.5-1.4-3.5-3.5C2016.413,495.37,2017.812,493.969,2019.913,493.969z
	 M2021.312,478.569c2.101,0,3.5,1.4,3.5,3.5s-1.399,3.5-3.5,3.5c-2.1,0-3.5-1.4-3.5-3.5S2019.213,478.569,2021.312,478.569z
	 M2023.062,462.819c2.101,0,3.5,1.4,3.5,3.5s-1.399,3.5-3.5,3.5c-2.1,0-3.5-1.4-3.5-3.5S2020.963,462.819,2023.062,462.819z
	 M2024.812,447.068c2.101,0,3.5,1.4,3.5,3.5s-1.399,3.5-3.5,3.5c-2.1,0-3.5-1.4-3.5-3.5S2022.713,447.068,2024.812,447.068z
	 M2026.562,431.668c2.101,0,3.5,1.4,3.5,3.5s-1.399,3.5-3.5,3.5c-2.1,0-3.5-1.4-3.5-3.5S2024.463,431.668,2026.562,431.668z
	 M2028.312,415.568c2.1,0,3.5,1.4,3.5,3.5c0,2.1-1.4,3.5-3.5,3.5s-3.5-1.4-3.5-3.5
	C2024.812,416.968,2026.213,415.568,2028.312,415.568z"/>
<g>
	<polygon fill="#FFFFFF" points="311.588,353.267 323.138,348.717 350.087,375.667 357.437,405.068 328.038,397.718 
		301.088,370.767 305.638,359.217 	"/>
	<path fill="#FFFFFF" d="M303.888,522.67c0-1.4,0.35-2.1,1.75-2.1h8.75v-31.5l-5.95,4.9c0,0-1.05,1.05-2.1-0.35l-1.75-2.1
		c-0.7-1.05,0-1.75,0.35-2.1l8.4-6.65c1.05-0.7,1.4-1.05,2.8-1.05h2.45c1.4,0,1.75,0.7,1.75,2.1v36.75h9.45c1.4,0,1.75,0.7,1.75,2.1
		v1.05c0,1.4-0.35,2.1-1.75,2.1h-24.149c-1.4,0-1.75-0.7-1.75-2.1V522.67z"/>
	<path d="M324.538,387.567c1.05,1.05,2.45,1.4,3.5,1.4c2.1,0,3.85-1.4,3.85-3.85c0-1.05-0.35-2.45-1.4-3.5l-20.299-20.301l-3.5,8.4
		L324.538,387.567z"/>
	<path d="M333.987,378.117c1.05,1.05,2.45,1.4,3.5,1.4c2.45,0,3.85-1.75,3.85-3.85c0-1.4-0.35-2.45-1.4-3.5l-17.85-17.851l-8.4,3.5
		L333.987,378.117z"/>
	<path d="M330.487,392.818l14,3.85l4.55-4.55l-3.85-14c-0.35,4.55-4.2,6.65-8.05,6.65
		C337.137,388.968,335.387,392.118,330.487,392.818z"/>
	<path fill="#FFFFFF" d="M353.587,568.521c-2.45,2.1-4.55,2.1-6.65-0.35l-12.95-16.101c-3.5-4.55,2.1-9.1,5.6-4.55l8.05,10.5
		l7.35-68.601c0.7-5.6,7.7-4.55,7.35,0.35l-7.35,68.951l10.15-8.4c4.55-3.15,8.4,2.45,4.55,5.6L353.587,568.521z"/>
	<path fill="#FFFFFF" d="M371.086,405.768c7,0,13.3,5.95,13.3,13.3c0,7.35-6.3,13.3-13.3,13.3c-7,0-13.3-5.95-13.3-13.3
		C357.787,411.718,364.087,405.768,371.086,405.768z"/>
	<path fill="#FFFFFF" d="M476.084,683.323c2.1,2.1,2.1,4.2,0,6.3l-14.7,14.7c-3.85,3.85-8.4-1.4-4.9-4.9l9.45-9.45h-60.199
		c-5.25,0-5.25-7,0-7h60.199l-9.45-9.45c-3.85-3.85,1.4-8.4,4.9-4.9L476.084,683.323z"/>
	<path fill="#FFFFFF" d="M436.535,628.022c0-1.05,0.35-1.75,1.05-2.45l15.75-15.4c3.15-3.15,4.55-6.65,4.55-10.15
		c0-4.55-3.5-7.351-8.05-7.351c-4.9,0-7.7,3.5-9.1,7.351c-0.35,1.05-1.05,1.05-2.1,0.7l-2.45-1.05c-0.7-0.35-1.05-0.7-0.7-1.75
		c1.75-4.9,6.65-10.5,14.7-10.5c8.399,0,13.649,5.95,13.649,11.55c0,5.95-2.1,10.5-6.3,14.7l-13.649,13.3h19.599
		c1.4,0,1.75,0.7,1.75,2.1v1.05c0,1.4-0.35,2.1-1.75,2.1h-25.199c-1.4,0-1.75-0.7-1.75-2.1V628.022z"/>
	<path fill="#FFFFFF" d="M535.932,653.572l11.55,11.55c3.15,3.15-1.75,8.05-4.9,4.9l-11.55-11.55l-11.55,11.55
		c-3.15,3.15-8.05-1.75-4.9-4.9l11.55-11.55l-11.55-11.55c-3.15-3.15,1.75-8.05,4.9-4.9l11.55,11.55l11.55-11.55
		c3.15-3.15,8.05,1.75,4.9,4.9L535.932,653.572z"/>
</g>
<polygon fill="#FFFFFF" points="653.533,353.267 665.083,348.717 692.032,375.667 699.382,405.068 669.982,397.718 643.033,370.767 
	647.583,359.217 "/>
<path fill="#FFFFFF" d="M645.833,522.67c0-1.4,0.35-2.1,1.75-2.1h8.75v-31.5l-5.95,4.9c0,0-1.05,1.05-2.1-0.35l-1.75-2.1
	c-0.7-1.05,0-1.75,0.35-2.1l8.4-6.65c1.05-0.7,1.4-1.05,2.8-1.05h2.45c1.4,0,1.75,0.7,1.75,2.1v36.75h9.45c1.4,0,1.75,0.7,1.75,2.1
	v1.05c0,1.4-0.35,2.1-1.75,2.1h-24.149c-1.4,0-1.75-0.7-1.75-2.1V522.67z"/>
<path d="M666.483,387.567c1.05,1.05,2.45,1.4,3.5,1.4c2.1,0,3.85-1.4,3.85-3.85c0-1.05-0.35-2.45-1.4-3.5l-20.299-20.301l-3.5,8.4
	L666.483,387.567z"/>
<path d="M675.933,378.117c1.05,1.05,2.45,1.4,3.5,1.4c2.45,0,3.85-1.75,3.85-3.85c0-1.4-0.35-2.45-1.4-3.5l-17.85-17.851l-8.4,3.5
	L675.933,378.117z"/>
<path d="M672.433,392.818l14,3.85l4.55-4.55l-3.85-14c-0.35,4.55-4.2,6.65-8.05,6.65
	C679.083,388.968,677.333,392.118,672.433,392.818z"/>
<path fill="#FFFFFF" d="M695.532,568.521c-2.45,2.1-4.55,2.1-6.65-0.35l-12.95-16.101c-3.5-4.55,2.1-9.1,5.6-4.55l8.05,10.5
	l7.35-68.601c0.7-5.6,7.7-4.55,7.35,0.35l-7.35,68.951l10.149-8.4c4.55-3.15,8.4,2.45,4.55,5.6L695.532,568.521z"/>
<path fill="#FFFFFF" d="M713.032,405.768c7,0,13.299,5.95,13.299,13.3c0,7.35-6.3,13.3-13.299,13.3c-7,0-13.3-5.95-13.3-13.3
	C699.732,411.718,706.032,405.768,713.032,405.768z"/>
<path fill="#FFFFFF" d="M823.279,684.023c2.1,2.1,2.1,4.2,0,6.3l-14.7,14.7c-3.85,3.85-8.4-1.4-4.9-4.9l9.45-9.45h-60.198
	c-5.25,0-5.25-7,0-7h60.198l-9.45-9.45c-3.85-3.85,1.4-8.4,4.9-4.9L823.279,684.023z"/>
<path fill="#FFFFFF" d="M818.729,558.721c2.1,2.1,2.1,4.2,0,6.3l-14.699,14.7c-3.85,3.85-8.4-1.4-4.9-4.9l9.45-9.45H765.88
	c-5.25,0-5.25-7,0-7h42.699l-9.45-9.45c-3.85-3.85,1.4-8.4,4.9-4.9L818.729,558.721z"/>
<path fill="#FFFFFF" d="M763.78,744.574c0-1.05,0.35-1.75,0.7-2.45l14.35-26.25c0.7-1.05,1.4-1.4,2.45-1.4h2.8
	c1.05,0,1.75,0.7,1.05,2.1l-14.7,26.601h12.25v-12.6c0-1.4,0.7-1.75,2.1-1.75h1.75c1.4,0,2.1,0.35,2.1,1.75v12.6h5.6
	c1.4,0,1.75,0.7,1.75,2.1v1.05c0,1.4-0.35,2.1-1.75,2.1h-5.6v8.4c0,1.4-0.7,1.75-2.1,1.75h-1.75c-1.4,0-2.1-0.35-2.1-1.75v-8.4
	H765.53c-1.4,0-1.75-0.7-1.75-2.1V744.574z"/>
<path fill="#FFFFFF" d="M849.878,383.018c2.1,2.1,2.1,4.2,0,6.3l-14.7,14.701c-3.85,3.85-8.4-1.4-4.9-4.9l9.45-9.45H779.53
	c-5.25,0-5.25-7,0-7h60.198l-9.45-9.45c-3.85-3.85,1.4-8.4,4.9-4.9L849.878,383.018z"/>
<path fill="#FFFFFF" d="M784.78,494.669c0.7-0.35,1.4,0,1.75,0.7c1.75,3.15,4.2,6.3,9.799,6.3c4.55,0,8.75-3.15,8.75-8.75
	c0-6.3-4.2-9.8-10.15-9.8h-1.75c-0.7,0-1.05-0.35-1.05-1.4v-1.75c0-0.7,0-1.05,0.7-1.75l10.149-11.2H785.13
	c-0.7,0-1.05-0.7-1.05-1.4v-2.1c0-0.7,0.35-1.4,1.05-1.4h22.399c0.7,0,1.05,0.7,1.05,1.4v3.15c0,0.35,0,1.4-0.7,2.1l-9.1,9.8
	c8.4,1.75,12.25,6.3,12.25,14.35c0,7.7-6.65,14-14.7,14c-8.399,0-12.6-4.2-15.049-9.1c-0.35-0.7,0-1.4,0.7-1.75L784.78,494.669z"/>
<path fill="#FFFFFF" d="M794.58,352.217c0-1.05,0.35-1.75,1.05-2.45l15.75-15.4c3.15-3.15,4.55-6.65,4.55-10.15
	c0-4.55-3.5-7.35-8.05-7.35c-4.9,0-7.7,3.5-9.1,7.35c-0.35,1.05-1.05,1.05-2.1,0.7l-2.45-1.05c-0.7-0.35-1.05-0.7-0.7-1.75
	c1.75-4.9,6.65-10.5,14.7-10.5c8.4,0,13.65,5.95,13.65,11.55c0,5.95-2.1,10.5-6.3,14.7l-13.649,13.3h19.6c1.4,0,1.75,0.7,1.75,2.1
	v1.05c0,1.4-0.35,2.1-1.75,2.1h-25.2c-1.4,0-1.75-0.7-1.75-2.1V352.217z"/>
<path fill="#FFFFFF" d="M891.177,653.572l11.55,11.55c3.15,3.15-1.75,8.05-4.9,4.9l-11.55-11.55l-11.549,11.55
	c-3.15,3.15-8.05-1.75-4.9-4.9l11.549-11.55l-11.549-11.55c-3.15-3.15,1.75-8.05,4.9-4.9l11.549,11.55l11.55-11.55
	c3.15-3.15,8.05,1.75,4.9,4.9L891.177,653.572z"/>
<g>
	<polygon fill="#FFFFFF" points="986.029,587.771 997.579,583.221 1024.528,610.171 1031.878,639.572 1002.479,632.222 
		975.53,605.271 980.08,593.721 	"/>
	<path d="M998.979,622.072c1.05,1.05,2.45,1.4,3.5,1.4c2.1,0,3.85-1.4,3.85-3.85c0-1.05-0.35-2.45-1.4-3.5l-20.299-20.3l-3.5,8.4
		L998.979,622.072z"/>
	<path d="M1008.429,612.622c1.05,1.05,2.45,1.4,3.5,1.4c2.45,0,3.85-1.75,3.85-3.85c0-1.4-0.35-2.45-1.4-3.5l-17.85-17.85l-8.4,3.5
		L1008.429,612.622z"/>
	<path d="M1004.929,627.322l14,3.85l4.55-4.55l-3.85-14c-0.35,4.55-4.2,6.65-8.05,6.65
		C1011.579,623.472,1009.829,626.622,1004.929,627.322z"/>
	<path fill="#FFFFFF" d="M1026.278,574.471c0-1.4,0.35-2.1,1.75-2.1h8.75v-31.5l-5.95,4.9c0,0-1.05,1.05-2.1-0.35l-1.75-2.1
		c-0.7-1.05,0-1.75,0.35-2.1l8.4-6.65c1.05-0.7,1.4-1.05,2.8-1.05h2.45c1.4,0,1.75,0.7,1.75,2.1v36.75h9.45c1.4,0,1.75,0.7,1.75,2.1
		v1.05c0,1.4-0.35,2.1-1.75,2.1h-24.149c-1.4,0-1.75-0.7-1.75-2.1V574.471z"/>
	<path fill="#FFFFFF" d="M1045.528,640.272c7,0,13.3,5.95,13.3,13.3s-6.3,13.3-13.3,13.3c-7,0-13.3-5.95-13.3-13.3
		S1038.528,640.272,1045.528,640.272z"/>
	<path fill="#FFFFFF" d="M1110.276,491.869c2.8-1.05,4.9,0,5.95,2.8l7,18.9c1.75,4.9-4.9,7.35-6.65,2.45l-4.55-12.601
		l-29.399,62.301c-2.45,4.55-8.4,1.4-6.3-3.15l29.749-62.301l-13.299,4.9c-4.55,1.75-7-4.55-2.1-6.3L1110.276,491.869z"/>
	<path fill="#FFFFFF" d="M1201.274,611.222c2.1,2.1,2.1,4.2,0,6.3l-14.7,14.7c-3.85,3.85-8.4-1.4-4.9-4.9l9.45-9.45h-60.198
		c-5.25,0-5.25-7,0-7h60.198l-9.45-9.45c-3.85-3.85,1.4-8.4,4.9-4.9L1201.274,611.222z"/>
	<path fill="#FFFFFF" d="M1144.575,675.973c0.7-0.35,1.4,0,1.75,0.7c1.75,3.15,4.2,6.3,9.8,6.3c4.55,0,8.75-3.15,8.75-8.75
		c0-6.3-4.2-9.8-10.15-9.8h-1.75c-0.7,0-1.05-0.35-1.05-1.4v-1.75c0-0.7,0-1.05,0.7-1.75l10.15-11.2h-17.85
		c-0.7,0-1.05-0.7-1.05-1.4v-2.1c0-0.7,0.35-1.4,1.05-1.4h22.399c0.7,0,1.05,0.7,1.05,1.4v3.15c0,0.35,0,1.4-0.7,2.1l-9.1,9.8
		c8.4,1.75,12.25,6.3,12.25,14.351c0,7.7-6.65,14-14.7,14c-8.4,0-12.6-4.2-15.05-9.1c-0.35-0.7,0-1.4,0.7-1.75L1144.575,675.973z"/>
	<path fill="#FFFFFF" d="M1203.024,386.518c0-1.05,0.35-1.75,1.05-2.45l15.75-15.4c3.15-3.15,4.55-6.65,4.55-10.15
		c0-4.55-3.5-7.35-8.05-7.35c-4.899,0-7.699,3.5-9.1,7.35c-0.35,1.05-1.05,1.05-2.1,0.7l-2.45-1.05c-0.7-0.35-1.05-0.7-0.7-1.75
		c1.75-4.9,6.65-10.5,14.7-10.5c8.399,0,13.649,5.95,13.649,11.55c0,5.95-2.101,10.5-6.3,14.701l-13.649,13.3h19.599
		c1.4,0,1.75,0.7,1.75,2.1v1.05c0,1.4-0.35,2.1-1.75,2.1h-25.199c-1.4,0-1.75-0.7-1.75-2.1V386.518z"/>
	<path fill="#FFFFFF" d="M1221.573,477.869c-4.2-2.45-0.7-8.4,3.5-5.6l11.899,7.35l-17.149-67.201c-1.05-4.55,5.6-6.3,7-1.4
		l16.449,66.851l7-11.55c2.8-4.55,8.75-1.05,5.95,3.5l-10.5,17.15c-1.4,2.45-3.85,3.15-6.3,1.75L1221.573,477.869z"/>
	<path fill="#FFFFFF" d="M1265.322,575.871l11.55,11.55c3.149,3.15-1.75,8.05-4.9,4.9l-11.55-11.55l-11.55,11.55
		c-3.149,3.15-8.049-1.75-4.899-4.9l11.55-11.55l-11.55-11.55c-3.149-3.15,1.75-8.05,4.899-4.9l11.55,11.55l11.55-11.55
		c3.15-3.15,8.05,1.75,4.9,4.9L1265.322,575.871z"/>
</g>
<g>
	<polygon fill="#FFFFFF" points="1377.324,353.267 1388.874,348.717 1415.823,375.667 1423.173,405.068 1393.773,397.718 
		1366.824,370.767 1371.374,359.217 	"/>
	<path fill="#FFFFFF" d="M1369.624,522.67c0-1.4,0.351-2.1,1.75-2.1h8.75v-31.5l-5.95,4.9c0,0-1.05,1.05-2.1-0.35l-1.75-2.1
		c-0.7-1.05,0-1.75,0.351-2.1l8.399-6.65c1.05-0.7,1.399-1.05,2.8-1.05h2.45c1.399,0,1.75,0.7,1.75,2.1v36.75h9.449
		c1.4,0,1.75,0.7,1.75,2.1v1.05c0,1.4-0.35,2.1-1.75,2.1h-24.149c-1.399,0-1.75-0.7-1.75-2.1V522.67z"/>
	<path d="M1390.273,387.567c1.051,1.05,2.45,1.4,3.5,1.4c2.101,0,3.851-1.4,3.851-3.85c0-1.05-0.351-2.45-1.4-3.5l-20.3-20.301
		l-3.499,8.4L1390.273,387.567z"/>
	<path d="M1399.724,378.117c1.05,1.05,2.45,1.4,3.5,1.4c2.45,0,3.85-1.75,3.85-3.85c0-1.4-0.35-2.45-1.399-3.5l-17.85-17.851
		l-8.4,3.5L1399.724,378.117z"/>
	<path d="M1396.224,392.818l14,3.85l4.55-4.55l-3.851-14c-0.35,4.55-4.199,6.65-8.05,6.65
		C1402.873,388.968,1401.124,392.118,1396.224,392.818z"/>
	<path fill="#FFFFFF" d="M1419.323,568.521c-2.45,2.1-4.55,2.1-6.65-0.35l-12.949-16.101c-3.5-4.55,2.1-9.1,5.6-4.55l8.05,10.5
		l7.35-68.601c0.7-5.6,7.7-4.55,7.351,0.35l-7.351,68.951l10.15-8.4c4.55-3.15,8.399,2.45,4.55,5.6L1419.323,568.521z"/>
	<path fill="#FFFFFF" d="M1436.822,405.768c7,0,13.3,5.95,13.3,13.3c0,7.35-6.3,13.3-13.3,13.3c-6.999,0-13.299-5.95-13.299-13.3
		C1423.523,411.718,1429.823,405.768,1436.822,405.768z"/>
	<path fill="#FFFFFF" d="M1624.067,541.92c-4.55,0.35-6.3-2.45-6.649-6.65l-1.05-18.2c-0.351-4.9,7-5.25,7,0l0.699,12.95
		c7.351-8.4,15.05-20.65,19.6-36.051c2.45-9.1,3.851-17.85,3.851-26.25c0-37.8-24.85-73.501-93.448-73.501l-71.748,0.35
		c-5.25,0-4.899-7,0-7l71.748-0.35c73.498,0,100.447,39.201,100.447,80.501c0,9.8-1.399,19.25-3.85,28.351
		c-4.899,16.8-13.3,29.051-21.35,38.501l13.3-1.4c5.6-0.7,5.95,6.65,0.7,7L1624.067,541.92z"/>
	<path fill="#FFFFFF" d="M1545.67,650.422c-0.351,3.85-2.1,5.95-5.95,5.95l-19.6-0.7c-5.25-0.35-4.55-7.35,0.351-7l12.949,0.7
		c-20.649-19.95-33.599-42.351-42.349-73.151c-1.4-5.25,5.95-7,7-2.1c8.75,30.451,21.35,52.151,40.948,70.702l0.7-13.3
		c0.351-5.25,7.35-4.55,7,0L1545.67,650.422z"/>
	<path fill="#FFFFFF" d="M1576.469,588.821c0.7-0.35,1.4,0,1.75,0.7c1.75,3.15,4.2,6.3,9.8,6.3c4.55,0,8.75-3.15,8.75-8.75
		c0-6.3-4.2-9.8-10.149-9.8h-1.75c-0.7,0-1.051-0.35-1.051-1.4v-1.75c0-0.7,0-1.05,0.7-1.75l10.15-11.2h-17.85
		c-0.7,0-1.051-0.7-1.051-1.4v-2.1c0-0.7,0.351-1.4,1.051-1.4h22.399c0.699,0,1.05,0.7,1.05,1.4v3.15c0,0.35,0,1.4-0.7,2.1l-9.1,9.8
		c8.399,1.75,12.25,6.3,12.25,14.351c0,7.7-6.65,14-14.7,14c-8.399,0-12.6-4.2-15.05-9.1c-0.35-0.7,0-1.4,0.7-1.75L1576.469,588.821
		z"/>
	<path fill="#FFFFFF" d="M1630.018,655.322l11.55,11.55c3.149,3.15-1.75,8.05-4.9,4.9l-11.549-11.55l-11.55,11.55
		c-3.15,3.15-8.05-1.75-4.9-4.9l11.55-11.55l-11.55-11.55c-3.149-3.15,1.75-8.05,4.9-4.9l11.55,11.55l11.549-11.55
		c3.15-3.15,8.05,1.75,4.9,4.9L1630.018,655.322z"/>
	<path fill="#FFFFFF" d="M1652.417,397.368c0-1.05,0.35-1.75,1.05-2.45l15.75-15.4c3.149-3.15,4.55-6.65,4.55-10.15
		c0-4.55-3.5-7.35-8.05-7.35c-4.9,0-7.7,3.5-9.1,7.35c-0.351,1.05-1.05,1.05-2.101,0.7l-2.449-1.05c-0.7-0.35-1.051-0.7-0.7-1.75
		c1.75-4.9,6.649-10.5,14.699-10.5c8.4,0,13.649,5.95,13.649,11.55c0,5.95-2.1,10.5-6.3,14.7l-13.649,13.3h19.6
		c1.4,0,1.75,0.7,1.75,2.1v1.05c0,1.4-0.35,2.1-1.75,2.1h-25.199c-1.4,0-1.75-0.7-1.75-2.1V397.368z"/>
</g>
<g>
	<polygon fill="#FFFFFF" points="1757.77,588.121 1769.319,583.571 1796.269,610.521 1803.618,639.922 1774.22,632.572 
		1747.27,605.622 1751.82,594.071 	"/>
	<path d="M1770.72,622.422c1.05,1.05,2.449,1.4,3.5,1.4c2.1,0,3.85-1.4,3.85-3.85c0-1.05-0.351-2.45-1.4-3.5l-20.299-20.3l-3.5,8.4
		L1770.72,622.422z"/>
	<path d="M1780.169,612.972c1.05,1.05,2.45,1.4,3.5,1.4c2.45,0,3.85-1.75,3.85-3.85c0-1.4-0.35-2.45-1.399-3.5l-17.85-17.851
		l-8.399,3.5L1780.169,612.972z"/>
	<path fill="#FFFFFF" d="M1770.02,561.521c0-1.4,0.35-2.1,1.75-2.1h8.75v-31.5l-5.95,4.9c0,0-1.05,1.05-2.1-0.35l-1.75-2.1
		c-0.7-1.05,0-1.75,0.35-2.1l8.399-6.65c1.051-0.7,1.4-1.05,2.8-1.05h2.45c1.4,0,1.75,0.7,1.75,2.1v36.75h9.45
		c1.399,0,1.75,0.7,1.75,2.1v1.05c0,1.4-0.351,2.1-1.75,2.1h-24.149c-1.4,0-1.75-0.7-1.75-2.1V561.521z"/>
	<path d="M1776.669,627.672l14,3.85l4.55-4.55l-3.85-14c-0.351,4.55-4.2,6.65-8.05,6.65
		C1783.319,623.822,1781.569,626.972,1776.669,627.672z"/>
	<path fill="#FFFFFF" d="M1819.019,640.272c6.999,0,13.299,5.95,13.299,13.3s-6.3,13.3-13.299,13.3c-7,0-13.3-5.95-13.3-13.3
		S1812.019,640.272,1819.019,640.272z"/>
	<path fill="#FFFFFF" d="M1824.968,487.319c2.45-2.1,4.55-2.1,6.65,0.35l12.949,16.1c3.5,4.55-2.1,9.1-5.6,4.55l-8.05-10.5
		l-7.35,68.602c-0.7,5.6-7.7,4.55-7.351-0.35l7.351-68.951l-10.15,8.4c-4.55,3.15-8.399-2.45-4.55-5.6L1824.968,487.319z"/>
	<path fill="#FFFFFF" d="M1873.267,379.518c0-1.05,0.35-1.75,1.05-2.45l15.75-15.4c3.149-3.15,4.55-6.65,4.55-10.15
		c0-4.55-3.5-7.35-8.05-7.35c-4.9,0-7.7,3.5-9.1,7.35c-0.351,1.05-1.05,1.05-2.101,0.7l-2.449-1.05c-0.7-0.35-1.051-0.7-0.7-1.75
		c1.75-4.9,6.649-10.5,14.699-10.5c8.4,0,13.65,5.95,13.65,11.55c0,5.95-2.101,10.5-6.3,14.7l-13.65,13.3h19.6
		c1.4,0,1.75,0.7,1.75,2.1v1.05c0,1.4-0.35,2.1-1.75,2.1h-25.199c-1.4,0-1.75-0.7-1.75-2.1V379.518z"/>
	<path fill="#FFFFFF" d="M1945.715,470.519c-1.05,4.55-3.5,5.6-7,4.55l-19.6-5.95c-5.6-1.75-3.5-8.4,2.101-7l12.6,3.85l-33.6-60.201
		c-2.8-4.9,3.85-8.4,6.3-3.85l33.949,60.551l3.15-12.95c1.75-5.25,8.05-2.8,6.999,1.75L1945.715,470.519z"/>
	<path fill="#FFFFFF" d="M2053.162,487.319c2.45-2.1,4.55-2.1,6.649,0.35l12.95,16.1c3.5,4.55-2.101,9.1-5.601,4.55l-8.049-10.5
		l-7.351,68.602c-0.7,5.6-7.699,4.55-7.35-0.35l7.35-68.951l-10.149,8.4c-4.55,3.15-8.399-2.45-4.55-5.6L2053.162,487.319z"/>
	<path fill="#FFFFFF" d="M2061.562,419.068l11.55,11.55c3.15,3.15-1.75,8.05-4.899,4.9l-11.55-11.55l-11.55,11.55
		c-3.15,3.15-8.05-1.75-4.9-4.9l11.55-11.55l-11.55-11.55c-3.149-3.15,1.75-8.05,4.9-4.9l11.55,11.55l11.55-11.55
		c3.149-3.15,8.05,1.75,4.899,4.9L2061.562,419.068z"/>
	<path fill="#FFFFFF" d="M2078.711,577.271c0.7-0.35,1.4,0,1.75,0.7c1.75,3.15,4.2,6.3,9.8,6.3c4.55,0,8.75-3.15,8.75-8.75
		c0-6.3-4.2-9.8-10.149-9.8h-1.75c-0.7,0-1.05-0.35-1.05-1.4v-1.75c0-0.7,0-1.05,0.699-1.75l10.15-11.2h-17.85
		c-0.7,0-1.05-0.7-1.05-1.4v-2.1c0-0.7,0.35-1.4,1.05-1.4h22.399c0.7,0,1.05,0.7,1.05,1.4v3.15c0,0.35,0,1.4-0.7,2.1l-9.1,9.8
		c8.399,1.75,12.25,6.3,12.25,14.351c0,7.7-6.65,14-14.7,14c-8.399,0-12.6-4.2-15.05-9.1c-0.35-0.7,0-1.4,0.7-1.75L2078.711,577.271
		z"/>
</g>
</svg>
