<?xml version="1.0" encoding="utf-8"?>
<!-- Generator: Adobe Illustrator 16.0.0, SVG Export Plug-In . SVG Version: 6.00 Build 0)  -->
<!DOCTYPE svg PUBLIC "-//W3C//DTD SVG 1.1//EN" "http://www.w3.org/Graphics/SVG/1.1/DTD/svg11.dtd">
<svg version="1.1" id="Layer_1" xmlns="http://www.w3.org/2000/svg" xmlns:xlink="http://www.w3.org/1999/xlink" x="0px" y="0px"
	 width="2400px" height="1600px" viewBox="0 0 2400 1600" enable-background="new 0 0 2400 1600" xml:space="preserve">
<path fill="#00B1EE" d="M-20-20v1640h2440V-20H-20z M56.172,1560C47.24,1560,40,1552.758,40,1543.826
	c0-8.933,7.24-16.172,16.172-16.172c8.932,0,16.173,7.239,16.173,16.172C72.345,1552.758,65.105,1560,56.172,1560z M56.172,72.345
	C47.24,72.345,40,65.104,40,56.171S47.24,40,56.172,40c8.932,0,16.173,7.239,16.173,16.171S65.105,72.345,56.172,72.345z
	 M2343.827,1560c-8.933,0-16.172-7.242-16.172-16.174c0-8.933,7.24-16.172,16.172-16.172s16.173,7.239,16.173,16.172
	C2360,1552.758,2352.76,1560,2343.827,1560z M2343.827,72.346c-8.933,0-16.172-7.242-16.172-16.174
	c0-8.933,7.24-16.172,16.172-16.172S2360,47.239,2360,56.172C2360,65.104,2352.76,72.346,2343.827,72.346z"/>
<g>
	<path fill="#FFFFFF" d="M472.709,515.77c0.35-9.1,5.95-14,15.05-14h76.298c46.549,0,71.048,27.301,71.048,60.901
		c0,37.8-29.749,66.501-76.298,66.501h-4.55c8.75,38.151,38.149,72.451,68.249,93.102c5.599,3.85,7.7,8.4,7.7,12.95
		c0,8.05-4.9,13.3-13.65,13.3c-3.5,0-7-1.4-10.85-3.85c-42.349-29.4-68.948-68.601-82.248-115.502h-27.999l-5.6,103.602
		c-0.35,9.1-5.95,14-15.05,14c-9.45,0-13.649-5.25-13.649-14L472.709,515.77z M559.157,603.971c25.549,0,47.249-11.9,47.249-40.951
		c0-22.05-13.65-36.05-43.399-36.05h-62.298l-3.85,77.001H559.157z"/>
	<path fill="#FFFFFF" d="M651.208,671.172c0-47.601,31.15-92.401,88.548-92.401c44.799,0,76.298,29.75,76.298,80.151
		c0,49.351-31.849,91.352-86.448,91.352C686.207,750.273,651.208,722.623,651.208,671.172z M788.055,659.972
		c0-36.4-21.35-58.101-49.349-58.101c-37.099,0-59.498,31.5-59.498,67.201c0,35.351,21.349,58.101,50.749,58.101
		C767.405,727.173,788.055,698.823,788.055,659.972z"/>
	<path fill="#FFFFFF" d="M846.153,671.172c0-47.601,31.149-92.401,88.548-92.401c44.799,0,76.298,29.75,76.298,80.151
		c0,49.351-31.849,91.352-86.448,91.352C881.152,750.273,846.153,722.623,846.153,671.172z M983,659.972
		c0-36.4-21.35-58.101-49.349-58.101c-37.099,0-59.498,31.5-59.498,67.201c0,35.351,21.349,58.101,50.749,58.101
		C962.351,727.173,983,698.823,983,659.972z"/>
	<path fill="#FFFFFF" d="M1049.501,596.271c0.35-9.8,6.3-14,14-14c8.4,0,12.95,4.55,12.95,14l-0.7,12.6
		c9.799-15.4,26.249-30.101,53.898-30.101c21.35,0,34.299,11.55,38.499,30.451c12.25-18.9,30.799-30.451,53.898-30.451
		c26.949,0,42.349,14.7,42.349,41.301v4.2l-4.899,84.701v3.85c0,7.7,2.45,9.8,8.75,12.6c4.199,1.75,6.649,4.55,6.649,9.45
		c0,7.7-5.6,11.9-15.399,11.9c-13.649,0-26.6-7-26.6-28.701l4.9-90.301c0-16.8-7.351-25.9-22.05-25.9
		c-15.05,0-26.949,8.75-36.749,22.4c-6.3,9.1-10.15,16.8-10.85,30.8l-4.2,77.702c-0.7,9.8-4.9,14-13.649,14
		c-8.05,0-12.95-4.2-12.95-14l5.6-105.002c0-17.851-8.4-25.9-22.399-25.9c-14.7,0-25.899,9.45-35,21.7
		c-6.3,8.75-11.549,17.15-12.25,30.801l-4.2,78.401c-0.35,8.4-4.9,14-13.3,14c-8.75,0-12.95-4.55-13.3-14L1049.501,596.271z"/>
	<path fill="#FFFFFF" d="M1442.543,721.573l9.8-176.753c-10.85,11.55-22.05,17.851-33.949,22.05c-2.45,0.7-4.2,1.05-6.3,1.05
		c-8.05,0-12.95-5.25-12.95-12.6c0-4.55,2.45-9.101,8.05-11.55c18.55-8.05,31.149-16.101,42.699-31.151
		c5.95-7.7,11.2-10.85,18.199-10.85c8.75,0,14,5.25,14,14l-10.85,205.804h33.249c9.8,0,13.3,4.2,13.3,12.6
		c0,8.05-4.9,12.6-14.699,12.6h-95.198c-8.75,0-13.3-4.2-13.3-12.6c0-7.7,4.9-12.6,14.7-12.6H1442.543z"/>
	<path fill="#FFFFFF" d="M1621.393,666.272c-41.299,0-72.448-30.101-72.448-77.701c0-51.801,34.999-90.302,86.447-90.302
		c50.399,0,79.448,29.051,79.448,93.802c0,68.251-24.85,158.203-101.848,158.203c-26.249,0-46.198-10.15-60.198-28.351
		c-2.45-3.15-4.199-7.35-4.199-11.2c0-6.65,4.899-12.25,12.949-12.25c4.55,0,9.1,2.1,12.25,6.3
		c12.249,16.101,24.149,20.301,39.898,20.301c39.199,0,60.898-40.251,66.849-84.702
		C1667.591,656.472,1645.191,666.272,1621.393,666.272z M1684.041,570.021c0-29.401-19.6-46.551-48.999-46.551
		c-32.899,0-57.398,24.5-57.398,61.251c0,36.051,19.949,56.351,49.698,56.351c15.05,0,30.449-6.3,39.55-14.701
		c5.249-4.9,14.699-14,15.749-30.8L1684.041,570.021z"/>
	<path fill="#FFFFFF" d="M1749.142,631.271c0-64.751,46.549-133.002,122.847-133.002c29.749,0,55.648,11.2,73.848,28.701
		c4.2,4.2,7,7.7,7,14c0,7.35-5.6,12.95-12.6,12.95c-3.85,0-8.05-2.1-10.85-4.55c-20.649-17.5-34.299-25.9-57.398-25.9
		c-59.849,0-92.048,54.601-92.048,107.802c0,64.051,38.499,93.802,79.098,93.802c26.25,0,45.149-11.2,65.099-32.201
		c3.85-4.2,8.399-6.3,12.6-6.3c7.7,0,12.95,5.25,12.95,12.95c0,4.9-2.45,9.45-7.7,14.7c-24.85,24.851-50.398,36.051-85.048,36.051
		C1797.44,750.273,1749.142,710.373,1749.142,631.271z"/>
	<path d="M532.908,977.621c11.9,0,18.55,5.95,18.55,19.601c-3.5,61.951-43.399,113.052-115.147,113.052
		c-63.349,0-116.197-40.95-116.197-121.452c0-69.302,49.698-130.552,128.097-130.552c48.999,0,79.798,19.6,96.948,44.101
		c3.15,4.899,5.6,9.8,5.6,15.05c0,10.5-8.4,18.9-18.55,18.9c-7,0-12.949-3.85-17.499-9.8c-19.25-25.551-39.899-33.95-68.948-33.95
		c-51.799,0-85.048,45.85-85.048,95.551c0,61.602,36.399,87.852,75.948,87.852c44.449,0,67.898-25.2,74.898-64.051h-92.048
		c-10.85,0-18.549-4.9-18.549-17.15c0-11.2,8.05-17.15,20.299-17.15H532.908z"/>
	<path d="M661.008,1079.473c21.349,0,34.299-7.35,47.599-22.05c4.2-4.551,8.4-6.301,12.95-6.301c8.4,0,14.7,5.95,14.7,14.351
		c0,4.2-1.75,9.45-6.3,14.351c-19.25,21.7-41.999,30.45-73.498,30.45c-40.949,0-76.298-30.801-76.298-75.951
		c0-56.701,44.449-95.552,93.798-95.552c39.549,0,59.498,20.65,59.498,46.901c0,18.9-10.85,36.4-33.249,48.301
		c-18.199,9.8-45.849,16.8-81.198,18.899C623.559,1068.272,638.608,1079.473,661.008,1079.473z M698.106,987.771
		c0-10.5-7.7-18.2-23.099-18.2c-29.05,0-55.299,24.5-58.799,53.9C661.708,1020.322,698.106,1008.771,698.106,987.771z"/>
	<path d="M854.909,938.771c47.249,0,80.148,30.801,80.148,80.501c0,51.451-33.949,91.002-88.547,91.002
		c-45.149,0-81.898-26.601-81.898-80.501C764.611,980.422,798.21,938.771,854.909,938.771z M897.958,1019.972
		c0-32.2-19.599-50.4-44.799-50.4c-30.799,0-51.448,25.2-51.448,59.15c0,30.101,16.449,50.751,45.498,50.751
		C876.258,1079.473,897.958,1056.373,897.958,1019.972z"/>
	<path d="M1088.002,1095.573c-13.3,9.101-26.25,14.7-45.499,14.7c-46.898,0-81.198-25.9-81.198-81.201
		c0-47.602,30.799-90.302,85.048-90.302c22.05,0,38.499,7,48.299,17.851c3.15-10.5,9.8-14.351,17.849-14.351
		c12.25,0,17.15,7,17.5,19.251l-7.7,148.752c-2.8,55.301-35.699,80.502-81.198,80.502c-38.149,0-56.698-13.301-75.248-31.151
		c-4.55-4.2-6.3-10.149-6.3-15.4c0-9.8,7-17.5,16.8-17.5c4.9,0,9.799,2.101,12.95,5.25c17.149,17.851,29.749,28.001,53.198,28.001
		c26.949,0,42.699-18.2,44.449-47.602L1088.002,1095.573z M1092.202,1012.621c-0.35-11.899-1.05-18.899-6.65-25.9
		c-8.05-10.149-21.349-17.149-36.049-17.149c-29.75,0-51.099,22.4-51.099,57.751c0,32.9,17.85,52.15,45.149,52.15
		c16.1,0,27.999-5.25,35.699-12.95c8.05-8.75,10.85-15.75,11.55-26.601L1092.202,1012.621z"/>
	<path d="M1175.85,961.521c0.7-13.65,8.75-19.251,18.2-19.251c12.25,0,17.499,7,17.499,19.251v2.799
		c12.6-15.75,31.85-25.55,52.499-25.55c29.749,0,50.049,19.251,50.049,50.051c0,11.2-7.7,17.15-16.449,17.15
		c-9.101,0-17.15-4.55-18.2-15.05c-1.75-14.351-10.85-21.351-22.749-21.351c-14,0-26.6,9.45-34.999,20.3
		c-8.05,10.851-13.3,24.15-14.35,45.151l-2.8,52.501c-0.7,13.65-8.75,19.25-18.2,19.25c-12.25,0-17.5-7-17.5-19.25L1175.85,961.521z
		"/>
	<path d="M1492.246,1058.822c0,13.301,4.2,21.001,18.199,21.351c10.85,0.351,14.7,5.601,14.7,15.051c0,9.8-8.4,15.05-21.35,15.05
		c-18.199,0-29.399-6.3-36.749-19.601c-16.8,14.351-30.1,19.601-55.999,19.601c-43.398,0-78.397-28-78.397-78.401
		c0-55.651,35.699-93.102,90.298-93.102c32.199,0,55.998,15.05,65.798,27.65c6.3,8.4,8.399,14.001,8.399,18.9l-4.899,68.951
		V1058.822z M1461.097,1001.072c0-8.051-1.05-14.352-9.1-21.001c-7.7-6.65-18.199-10.5-29.399-10.5
		c-30.099,0-52.849,24.15-52.849,59.851c0,32.201,18.55,50.051,42.699,50.051c16.449,0,27.299-4.899,36.399-14.7
		c6.649-7,8.749-16.45,9.8-28.351L1461.097,1001.072z"/>
	<path d="M1558.05,961.521c0.699-13.65,8.749-19.251,18.199-19.251c9.8,0,14.699,4.9,16.1,12.601l1.05,5.6
		c11.55-12.25,30.1-21.7,51.799-21.7c41.999,0,71.397,26.95,71.397,77.701s-27.999,93.802-82.598,93.802
		c-21.35,0-37.099-5.6-47.248-14l-4.2,71.751c-0.7,13.65-8.75,19.25-18.55,19.25c-11.199,0-17.149-7-17.149-19.25L1558.05,961.521z
		 M1589.198,1044.473c0,10.85,1.75,17.15,9.1,23.45c7.351,6.3,18.2,11.55,33.949,11.55c31.499,0,47.249-28,47.249-60.201
		c0-29.051-14.699-49.7-40.949-49.7c-15.749,0-27.648,7.351-36.049,17.5c-6.649,7.7-10.85,17.15-11.55,29.051L1589.198,1044.473z"/>
	<path d="M1759.293,874.02c0.7-13.65,8.75-19.25,18.199-19.25c12.25,0,17.5,7,17.5,19.25l-4.9,91.352
		c15.05-15.051,33.949-26.601,62.299-26.601c29.049,0,51.099,16.45,51.099,49.351v4.2l-3.85,72.451
		c-0.351,7.351,0.699,10.851,7.35,13.301c6.649,2.45,9.449,6.649,9.449,12.6c0,10.15-7.699,16.101-20.999,16.101
		c-16.1,0-32.199-6.3-32.199-30.45v-3.15l4.2-77.001c0-16.801-7.351-26.601-25.199-26.601c-16.45,0-32.55,10.851-42.699,25.2
		c-6.65,9.45-12.25,23.101-13.3,40.601l-2.8,52.151c-0.7,13.65-8.75,19.25-18.199,19.25c-12.25,0-17.5-7-17.5-19.25L1759.293,874.02
		z"/>
	<path d="M1982.938,1101.174l-50.049-132.652c-1.05-2.801-1.399-5.25-1.399-7.701c0-11.199,9.449-18.55,19.249-18.55
		c8.05,0,14,4.2,17.5,13.65l35.349,99.401l46.199-102.552c3.149-7.351,9.8-10.5,16.1-10.5c10.149,0,17.85,6.3,17.85,15.751
		c0,2.449-0.7,4.899-1.75,7.35l-95.548,211.403c-3.5,7.351-9.8,10.5-16.1,10.5c-10.149,0-17.149-5.949-17.149-15.75
		c0-2.45,0.351-5.25,1.75-8.4L1982.938,1101.174z"/>
</g>
</svg>
