<?xml version="1.0" encoding="utf-8"?>
<!-- Generator: Adobe Illustrator 16.0.0, SVG Export Plug-In . SVG Version: 6.00 Build 0)  -->
<!DOCTYPE svg PUBLIC "-//W3C//DTD SVG 1.1//EN" "http://www.w3.org/Graphics/SVG/1.1/DTD/svg11.dtd">
<svg version="1.1" id="Layer_1" xmlns="http://www.w3.org/2000/svg" xmlns:xlink="http://www.w3.org/1999/xlink" x="0px" y="0px"
	 width="2400px" height="1600px" viewBox="0 0 2400 1600" enable-background="new 0 0 2400 1600" xml:space="preserve">
<g>
	<path fill="#00B1EE" d="M-20-20v800h1200V-20H-20z M55.827,739.346c-8.933,0-16.173-7.242-16.173-16.174
		c0-8.933,7.24-16.172,16.173-16.172S72,714.239,72,723.172C72,732.104,64.76,739.346,55.827,739.346z M55.827,72.346
		c-8.933,0-16.173-7.242-16.173-16.174c0-8.933,7.24-16.172,16.173-16.172S72,47.239,72,56.172
		C72,65.104,64.76,72.346,55.827,72.346z M1123.827,739.346c-8.933,0-16.173-7.242-16.173-16.174c0-8.933,7.24-16.172,16.173-16.172
		S1140,714.239,1140,723.172C1140,732.104,1132.76,739.346,1123.827,739.346z M1123.827,72.346c-8.933,0-16.173-7.242-16.173-16.174
		c0-8.933,7.24-16.172,16.173-16.172S1140,47.239,1140,56.172C1140,65.104,1132.76,72.346,1123.827,72.346z"/>
	<path fill="#00B1EE" d="M1220-20v800h1200V-20H1220z M1275.827,739.346c-8.933,0-16.173-7.242-16.173-16.174
		c0-8.933,7.24-16.172,16.173-16.172S1292,714.239,1292,723.172C1292,732.104,1284.76,739.346,1275.827,739.346z M1275.827,72.346
		c-8.933,0-16.173-7.242-16.173-16.174c0-8.933,7.24-16.172,16.173-16.172S1292,47.239,1292,56.172
		C1292,65.104,1284.76,72.346,1275.827,72.346z M2343.827,739.346c-8.933,0-16.173-7.242-16.173-16.174
		c0-8.933,7.24-16.172,16.173-16.172S2360,714.239,2360,723.172C2360,732.104,2352.76,739.346,2343.827,739.346z M2343.827,72.346
		c-8.933,0-16.173-7.242-16.173-16.174c0-8.933,7.24-16.172,16.173-16.172S2360,47.239,2360,56.172
		C2360,65.104,2352.76,72.346,2343.827,72.346z"/>
	<path fill="#00B1EE" d="M-20,820v800h1200V820H-20z M55.827,1560.346c-8.933,0-16.173-7.242-16.173-16.174
		c0-8.933,7.24-16.172,16.173-16.172S72,1535.239,72,1544.172C72,1553.104,64.76,1560.346,55.827,1560.346z M55.827,893.346
		c-8.933,0-16.173-7.242-16.173-16.174c0-8.933,7.24-16.172,16.173-16.172S72,868.239,72,877.172
		C72,886.104,64.76,893.346,55.827,893.346z M1123.827,1560.346c-8.933,0-16.173-7.242-16.173-16.174
		c0-8.933,7.24-16.172,16.173-16.172s16.173,7.239,16.173,16.172C1140,1553.104,1132.76,1560.346,1123.827,1560.346z
		 M1123.827,893.346c-8.933,0-16.173-7.242-16.173-16.174c0-8.933,7.24-16.172,16.173-16.172S1140,868.239,1140,877.172
		C1140,886.104,1132.76,893.346,1123.827,893.346z"/>
	<path fill="#00B1EE" d="M1220,820v800h1200V820H1220z M1275.827,1560.346c-8.933,0-16.173-7.242-16.173-16.174
		c0-8.933,7.24-16.172,16.173-16.172s16.173,7.239,16.173,16.172C1292,1553.104,1284.76,1560.346,1275.827,1560.346z
		 M1275.827,893.346c-8.933,0-16.173-7.242-16.173-16.174c0-8.933,7.24-16.172,16.173-16.172S1292,868.239,1292,877.172
		C1292,886.104,1284.76,893.346,1275.827,893.346z M2343.827,1560.346c-8.933,0-16.173-7.242-16.173-16.174
		c0-8.933,7.24-16.172,16.173-16.172s16.173,7.239,16.173,16.172C2360,1553.104,2352.76,1560.346,2343.827,1560.346z
		 M2343.827,893.346c-8.933,0-16.173-7.242-16.173-16.174c0-8.933,7.24-16.172,16.173-16.172S2360,868.239,2360,877.172
		C2360,886.104,2352.76,893.346,2343.827,893.346z"/>
</g>
<g>
	<g>
		<path d="M337.479,485.249c0-4.55,1.05-6.65,4.2-10.15l81.551-79.801c21.001-20.65,28.701-38.851,28.701-57.401
			c0-23.101-16.101-38.501-38.151-38.501c-22.75,0-36.05,16.101-45.15,37.101c-1.4,2.801-2.8,3.851-4.55,3.851
			c-1.05,0-2.45-0.351-3.851-1.05l-23.1-10.851c-2.45-1.05-3.851-2.45-3.851-4.55c0-1.05,0.35-2.45,1.05-3.851
			c12.95-31.15,40.601-54.95,79.451-54.95c45.501,0,78.052,28.7,78.052,70.701c0,30.8-13.65,54.601-38.501,79.801l-63.001,63.701
			h99.052c4.9,0,7,2.101,7,7V506.6c0,4.9-2.1,7-7,7H344.479c-4.9,0-7-2.1-7-7V485.249z"/>
		<path d="M587.724,408.598h-56.001c-4.899,0-7-2.1-7-7v-17.5c0-4.9,2.101-7,7-7h56.001v-56.001c0-4.9,2.101-7.001,7-7.001h17.501
			c4.899,0,7,2.101,7,7.001v56.001h56.001c4.9,0,7,2.1,7,7v17.5c0,4.9-2.1,7-7,7h-56.001v56.001c0,4.9-2.101,7-7,7h-17.501
			c-4.899,0-7-2.1-7-7V408.598z"/>
		<path d="M716.521,486.299c0-4.899,2.101-7,7.001-7h42.351V314.446l-31.851,28.7c-1.75,1.75-3.15,2.45-4.9,2.45
			c-1.4,0-2.8-0.7-3.85-2.1l-15.051-18.9c-1.4-1.75-2.1-3.15-2.1-4.551c0-1.75,0.699-3.149,2.8-4.899l46.9-42.001
			c3.5-3.15,5.25-4.55,11.9-4.55h27.65c4.9,0,7,2.1,7,7v203.703h42.351c4.9,0,7.001,2.101,7.001,7V506.6c0,4.9-2.101,7-7.001,7
			H723.521c-4.9,0-7.001-2.1-7.001-7V486.299z"/>
	</g>
</g>
<g>
	<g>
		<path d="M1681.555,1135.146c-1.399,1.75-2.8,2.449-4.899,2.449c-1.75,0-3.851-0.699-5.601-2.1
			c-15.4-12.601-26.95-16.101-42.7-16.101c-29.051,0-50.051,29.401-53.201,71.052c11.55-12.25,29.751-21.351,50.751-21.351
			c44.451,0,78.751,31.15,78.751,84.002c0,49-37.45,84.001-84.001,84.001c-49.701,0-86.102-37.101-86.102-104.302
			c0-84.001,34.65-147.702,94.502-147.702c29.05,0,49.351,10.149,64.4,24.85c1.4,1.4,2.101,3.5,2.101,4.9c0,1.75-0.351,2.8-1.4,4.2
			L1681.555,1135.146z M1577.253,1257.298c0,28.001,19.951,45.501,44.102,45.501c23.45,0,44.801-17.5,44.801-49.7
			c0-31.851-21.701-49.701-44.801-49.701c-13.65,0-22.751,5.25-31.501,12.601c-4.55,3.85-12.25,11.899-12.601,29.05V1257.298z"/>
		<path d="M1730.2,1240.148c0-4.9,2.101-7.001,7-7.001h143.503c4.9,0,7,2.101,7,7.001v17.5c0,4.9-2.1,7-7,7H1737.2
			c-4.899,0-7-2.1-7-7V1240.148z M1808.602,1160.347c13.65,0,24.501,10.851,24.501,24.5c0,13.301-10.851,23.801-24.501,23.801
			c-13.3,0-23.8-10.5-23.8-23.801C1784.802,1171.197,1795.302,1160.347,1808.602,1160.347z M1808.602,1288.799
			c13.65,0,24.501,10.851,24.501,24.5c0,13.301-10.851,23.801-24.501,23.801c-13.3,0-23.8-10.5-23.8-23.801
			C1784.802,1299.649,1795.302,1288.799,1808.602,1288.799z"/>
		<path d="M1935.999,1262.549c1.75-1.051,2.8-1.4,3.85-1.4c1.4,0,2.8,0.7,3.851,2.8c9.8,20.301,27.65,38.851,54.95,38.851
			c26.251,0,44.451-17.85,44.451-46.551c0-31.5-24.851-49.001-57.751-49.001h-8.4c-4.9,0-7-2.1-7-7v-16.8
			c0-3.851,1.75-6.301,4.55-9.801l44.101-50.751h-88.201c-4.9,0-7-2.1-7-7v-20.3c0-4.9,2.1-7,7-7h131.952c4.9,0,7,2.1,7,7v15.05
			c0,6.65-2.8,11.2-5.95,14.7l-46.551,51.451c34.301,8.05,64.752,32.551,64.752,79.451c0,47.251-34.651,80.852-83.302,80.852
			c-45.15,0-74.552-27.65-86.802-53.201c-0.35-1.05-0.7-1.75-0.7-2.8c0-2.1,1.4-3.85,3.5-5.25L1935.999,1262.549z"/>
	</g>
</g>
<g>
	<g>
		<path fill="#FFFFFF" d="M428.13,1271.299l-46.9,55.301c-4.2,4.9-8.05,7-12.95,7c-5.601,0-11.2-4.55-11.2-11.2
			c0-3.15,1.399-7.351,4.899-11.2l51.102-60.551l-28.701-39.201c-14.7,69.651-37.8,125.652-92.051,125.652
			c-9.45,0-14.351-4.9-14.351-11.55c0-6.65,4.9-11.551,14.351-11.551c43.051,0,59.851-50.4,73.851-133.002
			c1.4-7.7,5.95-11.9,12.251-11.9c4.899,0,8.05,2.45,12.6,8.4l38.851,53.201l46.201-54.602c4.2-4.899,8.05-7,13.3-7
			c12.601,0,18.9,7.7,40.251,7.7c13.301,0,22.051-7.7,31.15-7.7c5.95,0,9.801,4.55,9.801,10.5c0,4.551-2.801,9.801-9.101,12.95
			c-11.55,5.601-20.301,7.351-31.5,7.351c-11.9,0-23.801-1.75-36.051-5.95l-49.001,57.401l44.801,60.9c2.1,3.15,2.8,5.95,2.8,9.101
			c0,7.7-5.95,12.25-12.25,12.25c-4.9,0-8.75-2.45-12.601-8.4L428.13,1271.299z"/>
		<path fill="#FFFFFF" d="M549.227,1183.097c1.05-9.8,7.35-14,14.7-14c9.45,0,11.899,5.601,11.899,14l-9.1,82.952
			c-0.7,7.35-0.7,8.75-0.7,10.85c0,28.701,16.45,37.101,33.251,37.101c15.05,0,29.4-7.35,40.601-18.55
			c9.8-9.801,14.7-22.051,16.8-43.051l7.351-69.302c1.05-9.8,6.3-14,14.351-14c9.449,0,12.25,4.9,12.25,12.95l-15.4,143.853
			c45.15-24.5,66.851-71.751,80.852-144.553c1.399-8.05,7-11.55,11.9-11.55c5.6,0,11.2,4.55,11.2,12.6c0,1.4,0,2.45-0.351,3.851
			c-18.2,89.252-44.45,137.553-106.752,165.903l-3.149,30.8c-4.2,39.901-25.201,64.052-54.602,64.052
			c-25.55,0-43.051-16.801-43.051-40.251c0-34.65,31.501-51.451,76.302-69.651l2.45-21.351
			c-15.751,14.001-33.951,21.351-54.602,21.351c-26.95,0-55.301-16.8-55.301-57.051c0-2.8,0-3.851,0.35-9.101L549.227,1183.097z
			 M641.978,1388.9l2.801-25.9c-30.101,11.9-49.352,24.501-49.352,42.351c0,11.2,8.051,18.551,18.9,18.551
			C627.628,1423.901,639.527,1410.601,641.978,1388.9z"/>
		<path fill="#FFFFFF" d="M758.173,1180.646c0-5.949,4.9-11.55,11.2-11.55c11.9,0,24.15,7,48.651,7c22.4,0,40.25-7,56.7-7
			c11.201,0,16.101,5.95,16.101,14c0,4.9-2.1,10.501-7,15.751l-100.102,111.651c8.75-3.149,15.4-4.55,23.8-4.55
			c18.9,0,24.851,9.45,42.001,9.45c10.15,0,17.851-4.2,28.351-12.601c3.5-2.8,6.3-4.2,9.801-4.2c5.25,0,10.149,3.851,10.149,10.15
			c0,3.5-1.399,7.351-5.6,11.2c-15.051,13.301-27.65,17.15-43.051,17.15c-21.001,0-28.001-7.7-44.101-7.7
			c-12.95,0-23.801,6.65-33.601,6.65c-11.9,0-18.2-6.65-18.2-16.101c0-8.05,3.149-12.6,9.1-19.25l98.352-108.853
			c-14.7,4.2-29.4,6.65-44.45,6.65c-15.4,0-30.101-2.45-44.102-5.6C762.023,1190.797,758.173,1185.897,758.173,1180.646z"/>
	</g>
</g>
<g>
	<g>
		<path fill="#FFFFFF" d="M1700.106,451.998c-0.351,3.501-0.351,5.251-0.351,7.7c0,21.701,11.9,34.301,30.801,34.301
			c23.45,0,39.551-16.45,47.251-69.301c1.05-8.4,6.3-12.601,12.95-12.601c7.7,0,11.55,5.25,11.55,16.101
			c-6.649,57.051-30.45,88.901-72.451,88.901c-24.15,0-40.95-10.5-49.351-25.9c-15.75,18.2-38.15,25.9-60.551,25.9
			c-28.701,0-54.251-13.3-66.852-38.501c-14.7,24.15-36.4,38.501-71.051,38.501c-9.45,0-14.351-4.9-14.351-11.55
			c0-6.65,4.9-11.551,14.351-11.551c38.15,0,58.451-24.851,64.4-66.851c6.65-46.201,42.001-81.552,93.452-81.552
			c20.3,0,35.7,7,46.9,15.05c1.051-5.949,5.601-11.55,12.95-11.55c8.051,0,11.2,5.25,11.2,14.351L1700.106,451.998z
			 M1679.806,408.598c0.351-3.5,0.351-5.6,0.351-7.7c0-9.8-2.801-14.7-9.45-20.3c-8.751-7.7-19.951-11.9-33.951-11.9
			c-36.4,0-63.001,30.801-63.001,70.701c0,35,19.601,54.601,48.301,54.601c17.851,0,29.4-4.899,39.9-16.45
			c7.001-7.7,11.2-18.9,13.301-34.301L1679.806,408.598z"/>
		<path fill="#FFFFFF" d="M1794.601,253.195c1.05-9.801,6.3-14,13.65-14c8.75,0,13.3,4.199,13.3,13.649l-12.95,125.303
			c10.5-16.101,36.4-32.551,64.051-32.551c40.251,0,66.502,28.001,66.502,73.151c0,31.15-16.101,63.001-42.001,77.352
			c55.65-5.95,86.451-26.951,95.901-73.852c1.75-7.7,6.3-11.55,12.601-11.55c5.25,0,10.85,3.85,10.85,11.55
			c0,1.4-0.35,2.8-0.699,4.55c-14.001,62.651-60.901,90.302-144.903,90.302c-31.851,0-57.751-6.65-72.451-25.2l-1.05,6.3
			c-2.1,12.601-10.5,15.4-16.101,15.4c-6.649,0-11.2-4.9-11.2-14.351L1794.601,253.195z M1802.65,446.049
			c-0.35,3.5-0.35,3.85-0.35,5.6c0,23.101,15.4,42.351,47.251,42.351c40.601,0,61.251-32.2,61.251-74.901
			c0-30.8-12.251-50.4-41.651-50.4s-60.551,28-64.4,59.851L1802.65,446.049z"/>
		<path fill="#FFFFFF" d="M2086.151,345.597c24.15,0,40.251,6.65,53.9,16.8c3.851,2.801,7,7.7,7,12.951c0,8.05-6.3,12.95-13.3,12.95
			c-4.2,0-7.35-1.75-10.851-4.9c-8.75-8.05-22.05-14.7-39.2-14.7c-36.4,0-64.051,31.5-64.051,68.601
			c0,34.651,20.65,56.701,51.45,56.701c20.65,0,35.001-8.05,49.352-22.4c3.5-3.5,6.649-4.899,10.149-4.899
			c5.95,0,11.551,4.199,11.551,11.55c0,4.2-1.75,6.65-4.551,10.15c-18.55,21-44.801,28.7-68.601,28.7
			c-42.351,0-77.352-28.351-77.352-78.401C1991.649,389.348,2031.55,345.597,2086.151,345.597z"/>
	</g>
</g>
</svg>
