<?xml version="1.0" encoding="utf-8"?>
<!-- Generator: Adobe Illustrator 16.0.0, SVG Export Plug-In . SVG Version: 6.00 Build 0)  -->
<!DOCTYPE svg PUBLIC "-//W3C//DTD SVG 1.1//EN" "http://www.w3.org/Graphics/SVG/1.1/DTD/svg11.dtd">
<svg version="1.1" id="Layer_1" xmlns="http://www.w3.org/2000/svg" xmlns:xlink="http://www.w3.org/1999/xlink" x="0px" y="0px"
	 width="2400px" height="1600px" viewBox="0 0 2400 1600" enable-background="new 0 0 2400 1600" xml:space="preserve">
<path fill="#00B1EE" d="M-20-20v1640h2440V-20H-20z M56.172,1560C47.24,1560,40,1552.758,40,1543.826
	c0-8.933,7.24-16.172,16.172-16.172c8.933,0,16.174,7.239,16.174,16.172C72.346,1552.758,65.104,1560,56.172,1560z M56.172,72.345
	C47.24,72.345,40,65.104,40,56.171S47.24,40,56.172,40c8.933,0,16.174,7.239,16.174,16.171S65.104,72.345,56.172,72.345z
	 M2343.827,1560c-8.933,0-16.173-7.242-16.173-16.174c0-8.933,7.24-16.172,16.173-16.172s16.173,7.239,16.173,16.172
	C2360,1552.758,2352.76,1560,2343.827,1560z M2343.827,72.346c-8.933,0-16.173-7.242-16.173-16.174
	c0-8.933,7.24-16.172,16.173-16.172S2360,47.239,2360,56.172C2360,65.104,2352.76,72.346,2343.827,72.346z"/>
<g>
	<path fill="#FFFFFF" d="M598.711,321.044c1.05-8.75,6.65-14,14.35-14c9.449,0,14.35,4.9,14.35,15.75l-22.049,204.054h108.146
		c8.75,0,12.949,5.25,12.949,12.25c0,7.35-4.899,12.95-15.049,12.95H589.262c-10.15,0-13.65-5.25-13.65-14L598.711,321.044z"/>
	<path fill="#FFFFFF" d="M761.107,400.845c0.7-6.65,5.25-13.3,13.301-13.3c8.398,0,12.6,3.5,12.6,13.3l-9.101,91.001
		c-0.35,3.5-0.35,4.9-0.35,7c0,19.25,9.45,33.601,28.349,33.601c25.9,0,41.649-17.5,47.6-69.301c1.049-9.45,7-14,12.949-14
		c6.65,0,12.25,5.25,12.25,16.45c-6.65,57.051-30.799,89.952-73.148,89.952c-28.35,0-54.599-15.05-54.599-54.601
		c0-2.45,0-3.85,0.7-11.2L761.107,400.845z M781.057,317.544c10.851,0,19.6,8.75,19.6,19.6s-8.749,19.601-19.6,19.601
		c-10.85,0-19.599-8.75-19.599-19.601S770.207,317.544,781.057,317.544z"/>
	<path fill="#FFFFFF" d="M869.604,291.644c1.05-9.8,6.3-14,13.648-14c8.75,0,13.301,4.2,13.301,13.65l-12.949,125.302
		c10.498-16.101,36.398-32.551,64.047-32.551c40.25,0,66.499,28,66.499,73.151c0,31.15-16.101,63.001-41.999,77.351
		c55.648-5.95,86.447-26.95,95.898-73.851c1.749-7.7,6.299-11.55,12.6-11.55c5.249,0,10.85,3.85,10.85,11.55
		c0,1.4-0.351,2.8-0.701,4.55c-13.999,62.651-60.898,90.302-144.896,90.302c-31.849,0-57.749-6.65-72.448-25.2l-1.05,6.3
		c-2.101,12.601-10.5,15.4-16.1,15.4c-6.649,0-11.2-4.9-11.2-14.35L869.604,291.644z M877.653,484.497
		c-0.351,3.5-0.351,3.85-0.351,5.6c0,23.101,15.4,42.351,47.249,42.351c40.599,0,61.249-32.2,61.249-74.901
		c0-30.801-12.25-50.401-41.65-50.401c-29.398,0-60.547,28-64.398,59.851L877.653,484.497z"/>
	<path fill="#FFFFFF" d="M1098.85,417.295c10.5-13.65,24.15-23.8,39.199-28.351c5.601-1.75,11.9-3.15,18.9-3.15
		c7.35,0,11.899,2.1,17.85,8.05c10.148,10.15,22.049,18.55,43.748,18.55c37.1,0,54.949-28.351,104.998-28.351
		c6.65,0,11.898,3.5,11.898,11.9c0,7.7-5.248,11.2-11.898,11.2c-44.799,0-66.498,28-107.098,28
		c-26.25,0-46.898-10.851-61.598-25.901c-14.35,0-26.25,4.9-37.801,15.75c-11.898,11.55-22.049,29.4-24.498,54.951l-5.95,58.101
		c-1.05,8.75-5.95,14-13.3,14c-8.75,0-13.299-5.25-13.299-12.95l14-137.552c1.049-9.45,7.35-14,13.998-14
		c7.701,0,12.6,3.5,12.6,13.3L1098.85,417.295z"/>
	<path fill="#FFFFFF" d="M1386.893,490.447c-0.35,3.5-0.35,5.25-0.35,7.7c0,21.7,11.898,34.3,30.799,34.3
		c23.449,0,39.549-16.45,47.248-69.301c1.051-8.4,6.301-12.601,12.951-12.601c7.699,0,11.549,5.25,11.549,16.101
		c-6.65,57.051-30.449,88.901-72.447,88.901c-24.15,0-40.949-10.5-49.35-25.9c-15.75,18.2-38.148,25.9-60.549,25.9
		c-40.248,0-74.547-26.25-74.547-74.901c0-53.201,37.449-96.602,94.496-96.602c20.301,0,35.699,7,46.9,15.05
		c1.049-5.95,5.6-11.55,12.949-11.55c8.049,0,11.199,5.25,11.199,14.35L1386.893,490.447z M1366.594,447.046
		c0.35-3.5,0.35-5.6,0.35-7.7c0-9.8-2.801-14.7-9.449-20.3c-8.75-7.7-19.951-11.9-33.949-11.9c-36.4,0-62.998,30.8-62.998,70.701
		c0,35,19.598,54.601,48.297,54.601c17.85,0,29.4-4.9,39.9-16.45c7-7.7,11.199-18.9,13.299-34.3L1366.594,447.046z"/>
	<path fill="#FFFFFF" d="M1495.742,417.295c10.5-13.65,24.148-23.8,39.199-28.351c5.6-1.75,11.898-3.15,18.898-3.15
		c7.35,0,12.25,1.75,18.549,8.75c10.15,10.851,16.801,14.7,29.75,14.7c11.199,0,22.75-5.25,37.1-17.85
		c3.148-2.8,6.648-3.85,10.5-3.85c5.25,0,9.449,5.25,9.449,11.2c0,3.5-1.75,7.35-5.6,10.5c-11.551,9.8-28.35,23.451-52.148,23.451
		c-22.4,0-36.049-9.1-49.699-23.451c-14.35,0-26.25,4.9-37.799,15.75c-11.9,11.55-22.049,29.4-24.5,54.951l-5.949,58.101
		c-1.051,8.75-5.951,14-13.301,14c-8.748,0-13.299-5.25-13.299-12.95l14-137.552c1.049-9.45,7.35-14,14-14
		c7.699,0,12.6,3.5,12.6,13.3L1495.742,417.295z"/>
	<path fill="#FFFFFF" d="M1638.189,401.545c1.049-9.8,7.35-14,14.699-14c9.449,0,11.9,5.6,11.9,14l-9.1,82.951
		c-0.701,7.35-0.701,8.75-0.701,10.85c0,28.701,16.449,37.101,33.25,37.101c15.049,0,29.398-7.35,40.598-18.55
		c9.801-9.8,14.701-22.05,16.801-43.05l7.35-69.301c1.049-9.8,6.299-14,14.35-14c9.449,0,12.25,4.9,12.25,12.95l-15.4,143.152
		c14.35-6.3,27.65-13.65,53.549-28c3.5-2.1,5.949-2.45,7.699-2.45c6.301,0,10.5,4.55,10.5,10.15c0,3.85-2.799,8.4-8.049,11.2
		c-32.199,18.201-46.549,24.851-66.498,33.951l-3.5,32.901c-4.551,41.3-22.75,64.051-55.648,64.051c-24.85,0-42-16.8-42-40.25
		c0-34.651,31.5-51.801,76.299-70.001l2.449-21.35c-15.75,14.35-33.949,21.7-54.598,21.7c-26.949,0-55.299-16.8-55.299-57.051
		c0-2.8,0-5.25,0.35-9.1L1638.189,401.545z M1730.938,607.349l2.799-27.65c-29.398,12.6-49.348,25.551-49.348,44.101
		c0,11.2,7.35,18.55,18.898,18.55C1719.387,642.35,1728.836,628.349,1730.938,607.349z"/>
	<path d="M368.594,681.044c1.049-9.1,6.649-14,15.749-14h76.298c47.249,0,67.898,27.301,67.898,60.901
		c0,39.9-33.249,66.501-79.798,66.501h-4.55c6.649,38.151,34.999,70.702,62.998,91.352c5.95,4.55,7.699,8.75,7.699,13.3
		c0,8.4-5.949,14.7-14.35,14.7c-3.85,0-7.35-1.4-10.85-3.85c-40.598-27.651-65.447-68.602-76.297-115.502h-28l-11.199,103.602
		c-1.051,8.75-6.65,14-14.35,14c-9.45,0-14.35-4.9-14.35-15.75L368.594,681.044z M450.491,769.245
		c28.349,0,49.349-11.9,49.349-40.951c0-22.05-11.9-36.05-41.648-36.05h-62.299l-7.699,77.001H450.491z"/>
	<path d="M606.238,887.897c9.1,2.8,19.599,4.55,31.849,4.55c29.399,0,52.849-6.3,72.099-22.4
		c13.648-11.2,26.248-30.101,31.498-56.701c1.4-7.35,6.65-10.5,12.25-10.5c6.65,0,13.65,4.9,13.65,12.601
		c0,1.399-0.351,2.45-0.701,3.851c-7.699,29.05-23.449,53.55-40.949,68.251c-24.498,20.65-57.047,28-88.197,28
		c-63.348,0-94.497-34.65-94.497-77.001c0-55.651,42.349-94.502,83.298-94.502c34.998,0,52.498,20.65,52.498,46.201
		C679.035,826.646,651.037,862.697,606.238,887.897z M584.538,874.947c41.999-19.25,67.198-52.15,67.198-81.202
		c0-16.1-9.8-26.6-27.648-26.6c-27.65,0-54.949,28-54.949,68.951C569.139,852.197,574.389,865.497,584.538,874.947z"/>
	<path d="M892.878,850.446c-0.351,3.501-0.351,5.251-0.351,7.7c0,21.701,11.9,34.301,30.8,34.301
		c23.449,0,39.55-16.45,47.249-69.301c1.051-8.4,6.301-12.601,12.949-12.601c7.7,0,11.55,5.251,11.55,16.101
		c-6.649,57.051-30.448,88.901-72.448,88.901c-24.148,0-40.949-10.5-49.349-25.9c-15.749,18.2-38.149,25.9-60.548,25.9
		c-40.25,0-74.549-26.25-74.549-74.901c0-53.201,37.449-96.602,94.498-96.602c20.299,0,35.699,7,46.898,15.05
		c1.051-5.95,5.6-11.55,12.949-11.55c8.051,0,11.2,5.25,11.2,14.35L892.878,850.446z M872.578,807.046c0.35-3.5,0.35-5.601,0.35-7.7
		c0-9.8-2.799-14.7-9.449-20.3c-8.75-7.7-19.949-11.9-33.949-11.9c-36.398,0-62.998,30.8-62.998,70.701
		c0,35,19.6,54.601,48.299,54.601c17.85,0,29.398-4.899,39.898-16.45c7-7.7,11.2-18.9,13.301-34.301L872.578,807.046z"/>
	<path d="M1121.074,858.146c-0.35,3.851-0.35,4.9-0.35,7.351c0,18.2,12.25,26.95,29.399,26.95c25.55,0,43.049-21.7,48.999-68.602
		c1.05-9.1,7.699-13.649,13.648-13.649c6.301,0,10.5,4.899,10.5,15.399c-6.299,53.552-30.449,89.952-74.197,89.952
		c-23.8,0-40.949-10.15-48.648-27.301c-17.15,20.65-38.149,27.301-64.749,27.301c-33.599,0-66.147-24.5-66.147-74.201
		c0-48.651,32.898-97.302,88.547-97.302c21.35,0,38.85,9.1,46.199,19.601l12.25-112.002c1.049-9.101,5.949-14,15.049-14
		c6.65,0,11.55,3.85,11.55,13.3L1121.074,858.146z M1099.025,813.696c0.35-4.2,0.35-5.25,0.35-7.7c0-8.4-1.75-15.05-7-21.351
		c-8.75-10.5-19.6-17.5-34.998-17.5c-35.35,0-59.85,34.65-59.85,72.102c0,33.25,16.1,53.2,45.149,53.2
		c17.149,0,31.149-8.05,39.899-18.2c8.75-9.8,11.549-17.15,12.949-30.801L1099.025,813.696z"/>
	<path d="M1205.424,760.845c0.699-6.65,5.25-13.3,13.299-13.3c8.4,0,12.6,3.5,12.6,13.3l-9.1,91.001c-0.35,3.5-0.35,4.9-0.35,7
		c0,19.251,9.449,33.601,28.35,33.601c25.898,0,41.648-17.5,47.6-69.301c1.049-9.45,6.998-14,12.949-14
		c6.648,0,12.25,5.25,12.25,16.449c-6.65,57.052-30.801,89.952-73.148,89.952c-28.35,0-54.6-15.05-54.6-54.601
		c0-2.45,0-3.851,0.701-11.2L1205.424,760.845z M1225.373,677.544c10.85,0,19.6,8.75,19.6,19.6s-8.75,19.601-19.6,19.601
		s-19.6-8.75-19.6-19.601S1214.523,677.544,1225.373,677.544z"/>
	<path d="M1412.967,795.846c0.35-3.15,0.35-4.2,0.35-6.3c0-15.4-7.35-22.4-22.398-22.4c-20.65,0-40.6,19.25-51.1,35.001
		c-8.4,12.949-16.799,30.45-19.6,57.4l-4.199,38.501c-1.051,8.75-5.6,14-14,14c-7,0-12.6-3.85-12.6-12.95l14-137.552
		c1.049-9.8,7.35-14,13.648-14c9.1,0,13.301,4.55,13.301,14.35l-2.451,24.851c12.951-23.1,40.25-42.701,68.25-42.701
		c31.148,0,43.748,17.15,43.748,42.701c0,2.8,0,4.55-0.35,8.75l-6.301,54.951c-0.35,3.851-0.35,4.9-0.35,7.351
		c0,22.051,11.9,34.65,30.799,34.65c21.699,0,39.199-16.45,47.25-69.301c1.398-8.4,5.949-12.601,12.248-12.601
		c8.75,0,12.951,5.251,12.951,15.751c-7.35,55.301-31.15,89.251-73.148,89.251c-40.949,0-55.998-28-55.998-56.351
		c0-2.801,0-4.2,0.35-8.4L1412.967,795.846z"/>
	<path d="M1656.561,931.998c-7.35,65.102-37.799,93.452-75.598,93.452c-26.6,0-44.1-18.551-44.1-42.352
		c0-39.2,37.449-61.95,94.498-70.701l2.449-19.95c-15.049,11.2-31.498,18.2-52.848,18.2c-37.1,0-71.049-24.5-71.049-73.851
		c0-47.951,31.15-92.752,87.148-92.752c21.699,0,39.898,9.45,49.348,24.851l1.4-8.05c1.051-7.35,5.949-13.3,14.35-13.3
		c8.051,0,11.9,3.85,11.9,12.6l-15.051,146.653c20.301-7,32.9-17.5,50.049-34.301c3.15-3.15,6.65-4.2,9.801-4.2
		c6.648,0,11.549,5.25,11.549,11.9c0,3.851-1.4,6.65-4.549,10.15C1708.01,908.897,1687.01,924.998,1656.561,931.998z
		 M1641.861,819.646c0.35-4.2,0.35-5.25,0.35-7.7c0-27.301-19.25-44.801-48.648-44.801c-32.199,0-55.648,31.15-55.648,66.851
		c0,37.101,18.898,53.552,49.699,53.552c15.049,0,26.598-4.2,36.748-14.001c9.449-8.75,12.949-16.8,14.35-28.351L1641.861,819.646z
		 M1628.211,936.548c-46.549,7.351-65.447,26.251-65.447,45.852c0,11.55,7.35,19.95,19.248,19.95
		C1605.111,1002.35,1621.211,977.149,1628.211,936.548z"/>
	<path d="M1888.605,727.945c0-37.801,25.898-64.401,63.697-64.401c35.35,0,54.6,23.101,54.6,49.701
		c0,35.351-27.299,58.451-61.6,70.001c-3.148,1.05-6.299,2.1-9.1,3.5c13.301,24.151,32.199,47.25,54.25,65.801
		c9.799-13.3,19.6-30.101,29.049-49.001c2.1-5.25,7-8.4,11.9-8.4c7.699,0,13.299,4.55,13.299,11.549c0,3.501-1.051,5.951-2.1,8.4
		c-10.5,21.001-21,38.852-32.199,53.201c11.199,7.351,17.148,11.2,25.898,15.751c8.4,4.199,11.551,8.399,11.551,15.05
		c0,9.101-5.6,14.7-14,14.7c-3.15,0-7.35-0.7-11.199-2.8c-11.201-6.301-20.65-12.25-32.551-20.65
		c-19.248,16.8-41.299,25.2-70.348,25.2c-39.549,0-68.248-25.9-68.248-66.151c0-30.801,15.4-54.601,48.299-72.801
		C1892.805,759.795,1888.605,744.395,1888.605,727.945z M1910.654,798.996c-19.25,11.9-30.449,24.85-30.449,47.95
		c0,27.651,17.85,43.401,42.35,43.401c18.549,0,34.299-5.601,48.299-17.15C1947.754,852.197,1925.705,826.297,1910.654,798.996z
		 M1932.354,762.945c35.699-11.55,46.549-24.15,46.549-46.901c0-16.8-10.148-28.351-28.35-28.351
		c-17.85,0-32.898,15.4-32.898,37.451c0,15.05,3.15,26.601,8.4,39.901L1932.354,762.945z"/>
	<path d="M595.917,1045.244c-0.351-2.45-0.351-2.8-0.351-4.2c0-8.75,6.65-14,14-14c6.65,0,12.6,3.85,14,12.6l29.748,182.004
		l72.1-181.304c3.5-9.101,10.499-13.3,17.499-13.3c8.05,0,13.649,4.55,15.749,14l36.75,180.604l67.548-183.054
		c3.149-8.75,8.05-11.55,13.999-11.55c8.051,0,14,6.3,14,13.3c0,1.75-0.35,3.851-1.4,6.65l-80.498,210.354
		c-3.85,10.15-10.499,14.7-18.199,14.7c-8.75,0-14.699-4.2-16.799-15.4l-35.35-179.903l-72.798,180.953
		c-3.851,9.801-10.85,14.351-18.899,14.351c-8.051,0-14-4.9-15.75-15.75L595.917,1045.244z"/>
	<path d="M934.705,1137.296c10.499-13.65,24.148-23.801,39.198-28.351c5.601-1.75,11.899-3.15,18.899-3.15
		c7.35,0,12.25,1.75,18.549,8.75c10.15,10.851,16.801,14.7,29.75,14.7c11.199,0,22.75-5.25,37.1-17.85
		c3.148-2.801,6.648-3.851,10.498-3.851c5.251,0,9.451,5.25,9.451,11.2c0,3.5-1.75,7.351-5.6,10.5
		c-11.551,9.801-28.35,23.45-52.148,23.45c-22.4,0-36.051-9.1-49.699-23.45c-14.35,0-26.25,4.9-37.799,15.751
		c-11.9,11.55-22.05,29.4-24.5,54.95l-5.949,58.102c-1.051,8.75-5.95,14-13.3,14c-8.75,0-13.3-5.25-13.3-12.95l14-137.553
		c1.049-9.45,7.35-14,13.999-14c7.7,0,12.601,3.5,12.601,13.3L934.705,1137.296z"/>
	<path d="M1077.502,1120.845c0.699-6.649,5.25-13.3,13.301-13.3c8.398,0,12.6,3.5,12.6,13.3l-9.102,91.002
		c-0.35,3.5-0.35,4.9-0.35,7c0,19.251,9.451,33.601,28.35,33.601c25.9,0,41.649-17.5,47.6-69.301c1.049-9.45,7-14,12.949-14
		c6.65,0,12.25,5.25,12.25,16.45c-6.65,57.051-30.799,89.951-73.148,89.951c-28.35,0-54.6-15.05-54.6-54.601
		c0-2.45,0-3.851,0.701-11.2L1077.502,1120.845z M1097.451,1037.544c10.85,0,19.6,8.75,19.6,19.601c0,10.85-8.75,19.6-19.6,19.6
		s-19.6-8.75-19.6-19.6C1077.852,1046.294,1086.602,1037.544,1097.451,1037.544z"/>
	<path d="M1178.998,1088.295h-22.4c-7.699,0-12.248-4.551-12.248-11.2c0-7.351,5.248-11.9,15.049-11.9h22.399l2.8-25.2
		c0.7-6.65,5.25-12.95,14-12.95s12.6,5.25,12.6,12.95l-2.801,25.2h47.25c7.699,0,12.25,4.2,12.25,11.2s-5.25,11.9-15.051,11.9
		h-47.248l-12.95,123.552c-0.35,4.9-0.35,5.95-0.35,8.4c0,22.05,10.499,32.2,29.749,32.2c21,0,47.248-18.55,53.549-69.301
		c1.049-9.45,7-12.95,12.6-12.95s11.549,3.85,11.549,12.6c0,0.7-0.35,2.801-0.35,2.801c-6.299,55.65-40.248,89.951-81.547,89.951
		c-26.6,0-52.149-16.101-52.149-56.001c0-3.15,0.351-7,0.7-10.851L1178.998,1088.295z"/>
	<path d="M1282.24,1120.845c0.701-6.649,5.25-13.3,13.301-13.3c8.4,0,12.6,3.5,12.6,13.3l-9.1,91.002c-0.35,3.5-0.35,4.9-0.35,7
		c0,19.251,9.449,33.601,28.348,33.601c25.9,0,41.65-17.5,47.6-69.301c1.051-9.45,7-14,12.949-14c6.65,0,12.25,5.25,12.25,16.45
		c-6.65,57.051-30.799,89.951-73.148,89.951c-28.35,0-54.598-15.05-54.598-54.601c0-2.45,0-3.851,0.699-11.2L1282.24,1120.845z
		 M1302.191,1037.544c10.85,0,19.6,8.75,19.6,19.601c0,10.85-8.75,19.6-19.6,19.6s-19.6-8.75-19.6-19.6
		C1282.592,1046.294,1291.342,1037.544,1302.191,1037.544z"/>
	<path d="M1489.783,1155.846c0.352-3.15,0.352-4.2,0.352-6.3c0-15.4-7.35-22.4-22.4-22.4c-20.648,0-40.6,19.25-51.098,35
		c-8.4,12.95-16.801,30.451-19.6,57.401l-4.201,38.501c-1.049,8.75-5.6,14-13.998,14c-7,0-12.602-3.85-12.602-12.95l14-137.553
		c1.051-9.8,7.35-14,13.65-14c9.1,0,13.299,4.55,13.299,14.351l-2.449,24.851c12.949-23.101,40.248-42.701,68.248-42.701
		c31.148,0,43.748,17.15,43.748,42.701c0,2.8,0,4.55-0.35,8.75l-6.299,54.95c-0.35,3.851-0.35,4.9-0.35,7.351
		c0,22.051,11.898,34.65,30.799,34.65c21.699,0,39.199-16.45,47.248-69.301c1.4-8.4,5.949-12.601,12.25-12.601
		c8.75,0,12.949,5.25,12.949,15.75c-7.35,55.302-31.148,89.252-73.148,89.252c-40.949,0-55.998-28-55.998-56.351
		c0-2.801,0-4.2,0.35-8.4L1489.783,1155.846z"/>
	<path d="M1733.379,1291.998c-7.352,65.102-37.801,93.452-75.6,93.452c-26.6,0-44.098-18.551-44.098-42.352
		c0-39.2,37.449-61.95,94.496-70.701l2.451-19.95c-15.051,11.2-31.5,18.2-52.85,18.2c-37.098,0-71.047-24.5-71.047-73.851
		c0-47.951,31.148-92.752,87.146-92.752c21.699,0,39.9,9.45,49.35,24.851l1.4-8.051c1.049-7.35,5.949-13.3,14.35-13.3
		c8.049,0,11.898,3.851,11.898,12.601l-15.049,146.652c20.299-7,32.898-17.5,50.049-34.301c3.15-3.15,6.65-4.2,9.799-4.2
		c6.65,0,11.551,5.25,11.551,11.9c0,3.851-1.4,6.65-4.551,10.15C1784.826,1268.897,1763.828,1284.998,1733.379,1291.998z
		 M1718.678,1179.646c0.352-4.2,0.352-5.25,0.352-7.7c0-27.301-19.25-44.801-48.65-44.801c-32.199,0-55.648,31.15-55.648,66.851
		c0,37.101,18.9,53.552,49.699,53.552c15.049,0,26.6-4.2,36.75-14.001c9.449-8.75,12.949-16.8,14.35-28.351L1718.678,1179.646z
		 M1705.029,1296.548c-46.549,7.351-65.449,26.251-65.449,45.852c0,11.55,7.35,19.95,19.25,19.95
		C1681.93,1362.35,1698.029,1337.149,1705.029,1296.548z"/>
</g>
</svg>
