<?xml version="1.0" encoding="utf-8"?>
<!-- Generator: Adobe Illustrator 16.0.0, SVG Export Plug-In . SVG Version: 6.00 Build 0)  -->
<!DOCTYPE svg PUBLIC "-//W3C//DTD SVG 1.1//EN" "http://www.w3.org/Graphics/SVG/1.1/DTD/svg11.dtd">
<svg version="1.1" id="Layer_1" xmlns="http://www.w3.org/2000/svg" xmlns:xlink="http://www.w3.org/1999/xlink" x="0px" y="0px"
	 width="2400px" height="1600px" viewBox="0 0 2400 1600" enable-background="new 0 0 2400 1600" xml:space="preserve">
<path fill="#00B1EE" d="M-20-20v1640h2440V-20H-20z M56.172,1560C47.24,1560,40,1552.758,40,1543.826
	c0-8.933,7.24-16.172,16.172-16.172c8.932,0,16.173,7.239,16.173,16.172C72.345,1552.758,65.105,1560,56.172,1560z M56.172,72.346
	C47.24,72.346,40,65.104,40,56.172C40,47.239,47.24,40,56.172,40c8.932,0,16.173,7.239,16.173,16.172
	C72.345,65.104,65.105,72.346,56.172,72.346z M2343.827,1560c-8.933,0-16.172-7.242-16.172-16.174
	c0-8.933,7.24-16.172,16.172-16.172s16.173,7.239,16.173,16.172C2360,1552.758,2352.76,1560,2343.827,1560z M2343.827,72.346
	c-8.933,0-16.172-7.242-16.172-16.174c0-8.933,7.24-16.172,16.172-16.172S2360,47.239,2360,56.172
	C2360,65.104,2352.76,72.346,2343.827,72.346z"/>
<g>
	<path fill="#FFFFFF" d="M552.512,508.77c0-4.9,2.1-7,7-7h87.147c49.699,0,78.748,25.551,78.748,65.801
		c0,37.451-29.399,65.102-70.698,65.802l77.348,105.702c1.05,1.399,1.4,2.8,1.4,3.85c0,2.45-1.75,3.85-4.55,3.85h-33.249
		c-4.9,0-6.65-1.399-9.45-5.25L607.11,633.372h-16.1v106.401c0,4.9-2.1,7-7,7h-24.499c-4.9,0-7-2.1-7-7V508.77z M647.709,599.071
		c26.599,0,39.199-11.55,39.199-31.501c0-19.949-12.6-31.5-39.199-31.5h-56.699v63.001H647.709z"/>
	<path fill="#FFFFFF" d="M746.063,664.522c0-52.851,36.05-85.751,85.748-85.751c49.699,0,85.748,32.9,85.748,85.751
		c0,56.701-39.199,85.751-85.748,85.751C785.262,750.273,746.063,721.224,746.063,664.522z M880.459,664.873
		c0-35.352-21.699-55.301-48.649-55.301c-26.949,0-48.649,19.949-48.649,55.301c0,32.2,18.2,54.601,48.649,54.601
		C862.26,719.474,880.459,697.073,880.459,664.873z"/>
	<path fill="#FFFFFF" d="M947.657,664.522c0-52.851,36.049-85.751,85.748-85.751s85.748,32.9,85.748,85.751
		c0,56.701-39.199,85.751-85.748,85.751S947.657,721.224,947.657,664.522z M1082.053,664.873c0-35.352-21.7-55.301-48.648-55.301
		c-26.949,0-48.649,19.949-48.649,55.301c0,32.2,18.2,54.601,48.649,54.601C1063.854,719.474,1082.053,697.073,1082.053,664.873z"/>
	<path fill="#FFFFFF" d="M1155.555,589.271c0-4.9,2.1-7,7-7h21.699c4.9,0,7,2.1,7,7v15.05c11.2-15.75,25.549-25.55,48.649-25.55
		c20.999,0,35.349,8.4,41.648,23.1c11.2-13.3,28.35-23.1,52.849-23.1c29.05,0,49.349,15.75,49.349,48.65v112.352c0,4.9-2.1,7-7,7
		h-21.699c-4.899,0-7-2.1-7-7V632.322c0-14.701-6.3-22.75-20.649-22.75c-10.499,0-20.299,4.899-28.699,15.049
		c-8.749,10.501-12.6,20.301-12.6,37.801v77.352c0,4.9-2.1,7-7,7h-21.699c-4.899,0-7-2.1-7-7V631.973c0-14.701-6.3-22.4-20.649-22.4
		c-9.8,0-19.949,5.6-27.299,15.049c-7.351,9.451-11.2,16.451-11.2,34.651v80.501c0,4.9-2.1,7-7,7h-21.699c-4.9,0-7-2.1-7-7V589.271z
		"/>
	<path fill="#FFFFFF" d="M1622.443,536.07h-115.146c-4.9,0-7-2.1-7-7V508.77c0-4.9,2.1-7,7-7h150.496c4.899,0,6.999,2.1,6.999,7
		v21.351c0,3.851-1.399,7.351-3.149,11.2l-84.348,199.153c-2.45,5.601-4.55,6.3-9.8,6.3h-28.35c-2.8,0-4.899-1.399-4.899-4.199
		c0-1.051,0.35-2.101,0.699-3.15L1622.443,536.07z"/>
	<path fill="#FFFFFF" d="M1753.339,617.972L1688.24,510.17c-1.05-1.75-1.4-2.801-1.4-4.2c0-2.45,1.75-4.2,5.25-4.2h28.699
		c5.6,0,7.35,1.051,10.149,5.25l44.449,74.201l44.799-74.201c2.8-4.199,4.55-5.25,10.149-5.25h28.699c3.5,0,5.25,1.75,5.25,4.2
		c0,1.399-0.35,2.45-1.399,4.2l-65.099,107.802l73.148,121.103c1.05,1.399,1.399,2.8,1.399,3.85c0,2.45-2.1,3.85-4.899,3.85h-30.8
		c-6.3,0-7.699-2.449-10.499-7l-50.749-85.051l-50.398,85.051c-2.8,4.551-4.2,7-10.5,7h-30.799c-2.8,0-4.9-1.399-4.9-3.85
		c0-1.05,0.351-2.45,1.4-3.85L1753.339,617.972z"/>
	<path d="M227.888,882.07c2.1-13.301,9.799-20.301,20.299-20.301c12.6,0,19.249,7,23.799,20.65l56.699,166.953l72.098-169.753
		c5.25-12.251,13.299-17.851,23.449-17.851c10.85,0,18.549,5.6,19.6,19.25l18.899,206.154c0,11.551-6.65,19.6-19.6,19.6
		c-11.55,0-19.949-7.35-21-19.25l-12.95-141.053l-59.848,142.453c-4.55,10.5-11.199,17.85-23.799,17.85
		c-11.9,0-19.6-8.75-22.75-18.199l-48.649-142.803l-22.75,142.102c-2.1,12.602-8.75,18.9-20.649,18.9c-11.2,0-17.85-7.35-17.85-17.5
		c0-1.4,0-2.1,0.35-4.199L227.888,882.07z"/>
	<path d="M652.434,1058.822c0,13.301,4.2,21.002,18.2,21.352c10.85,0.35,14.699,5.6,14.699,15.051
		c0,9.799-8.399,15.049-21.349,15.049c-18.2,0-29.399-6.299-36.749-19.6c-16.8,14.35-30.099,19.6-55.999,19.6
		c-43.399,0-78.398-28-78.398-78.4c0-55.651,35.699-93.102,90.297-93.102c32.199,0,55.999,15.05,65.798,27.65
		c6.3,8.4,8.4,14,8.4,18.9l-4.9,68.951V1058.822z M621.285,1001.072c0-8.051-1.05-14.351-9.1-21c-7.7-6.65-18.199-10.5-29.399-10.5
		c-30.1,0-52.849,24.15-52.849,59.85c0,32.201,18.549,50.051,42.699,50.051c16.45,0,27.299-4.898,36.399-14.699
		c6.65-7,8.75-16.451,9.8-28.352L621.285,1001.072z"/>
	<path d="M715.784,1059.523l4.55-86.451h-14.349c-11.55,0-18.549-4.551-18.549-15.4c0-10.851,7.35-15.4,20.649-15.4h13.649
		l2.1-37.451c0.7-13.65,8.75-19.25,18.2-19.25c12.25,0,17.5,7,17.5,19.25l-2.1,37.451h26.949c11.55,0,18.899,3.149,18.899,15.4
		c0,10.85-7.35,15.4-20.649,15.4h-26.949l-4.55,85.051c-0.7,14,5.25,21.35,16.449,21.35c6.65,0,11.2-2.799,16.8-2.799
		c8.05,0,13.3,5.25,13.3,14.699c0,7.701-4.55,13.65-13.3,16.102c-6.3,1.75-12.25,2.799-24.149,2.799
		c-26.599,0-44.449-12.25-44.449-45.15V1059.523z"/>
	<path d="M835.833,874.02c0.7-13.65,8.75-19.25,18.2-19.25c12.25,0,17.5,7,17.5,19.25l-4.9,91.352
		c15.049-15.05,33.949-26.6,62.298-26.6c29.049,0,51.099,16.449,51.099,49.351v4.2l-3.85,72.451c-0.35,7.35,0.7,10.85,7.35,13.301
		c6.649,2.449,9.449,6.648,9.449,12.6c0,10.15-7.699,16.1-20.999,16.1c-16.1,0-32.199-6.299-32.199-30.449v-3.15l4.2-77.002
		c0-16.801-7.35-26.6-25.199-26.6c-16.45,0-32.549,10.85-42.699,25.199c-6.65,9.451-12.25,23.102-13.3,40.602l-2.8,52.15
		c-0.7,13.65-8.75,19.25-18.2,19.25c-12.25,0-17.5-7-17.5-19.25L835.833,874.02z"/>
	<path d="M1099.028,1079.473c21.349,0,34.299-7.35,47.599-22.049c4.2-4.551,8.4-6.301,12.95-6.301c8.4,0,14.7,5.949,14.7,14.35
		c0,4.201-1.75,9.451-6.3,14.352c-19.25,21.699-41.999,30.449-73.498,30.449c-40.949,0-76.298-30.801-76.298-75.951
		c0-56.701,44.449-95.551,93.797-95.551c39.549,0,59.499,20.65,59.499,46.9c0,18.9-10.85,36.4-33.249,48.301
		c-18.199,9.801-45.849,16.801-81.198,18.9C1061.579,1068.273,1076.629,1079.473,1099.028,1079.473z M1136.127,987.771
		c0-10.5-7.7-18.199-23.099-18.199c-29.049,0-55.298,24.5-58.798,53.9C1099.728,1020.322,1136.127,1008.771,1136.127,987.771z"/>
	<path d="M1212.778,961.521c0.7-13.65,8.75-19.25,18.2-19.25c12.249,0,17.499,7,17.499,19.25v2.8
		c9.45-14.7,24.85-25.55,47.949-25.55c19.6,0,32.898,9.449,39.199,23.1c12.249-12.6,29.398-23.1,53.898-23.1
		c29.398,0,46.898,14.699,46.898,44.801v3.85l-4.2,77.352c-0.35,7.35,0.7,10.85,7.351,13.301c5.6,2.1,9.449,5.6,9.449,12.6
		c0,10.85-7.7,16.1-20.3,16.1c-17.499,0-32.898-7.699-32.898-33.6l4.55-80.852c-0.351-14-4.55-22.75-19.6-22.75
		c-9.8,0-18.899,4.899-27.999,15.049c-8.75,9.801-13.3,20.301-14.35,37.801l-3.851,65.102c-0.699,13.65-8.749,19.25-18.199,19.25
		c-12.25,0-17.5-7-17.5-19.25l5.25-95.551c0-15.051-6.3-22.4-19.6-22.4c-9.799,0-19.249,4.899-26.949,14.699
		c-6.999,8.75-11.899,18.9-12.6,35.001l-3.5,68.251c-0.699,13.65-8.749,19.25-18.199,19.25c-12.25,0-17.499-7-17.499-19.25
		L1212.778,961.521z"/>
	<path d="M1634.52,1058.822c0,13.301,4.2,21.002,18.199,21.352c10.85,0.35,14.7,5.6,14.7,15.051c0,9.799-8.4,15.049-21.35,15.049
		c-18.199,0-29.399-6.299-36.749-19.6c-16.8,14.35-30.1,19.6-55.999,19.6c-43.398,0-78.397-28-78.397-78.4
		c0-55.651,35.699-93.102,90.298-93.102c32.199,0,55.998,15.05,65.798,27.65c6.3,8.4,8.399,14,8.399,18.9l-4.899,68.951V1058.822z
		 M1603.37,1001.072c0-8.051-1.05-14.351-9.1-21c-7.699-6.65-18.199-10.5-29.399-10.5c-30.099,0-52.849,24.15-52.849,59.85
		c0,32.201,18.55,50.051,42.699,50.051c16.449,0,27.299-4.898,36.399-14.699c6.649-7,8.749-16.451,9.8-28.352L1603.37,1001.072z"/>
	<path d="M1697.869,1059.523l4.55-86.451h-14.35c-11.55,0-18.55-4.551-18.55-15.4c0-10.851,7.35-15.4,20.649-15.4h13.649
		l2.101-37.451c0.699-13.65,8.749-19.25,18.199-19.25c12.25,0,17.499,7,17.499,19.25l-2.1,37.451h26.949
		c11.55,0,18.899,3.149,18.899,15.4c0,10.85-7.35,15.4-20.649,15.4h-26.949l-4.55,85.051c-0.7,14,5.25,21.35,16.449,21.35
		c6.65,0,11.2-2.799,16.8-2.799c8.05,0,13.3,5.25,13.3,14.699c0,7.701-4.55,13.65-13.3,16.102c-6.3,1.75-12.25,2.799-24.149,2.799
		c-26.6,0-44.448-12.25-44.448-45.15V1059.523z"/>
	<path d="M1815.467,961.521c0.7-13.65,8.75-19.25,18.199-19.25c12.25,0,17.5,7,17.5,19.25l-5.601,103.252
		c-0.35,7.35,0.7,10.5,7.351,13.301c5.949,2.449,9.449,5.949,9.449,12.949c0,9.1-7.35,15.75-20.299,15.75
		c-18.55,0-32.899-7-32.899-33.6L1815.467,961.521z M1836.816,868.07c13.3,0,23.799,10.5,23.799,23.8s-10.499,23.8-23.799,23.8
		s-23.8-10.5-23.8-23.8S1823.517,868.07,1836.816,868.07z"/>
	<path d="M1976.116,938.771c24.85,0,44.449,6.649,59.498,18.199c5.95,4.551,8.05,9.801,8.05,14.701c0,10.15-6.3,16.8-15.749,16.8
		c-4.2,0-8.05-1.399-11.9-4.2c-10.499-7.699-23.449-14.699-39.198-14.699c-30.449,0-53.199,23.1-53.199,58.451
		c0,32.549,19.6,51.449,48.299,51.449c19.6,0,30.1-6.648,41.649-19.6c4.199-4.551,8.399-6.65,13.649-6.65
		c9.449,0,16.1,6.65,16.1,15.75c0,4.201-1.75,9.102-5.95,14c-17.499,20.65-40.948,27.301-67.548,27.301
		c-45.149,0-83.298-28.35-83.298-80.5C1886.519,977.271,1924.317,938.771,1976.116,938.771z"/>
	<path d="M2064.315,1064.072c0-8.75,6.3-17.148,17.5-17.148c6.649,0,11.899,3.148,16.1,8.75c12.6,17.15,25.549,23.799,42.349,23.799
		c13.649,0,24.149-5.949,24.149-18.199c0-14-12.6-18.9-39.549-26.951c-25.55-7.699-46.199-21-46.199-46.9
		c0-29.75,26.25-48.65,59.499-48.65c25.549,0,40.249,8.05,53.549,18.55c4.199,3.5,6.3,8.05,6.3,12.601
		c0,10.5-5.95,17.15-16.45,17.15c-3.85,0-8.05-1.75-10.85-3.851c-13.3-9.8-23.449-13.649-34.299-13.649s-21.699,4.899-21.699,15.049
		c0,9.801,10.85,16.102,33.249,22.4c32.549,9.102,52.498,22.051,52.498,50.402c0,32.9-27.999,52.85-62.298,52.85
		c-28.699,0-56.698-12.6-71.048-36.75C2065.366,1070.373,2064.315,1067.572,2064.315,1064.072z"/>
</g>
</svg>
