<?xml version="1.0" encoding="utf-8"?>
<!-- Generator: Adobe Illustrator 16.0.0, SVG Export Plug-In . SVG Version: 6.00 Build 0)  -->
<!DOCTYPE svg PUBLIC "-//W3C//DTD SVG 1.1//EN" "http://www.w3.org/Graphics/SVG/1.1/DTD/svg11.dtd">
<svg version="1.1" id="Layer_1" xmlns="http://www.w3.org/2000/svg" xmlns:xlink="http://www.w3.org/1999/xlink" x="0px" y="0px"
	 width="2400px" height="1600px" viewBox="0 0 2400 1600" enable-background="new 0 0 2400 1600" xml:space="preserve">
<g>
	<path fill="#00B1EE" d="M-20-20v800h1200V-20H-20z M55.827,739.346c-8.933,0-16.173-7.242-16.173-16.174
		c0-8.933,7.24-16.172,16.173-16.172S72,714.239,72,723.172C72,732.104,64.76,739.346,55.827,739.346z M55.827,72.346
		c-8.933,0-16.173-7.242-16.173-16.174c0-8.933,7.24-16.172,16.173-16.172S72,47.239,72,56.172
		C72,65.104,64.76,72.346,55.827,72.346z M1123.827,739.346c-8.933,0-16.173-7.242-16.173-16.174c0-8.933,7.24-16.172,16.173-16.172
		S1140,714.239,1140,723.172C1140,732.104,1132.76,739.346,1123.827,739.346z M1123.827,72.346c-8.933,0-16.173-7.242-16.173-16.174
		c0-8.933,7.24-16.172,16.173-16.172S1140,47.239,1140,56.172C1140,65.104,1132.76,72.346,1123.827,72.346z"/>
	<path fill="#00B1EE" d="M1220-20v800h1200V-20H1220z M1275.827,739.346c-8.933,0-16.173-7.242-16.173-16.174
		c0-8.933,7.24-16.172,16.173-16.172S1292,714.239,1292,723.172C1292,732.104,1284.76,739.346,1275.827,739.346z M1275.827,72.346
		c-8.933,0-16.173-7.242-16.173-16.174c0-8.933,7.24-16.172,16.173-16.172S1292,47.239,1292,56.172
		C1292,65.104,1284.76,72.346,1275.827,72.346z M2343.827,739.346c-8.933,0-16.173-7.242-16.173-16.174
		c0-8.933,7.24-16.172,16.173-16.172S2360,714.239,2360,723.172C2360,732.104,2352.76,739.346,2343.827,739.346z M2343.827,72.346
		c-8.933,0-16.173-7.242-16.173-16.174c0-8.933,7.24-16.172,16.173-16.172S2360,47.239,2360,56.172
		C2360,65.104,2352.76,72.346,2343.827,72.346z"/>
	<path fill="#00B1EE" d="M-20,820v800h1200V820H-20z M55.827,1560.346c-8.933,0-16.173-7.242-16.173-16.174
		c0-8.933,7.24-16.172,16.173-16.172S72,1535.239,72,1544.172C72,1553.104,64.76,1560.346,55.827,1560.346z M55.827,893.346
		c-8.933,0-16.173-7.242-16.173-16.174c0-8.933,7.24-16.172,16.173-16.172S72,868.239,72,877.172
		C72,886.104,64.76,893.346,55.827,893.346z M1123.827,1560.346c-8.933,0-16.173-7.242-16.173-16.174
		c0-8.933,7.24-16.172,16.173-16.172s16.173,7.239,16.173,16.172C1140,1553.104,1132.76,1560.346,1123.827,1560.346z
		 M1123.827,893.346c-8.933,0-16.173-7.242-16.173-16.174c0-8.933,7.24-16.172,16.173-16.172S1140,868.239,1140,877.172
		C1140,886.104,1132.76,893.346,1123.827,893.346z"/>
	<path fill="#00B1EE" d="M1220,820v800h1200V820H1220z M1275.827,1560.346c-8.933,0-16.173-7.242-16.173-16.174
		c0-8.933,7.24-16.172,16.173-16.172s16.173,7.239,16.173,16.172C1292,1553.104,1284.76,1560.346,1275.827,1560.346z
		 M1275.827,893.346c-8.933,0-16.173-7.242-16.173-16.174c0-8.933,7.24-16.172,16.173-16.172S1292,868.239,1292,877.172
		C1292,886.104,1284.76,893.346,1275.827,893.346z M2343.827,1560.346c-8.933,0-16.173-7.242-16.173-16.174
		c0-8.933,7.24-16.172,16.173-16.172s16.173,7.239,16.173,16.172C2360,1553.104,2352.76,1560.346,2343.827,1560.346z
		 M2343.827,893.346c-8.933,0-16.173-7.242-16.173-16.174c0-8.933,7.24-16.172,16.173-16.172S2360,868.239,2360,877.172
		C2360,886.104,2352.76,893.346,2343.827,893.346z"/>
</g>
<g>
	<g>
		<path d="M209.554,296.246c1.051-20.65,10.501-27.65,28.351-27.65h68.602c53.9,0,82.251,30.799,82.251,72.801
			c0,46.9-31.15,79.102-88.551,79.102h-51.802l-3.5,68.602c-0.699,12.949-6.3,24.5-24.15,24.5c-15.399,0-21.35-9.451-21.35-24.5
			L209.554,296.246z M301.256,377.797c24.15,0,42.001-9.451,42.001-35c0-21.352-12.601-31.502-38.501-31.502h-50.751l-3.5,66.502
			H301.256z"/>
		<path d="M430.054,293.096c0.7-12.951,6.3-24.5,24.15-24.5c15.4,0,21.351,9.449,21.351,24.5l-9.45,177.803h99.401
			c18.551,0,23.801,11.199,23.801,21.35c0,11.201-7.7,21.352-28.351,21.352H445.804c-19.95,0-26.25-11.9-26.25-30.102
			L430.054,293.096z"/>
		<path d="M760.45,451.299h-79.801l-17.501,43.75c-6.649,16.1-16.45,18.551-23.45,18.551c-12.95,0-23.101-8.75-23.101-21.701
			c0-4.199,1.05-8.75,3.15-13.65l81.201-188.303c5.95-13.301,14-21.35,29.751-21.35c14.35,0,23.101,8.75,26.95,21l61.601,190.402
			c1.051,3.15,1.751,6.65,1.751,10.852c0,12.6-10.15,22.75-24.151,22.75c-12.95,0-20.3-9.102-23.45-19.602L760.45,451.299z
			 M697.799,408.598h50.052l-21.001-71.402L697.799,408.598z"/>
		<path d="M892.399,420.848l-57.052-116.553c-2.1-4.549-3.149-9.1-3.149-13.299c0-12.252,8.4-22.4,23.101-22.4
			c12.25,0,18.55,6.299,23.45,16.799l38.501,83.303l41.65-82.951c5.6-11.551,12.6-17.15,22.75-17.15
			c11.2,0,20.65,8.398,20.65,20.299c0,4.201-1.05,8.75-3.5,13.65l-95.901,192.504c-6.3,12.6-13.65,18.551-23.45,18.551
			c-11.2,0-20.65-8.75-20.65-21c0-4.551,1.399-9.801,4.55-15.752L892.399,420.848z"/>
	</g>
</g>
<g>
	<g>
		<path d="M1455.459,1131.295h-48.301c-18.551,0-23.801-11.199-23.801-21.699c0-10.852,7.7-21,28.351-21h140.002
			c18.551,0,23.801,11.199,23.801,21.35c0,11.199-7.7,21.35-28.351,21.35h-46.201l-9.1,177.805c-0.7,12.949-6.3,24.5-24.15,24.5
			c-15.4,0-21.351-9.451-21.351-24.5L1455.459,1131.295z"/>
		<path d="M1609.104,1290.898h14.351l8.05-159.604h-13.3c-18.551,0-23.801-11.199-23.801-21.699c0-10.852,7.7-21,28.351-21h69.651
			c18.551,0,23.801,11.199,23.801,21.35c0,11.199-7.7,21.35-28.351,21.35h-10.851l-8.05,159.604h16.8
			c18.551,0,23.801,11.199,23.801,21.35c0,11.201-7.7,21.352-28.351,21.352h-76.651c-18.55,0-23.801-11.201-23.801-21.701
			C1580.754,1301.049,1588.454,1290.898,1609.104,1290.898z"/>
		<path d="M1774.647,1114.145c3.15-17.85,12.601-25.549,26.251-25.549c12.601,0,20.3,7.35,24.851,21.35l53.9,158.203l66.852-158.203
			c6.3-14.701,14.7-21.35,26.601-21.35c15.4,0,23.45,9.449,24.851,24.85l17.15,192.154v3.85c0,16.799-10.501,24.15-22.4,24.15
			c-11.9,0-22.051-7-23.451-23.451l-11.2-117.951l-51.801,119.701c-6.65,15.4-16.1,21.701-30.101,21.701
			c-12.95,0-22.75-7.701-28-23.451l-41.301-119.352l-19.251,119.701c-2.1,12.602-9.1,23.102-25.55,23.102
			c-11.551,0-20.65-7-20.65-21.352c0-2.1,0.35-4.898,0.7-7.35L1774.647,1114.145z"/>
		<path d="M2060.593,1116.246c1.051-20.65,10.501-27.65,28.351-27.65h117.252c18.551,0,23.801,11.199,23.801,21.35
			c0,11.199-7.7,21.35-28.351,21.35h-96.602l-2.45,52.152h75.602c18.55,0,23.801,11.199,23.801,21.35
			c0,11.201-7.7,21.35-28.351,21.35h-73.502l-3.149,64.752h103.252c18.55,0,23.8,11.199,23.8,21.35
			c0,11.201-7.7,21.352-28.351,21.352h-119.002c-19.95,0-26.25-11.9-26.25-30.102L2060.593,1116.246z"/>
	</g>
</g>
<g>
	<g>
		<path fill="#FFFFFF" d="M121.88,1095.596c0-4.9,2.101-7,7-7h31.501c4.9,0,7,2.1,7,7v195.303h117.252c4.9,0,7,2.1,7,7v28.701
			c0,4.9-2.1,7-7,7H128.88c-4.899,0-7-2.1-7-7V1095.596z"/>
		<path fill="#FFFFFF" d="M322.428,1176.096c0-4.898,2.1-7,7-7h29.4c4.9,0,7,2.102,7,7v92.402c0,19.25,10.851,30.1,30.101,30.1
			c11.551,0,22.051-4.199,29.051-11.549c8.4-8.4,10.5-16.102,10.5-31.852v-79.102c0-4.898,2.101-7,7-7h29.401c4.899,0,7,2.102,7,7
			V1326.6c0,4.9-2.101,7-7,7h-29.401c-4.899,0-7-2.1-7-7v-3.852c-14.7,10.502-26.95,14.352-49.001,14.352
			c-40.601,0-64.051-25.201-64.051-64.752V1176.096z"/>
		<path fill="#FFFFFF" d="M522.277,1176.096c0-4.898,2.1-7,7-7h29.4c4.9,0,7,2.102,7,7v14.701
			c15.4-15.4,36.751-25.201,61.602-25.201c32.55,0,51.45,18.9,51.45,45.852V1326.6c0,4.9-2.1,7-7,7h-29.4c-4.9,0-7-2.1-7-7v-101.152
			c0-14.35-7.351-21.35-21.351-21.35c-16.45,0-29.4,9.799-37.101,22.049c-7.351,11.551-11.2,21.352-11.2,40.252v60.201
			c0,4.9-2.1,7-7,7h-29.4c-4.9,0-7-2.1-7-7V1176.096z"/>
		<path fill="#FFFFFF" d="M870.879,1298.949c1.051,1.049,1.75,2.449,1.75,3.85s-0.699,2.801-2.1,4.199
			c-21.351,22.752-41.65,30.102-68.951,30.102c-47.251,0-89.602-28.701-89.602-85.752c0-51.801,40.95-85.752,91.352-85.752
			c29.75,0,50.4,11.201,63.351,24.5c1.75,1.75,2.801,3.502,2.801,5.252c0,1.398-0.7,2.799-2.101,4.549l-17.15,21.352
			c-1.399,1.398-2.45,2.1-4.2,2.1s-3.149-0.701-4.55-2.1c-11.9-11.9-22.05-17.15-38.851-17.15c-24.851,0-45.851,18.199-45.851,47.6
			c0,28.352,19.95,46.9,45.501,46.9c15.05,0,28.351-5.6,40.25-18.549c1.4-1.4,2.45-2.102,4.2-2.102c1.4,0,2.801,0.701,4.2,2.102
			L870.879,1298.949z"/>
		<path fill="#FFFFFF" d="M902.377,1088.596c0-4.9,2.1-7,7-7h29.4c4.9,0,7,2.1,7,7v101.5c16.45-15.398,36.751-24.5,59.501-24.5
			c35.351,0,55.651,19.602,55.651,48.301V1326.6c0,4.9-2.101,7-7,7h-29.401c-4.899,0-7-2.1-7-7v-98.352
			c0-15.752-8.75-24.15-24.5-24.15c-15.4,0-28.351,9.799-36.051,22.049c-7.351,11.551-11.2,21.352-11.2,40.252v60.201
			c0,4.9-2.1,7-7,7h-29.4c-4.9,0-7-2.1-7-7V1088.596z"/>
	</g>
</g>
<g>
	<g>
		<path fill="#FFFFFF" d="M1346.603,275.596c0-4.9,2.101-7,7-7h89.252c44.801,0,73.151,23.1,73.151,60.201
			c0,23.1-11.9,38.85-25.551,48.65c28.701,11.9,45.852,31.85,45.852,65.451c0,38.15-29.401,70.701-82.252,70.701h-100.452
			c-4.899,0-7-2.1-7-7V275.596z M1430.954,363.797c22.751,0,37.801-5.951,37.801-26.25c0-20.301-15.05-26.252-37.801-26.252h-38.851
			v52.502H1430.954z M1445.305,470.898c31.15,0,42.7-13.301,42.7-32.201s-11.55-32.9-42.7-32.9h-53.201v65.102H1445.305z"/>
		<path fill="#FFFFFF" d="M1566.751,356.096c0-4.898,2.1-7,7-7h29.4c4.9,0,7,2.102,7,7v10.5c11.55-12.949,27.301-21,49.001-21
			c32.551,0,52.851,21.352,52.851,52.152c0,4.898-2.45,7-7,7h-28.351c-3.85,0-4.9-1.4-5.6-5.602
			c-1.4-9.449-8.051-15.049-19.251-15.049c-11.899,0-20.65,5.949-26.95,13.299c-8.75,10.15-14.7,24.15-14.7,45.152V506.6
			c0,4.9-2.1,7-7,7h-29.4c-4.9,0-7-2.1-7-7V356.096z"/>
		<path fill="#FFFFFF" d="M1890.154,477.898c1.05,1.051,1.75,2.449,1.75,3.85s-0.7,2.801-2.101,4.201
			c-22.4,22.051-40.601,31.15-72.801,31.15c-45.501,0-86.802-30.451-86.802-85.752c0-52.15,39.9-85.752,85.401-85.752
			c57.401,0,83.302,44.102,83.302,84.002v10.5c0,4.9-2.101,7-7,7h-119.003c5.95,21.701,23.801,32.9,45.852,32.9
			c18.55,0,31.851-8.4,42.7-19.949c1.75-2.102,3.15-3.15,5.25-3.15c1.4,0,2.801,0.699,4.551,2.449L1890.154,477.898z
			 M1855.503,410.697c-5.6-17.85-20.3-28.701-40.25-28.701c-21.351,0-36.401,12.951-42.352,28.701H1855.503z"/>
		<path fill="#FFFFFF" d="M2058.155,499.6c-11.899,10.15-25.2,17.5-49,17.5c-44.102,0-83.302-27.65-83.302-85.752
			c0-54.25,38.851-85.752,84.352-85.752c22.05,0,35.7,5.951,47.601,16.801v-6.301c0-4.898,2.1-7,7-7h29.4c4.9,0,7,2.102,7,7V506.6
			c0,4.9-2.1,7-7,7h-24.851c-4.55,0-7-1.75-9.45-9.102L2058.155,499.6z M2057.806,420.848c0-10.85-2.45-18.201-9.8-25.201
			c-7.7-7.35-17.851-11.549-31.851-11.549c-24.15,0-45.501,17.85-45.501,47.25s20.3,47.25,44.801,47.25
			c14.35,0,26.601-5.6,33.95-14.699c5.95-8.051,8.4-13.65,8.4-24.852V420.848z"/>
		<path fill="#FFFFFF" d="M2143.902,268.596c0-4.9,2.1-7,7-7h29.4c4.9,0,7,2.1,7,7v124.602l37.801-39.201
			c2.45-2.799,5.95-4.9,9.45-4.9h43.4c2.8,0,4.2,1.4,4.2,3.5c0,1.051-0.35,2.451-1.4,3.5l-55.301,56.701l68.602,94.152
			c0.7,1.051,1.05,1.75,1.05,3.15c0,2.1-1.399,3.5-4.2,3.5h-43.051c-3.5,0-6.3-1.75-8.399-4.9l-45.852-63.002l-6.3,6.301V506.6
			c0,4.9-2.1,7-7,7h-29.4c-4.9,0-7-2.1-7-7V268.596z"/>
	</g>
</g>
</svg>
