<?xml version="1.0" encoding="utf-8"?>
<!-- Generator: Adobe Illustrator 16.0.0, SVG Export Plug-In . SVG Version: 6.00 Build 0)  -->
<!DOCTYPE svg PUBLIC "-//W3C//DTD SVG 1.1//EN" "http://www.w3.org/Graphics/SVG/1.1/DTD/svg11.dtd">
<svg version="1.1" id="Layer_1" xmlns="http://www.w3.org/2000/svg" xmlns:xlink="http://www.w3.org/1999/xlink" x="0px" y="0px"
	 width="2440px" height="1018px" viewBox="0 0 2440 1018" enable-background="new 0 0 2440 1018" xml:space="preserve">
<g>
	<path d="M0,0v1018h2440V0H0z"/>
	<g>
		<g>
			<g>
				<circle fill="#FFFFFF" cx="76.172" cy="76.173" r="16.173"/>
			</g>
			<g>
				<circle fill="#FFFFFF" cx="2363.827" cy="941.827" r="16.173"/>
			</g>
			<g>
				<circle fill="#FFFFFF" cx="2363.827" cy="76.173" r="16.173"/>
			</g>
			<g>
				<circle fill="#FFFFFF" cx="76.172" cy="941.827" r="16.173"/>
			</g>
		</g>
	</g>
</g>
<path fill="#FFFFFF" d="M399.786,418.719c0.35-4.9,7.7-4.201,7,0.699l-24.5,230.654h121.797c5.25,0,5.25,7,0,7H381.236
	c-2.8,0-6.65,0.35-5.95-5.95L399.786,418.719z"/>
<path fill="#FFFFFF" d="M722.131,657.072c-4.2,0-7-0.7-6.3-6.301l24.149-228.903c0.35-4.55,2.8-6.3,7-6.3h138.946c4.9,0,4.9,7,0,7
	H746.98l-10.85,102.201h106.397c4.9,0,4.9,7,0,7H735.431l-12.6,118.303h137.896c4.9,0,4.9,7,0,7H722.131z"/>
<path fill="#FFFFFF" d="M1249.572,652.172c1.4,5.25-5.6,7-6.999,1.75l-18.2-72.801h-111.297l-35.349,73.852
	c-2.1,4.199-8.4,1.399-5.95-3.5l112.347-233.104c1.75-3.851,5.95-3.5,7,0.351L1249.572,652.172z M1116.576,574.121h106.047
	l-36.049-144.902L1116.576,574.121z"/>
<path fill="#FFFFFF" d="M1463.771,421.868c0.351-6.649,4.2-6.3,8.05-6.3h78.748c55.299,0,70.698,30.801,68.599,58.801
	c-2.45,32.9-22.05,57.751-78.048,57.751h-16.1c9.8,57.401,37.799,95.552,78.397,119.702c5.25,2.8,1.4,9.1-3.5,6.3
	c-42.349-25.2-72.447-65.451-82.247-126.002h-58.449l-12.949,121.802c-0.35,4.9-7.7,4.551-7-0.699L1463.771,421.868z
	 M1459.922,525.12h81.198c50.748,0,68.598-19.95,70.698-51.451c1.75-25.2-11.55-51.101-61.249-51.101h-79.798L1459.922,525.12z"/>
<path fill="#FFFFFF" d="M1873.616,430.618l-23.799,223.304c-0.7,5.25-7.35,4.2-7-0.699l24.85-233.805c0.35-4.55,5.25-5.25,7.35-1.4
	l125.997,224.004l23.799-223.303c0.351-4.9,7.35-4.551,7,0.699l-24.85,233.454c-0.7,5.25-4.899,5.601-7,2.101L1873.616,430.618z"/>
<g>
	<polygon fill="#FFDD00" points="311.588,353.268 323.138,348.717 350.087,375.668 357.437,405.068 328.038,397.718 
		301.088,370.768 305.638,359.217 	"/>
	<path fill="#FFDD00" d="M303.888,522.67c0-1.4,0.35-2.1,1.75-2.1h8.75v-31.501l-5.95,4.899c0,0-1.05,1.051-2.1-0.35l-1.75-2.1
		c-0.7-1.051,0-1.75,0.35-2.1l8.4-6.65c1.05-0.7,1.4-1.051,2.8-1.051h2.45c1.4,0,1.75,0.701,1.75,2.101v36.751h9.45
		c1.4,0,1.75,0.699,1.75,2.1v1.05c0,1.4-0.35,2.101-1.75,2.101h-24.149c-1.4,0-1.75-0.7-1.75-2.101V522.67z"/>
	<path d="M324.538,387.567c2.1,2.101,4.9,1.75,6.3,0.351c1.4-1.4,1.75-4.201-0.35-6.301l-20.299-20.301l-3.5,8.4L324.538,387.567z"
		/>
	<path d="M333.987,378.117c2.1,2.1,4.9,1.75,6.3,0.35c1.4-1.399,1.75-4.199-0.35-6.299l-17.85-17.852l-8.4,3.5L333.987,378.117z"/>
	<path d="M330.487,392.818l14,3.85l4.55-4.551l-3.85-14c0,4.2-4.2,6.65-8.05,6.65C337.487,392.468,330.487,392.818,330.487,392.818z
		"/>
	<path fill="#FFDD00" d="M353.587,568.521c-2.45,2.101-4.55,2.101-6.65-0.35l-12.95-16.101c-3.5-4.55,2.1-9.1,5.6-4.55l8.05,10.5
		l7.35-68.601c0.7-5.601,7.7-4.551,7.35,0.35l-7.35,68.951l10.15-8.4c4.55-3.15,8.4,2.45,4.55,5.6L353.587,568.521z"/>
	<path fill="#FFDD00" d="M371.086,405.768c7,0,13.3,5.95,13.3,13.301c0,7.35-6.3,13.3-13.3,13.3c-7,0-13.3-5.95-13.3-13.3
		C357.787,411.718,364.087,405.768,371.086,405.768z"/>
	<path fill="#FFDD00" d="M476.084,683.322c2.1,2.101,2.1,4.201,0,6.301l-14.7,14.7c-3.85,3.851-8.4-1.4-4.9-4.9l9.45-9.45h-60.199
		c-5.25,0-5.25-7,0-7h60.199l-9.45-9.45c-3.85-3.851,1.4-8.399,4.9-4.899L476.084,683.322z"/>
	<path fill="#FFDD00" d="M436.535,628.021c0-1.05,0.35-1.75,1.05-2.449l15.75-15.4c3.15-3.15,4.55-6.65,4.55-10.15
		c0-4.551-3.5-7.351-8.05-7.351c-4.9,0-7.7,3.501-9.1,7.351c-0.35,1.05-1.05,1.05-2.1,0.699l-2.45-1.049
		c-0.7-0.351-1.05-0.701-0.7-1.75c1.75-4.9,6.65-10.501,14.7-10.501c8.399,0,13.649,5.95,13.649,11.55
		c0,5.951-2.1,10.501-6.3,14.701l-13.649,13.3h19.599c1.4,0,1.75,0.7,1.75,2.101v1.049c0,1.4-0.35,2.101-1.75,2.101h-25.199
		c-1.4,0-1.75-0.7-1.75-2.101V628.021z"/>
	<path fill="#FFDD00" d="M535.932,653.572l11.55,11.551c3.15,3.149-1.75,8.049-4.9,4.899l-11.55-11.55l-11.55,11.55
		c-3.15,3.149-8.05-1.75-4.9-4.899l11.55-11.551l-11.55-11.551c-3.15-3.149,1.75-8.05,4.9-4.899l11.55,11.55l11.55-11.55
		c3.15-3.15,8.05,1.75,4.9,4.899L535.932,653.572z"/>
</g>
<g>
	<polygon fill="#FFDD00" points="653.533,353.268 665.083,348.717 692.032,375.668 699.382,405.068 669.982,397.718 
		643.033,370.768 647.583,359.217 	"/>
	<path fill="#FFDD00" d="M645.833,522.67c0-1.4,0.35-2.1,1.75-2.1h8.75v-31.501l-5.95,4.899c0,0-1.05,1.051-2.1-0.35l-1.75-2.1
		c-0.7-1.051,0-1.75,0.35-2.1l8.4-6.65c1.05-0.7,1.4-1.051,2.8-1.051h2.45c1.4,0,1.75,0.701,1.75,2.101v36.751h9.45
		c1.4,0,1.75,0.699,1.75,2.1v1.05c0,1.4-0.35,2.101-1.75,2.101h-24.149c-1.4,0-1.75-0.7-1.75-2.101V522.67z"/>
	<path d="M666.483,387.567c2.1,2.101,4.9,1.75,6.3,0.351c1.4-1.4,1.75-4.201-0.35-6.301l-20.299-20.301l-3.5,8.4L666.483,387.567z"
		/>
	<path d="M675.933,378.117c2.1,2.1,4.9,1.75,6.3,0.35c1.4-1.399,1.75-4.199-0.35-6.299l-17.85-17.852l-8.4,3.5L675.933,378.117z"/>
	<path d="M672.433,392.818l14,3.85l4.55-4.551l-3.85-14c0,4.2-4.2,6.65-8.05,6.65C679.433,392.468,672.433,392.818,672.433,392.818z
		"/>
	<path fill="#FFDD00" d="M695.532,568.521c-2.45,2.101-4.55,2.101-6.65-0.35l-12.95-16.101c-3.5-4.55,2.1-9.1,5.6-4.55l8.05,10.5
		l7.35-68.601c0.7-5.601,7.7-4.551,7.35,0.35l-7.35,68.951l10.149-8.4c4.55-3.15,8.4,2.45,4.55,5.6L695.532,568.521z"/>
	<path fill="#FFDD00" d="M713.032,405.768c7,0,13.299,5.95,13.299,13.301c0,7.35-6.3,13.3-13.299,13.3c-7,0-13.3-5.95-13.3-13.3
		C699.732,411.718,706.032,405.768,713.032,405.768z"/>
	<path fill="#FFDD00" d="M823.279,684.023c2.1,2.1,2.1,4.199,0,6.299l-14.7,14.701c-3.85,3.85-8.4-1.4-4.9-4.9l9.45-9.45h-60.198
		c-5.25,0-5.25-7,0-7h60.198l-9.45-9.45c-3.85-3.85,1.4-8.4,4.9-4.9L823.279,684.023z"/>
	<path fill="#FFDD00" d="M818.729,558.721c2.1,2.1,2.1,4.199,0,6.3l-14.699,14.7c-3.85,3.85-8.4-1.4-4.9-4.9l9.45-9.449H765.88
		c-5.25,0-5.25-7,0-7h42.699l-9.45-9.451c-3.85-3.85,1.4-8.4,4.9-4.899L818.729,558.721z"/>
	<path fill="#FFDD00" d="M763.78,744.574c0-1.051,0.35-1.75,0.7-2.451l14.35-26.25c0.7-1.05,1.4-1.4,2.45-1.4h2.8
		c1.05,0,1.75,0.701,1.05,2.101l-14.7,26.601h12.25v-12.6c0-1.4,0.7-1.75,2.1-1.75h1.75c1.4,0,2.1,0.35,2.1,1.75v12.6h5.6
		c1.4,0,1.75,0.7,1.75,2.1v1.051c0,1.399-0.35,2.1-1.75,2.1h-5.6v8.4c0,1.4-0.7,1.75-2.1,1.75h-1.75c-1.4,0-2.1-0.35-2.1-1.75v-8.4
		H765.53c-1.4,0-1.75-0.7-1.75-2.1V744.574z"/>
	<path fill="#FFDD00" d="M849.878,383.018c2.1,2.1,2.1,4.2,0,6.3l-14.7,14.7c-3.85,3.851-8.4-1.4-4.9-4.9l9.45-9.449H779.53
		c-5.25,0-5.25-7,0-7h60.198l-9.45-9.451c-3.85-3.85,1.4-8.399,4.9-4.899L849.878,383.018z"/>
	<path fill="#FFDD00" d="M784.78,494.67c0.7-0.351,1.4,0,1.75,0.699c1.75,3.15,4.2,6.301,9.799,6.301c4.55,0,8.75-3.15,8.75-8.75
		c0-6.301-4.2-9.801-10.15-9.801h-1.75c-0.7,0-1.05-0.35-1.05-1.4v-1.75c0-0.699,0-1.05,0.7-1.75l10.149-11.199H785.13
		c-0.7,0-1.05-0.701-1.05-1.4v-2.1c0-0.701,0.35-1.4,1.05-1.4h22.399c0.7,0,1.05,0.699,1.05,1.4v3.149c0,0.351,0,1.399-0.7,2.101
		l-9.1,9.8c8.4,1.75,12.25,6.3,12.25,14.351c0,7.699-6.65,14-14.7,14c-8.399,0-12.6-4.2-15.049-9.101c-0.35-0.7,0-1.399,0.7-1.75
		L784.78,494.67z"/>
	<path fill="#FFDD00" d="M794.58,352.217c0-1.05,0.35-1.75,1.05-2.449l15.75-15.4c3.15-3.15,4.55-6.65,4.55-10.15
		c0-4.551-3.5-7.351-8.05-7.351c-4.9,0-7.7,3.5-9.1,7.351c-0.35,1.05-1.05,1.05-2.1,0.699l-2.45-1.05c-0.7-0.35-1.05-0.7-0.7-1.75
		c1.75-4.899,6.65-10.5,14.7-10.5c8.4,0,13.65,5.95,13.65,11.55c0,5.951-2.1,10.5-6.3,14.701l-13.649,13.3h19.6
		c1.4,0,1.75,0.7,1.75,2.101v1.049c0,1.4-0.35,2.101-1.75,2.101h-25.2c-1.4,0-1.75-0.7-1.75-2.101V352.217z"/>
	<path fill="#FFDD00" d="M891.177,653.572l11.55,11.551c3.15,3.149-1.75,8.049-4.9,4.899l-11.55-11.55l-11.549,11.55
		c-3.15,3.149-8.05-1.75-4.9-4.899l11.549-11.551l-11.549-11.551c-3.15-3.149,1.75-8.05,4.9-4.899l11.549,11.55l11.55-11.55
		c3.15-3.15,8.05,1.75,4.9,4.899L891.177,653.572z"/>
</g>
<g>
	<polygon fill="#FFDD00" points="986.029,587.771 997.579,583.221 1024.528,610.172 1031.878,639.572 1002.479,632.222 
		975.53,605.271 980.08,593.721 	"/>
	<path d="M998.979,622.072c2.1,2.1,4.9,1.75,6.3,0.35s1.75-4.2-0.35-6.301l-20.299-20.3l-3.5,8.399L998.979,622.072z"/>
	<path d="M1004.929,627.322l14,3.85l4.55-4.551l-3.85-14c0,4.201-4.2,6.65-8.05,6.65
		C1011.929,626.972,1004.929,627.322,1004.929,627.322z"/>
	<path fill="#FFDD00" d="M1026.278,574.471c0-1.4,0.35-2.1,1.75-2.1h8.75V540.87l-5.95,4.9c0,0-1.05,1.05-2.1-0.351l-1.75-2.1
		c-0.7-1.05,0-1.75,0.35-2.1l8.4-6.65c1.05-0.7,1.4-1.051,2.8-1.051h2.45c1.4,0,1.75,0.701,1.75,2.101v36.751h9.45
		c1.4,0,1.75,0.699,1.75,2.1v1.051c0,1.399-0.35,2.1-1.75,2.1h-24.149c-1.4,0-1.75-0.7-1.75-2.1V574.471z"/>
	<path fill="#FFDD00" d="M1045.528,640.271c7,0,13.3,5.951,13.3,13.301s-6.3,13.301-13.3,13.301c-7,0-13.3-5.951-13.3-13.301
		S1038.528,640.271,1045.528,640.271z"/>
	<path fill="#FFDD00" d="M1110.276,491.869c2.8-1.05,4.9,0,5.95,2.801l7,18.9c1.75,4.899-4.9,7.35-6.65,2.449l-4.55-12.6
		l-29.399,62.301c-2.45,4.55-8.4,1.4-6.3-3.15l29.749-62.301l-13.299,4.9c-4.55,1.75-7-4.551-2.1-6.301L1110.276,491.869z"/>
	<path fill="#FFDD00" d="M1201.274,611.222c2.1,2.1,2.1,4.2,0,6.3l-14.7,14.7c-3.85,3.851-8.4-1.399-4.9-4.899l9.45-9.451h-60.198
		c-5.25,0-5.25-7,0-7h60.198l-9.45-9.449c-3.85-3.851,1.4-8.4,4.9-4.9L1201.274,611.222z"/>
	<path fill="#FFDD00" d="M1144.575,675.973c0.7-0.35,1.4,0,1.75,0.7c1.75,3.149,4.2,6.3,9.8,6.3c4.55,0,8.75-3.15,8.75-8.75
		c0-6.301-4.2-9.801-10.15-9.801h-1.75c-0.7,0-1.05-0.35-1.05-1.399v-1.75c0-0.7,0-1.05,0.7-1.75l10.15-11.2h-17.85
		c-0.7,0-1.05-0.7-1.05-1.4v-2.1c0-0.7,0.35-1.4,1.05-1.4h22.399c0.7,0,1.05,0.7,1.05,1.4v3.15c0,0.35,0,1.399-0.7,2.1l-9.1,9.8
		c8.4,1.751,12.25,6.3,12.25,14.351c0,7.7-6.65,14-14.7,14c-8.4,0-12.6-4.199-15.05-9.1c-0.35-0.7,0-1.4,0.7-1.75L1144.575,675.973z
		"/>
	<path fill="#FFDD00" d="M1203.024,386.518c0-1.05,0.35-1.75,1.05-2.45l15.75-15.4c3.15-3.149,4.55-6.649,4.55-10.149
		c0-4.551-3.5-7.351-8.05-7.351c-4.899,0-7.699,3.5-9.1,7.351c-0.35,1.049-1.05,1.049-2.1,0.699l-2.45-1.05
		c-0.7-0.351-1.05-0.7-0.7-1.75c1.75-4.899,6.65-10.5,14.7-10.5c8.399,0,13.649,5.95,13.649,11.55c0,5.95-2.101,10.5-6.3,14.701
		l-13.649,13.3h19.599c1.4,0,1.75,0.7,1.75,2.1v1.05c0,1.4-0.35,2.101-1.75,2.101h-25.199c-1.4,0-1.75-0.7-1.75-2.101V386.518z"/>
	<path fill="#FFDD00" d="M1221.573,477.869c-4.2-2.45-0.7-8.4,3.5-5.6l11.899,7.35l-17.149-67.201c-1.05-4.55,5.6-6.301,7-1.4
		l16.449,66.852l7-11.551c2.8-4.549,8.75-1.049,5.95,3.5l-10.5,17.15c-1.4,2.451-3.85,3.15-6.3,1.75L1221.573,477.869z"/>
	<path fill="#FFDD00" d="M1265.322,575.871l11.55,11.55c3.149,3.15-1.75,8.05-4.9,4.9l-11.55-11.55l-11.55,11.55
		c-3.149,3.149-8.049-1.75-4.899-4.9l11.55-11.55l-11.55-11.551c-3.149-3.15,1.75-8.05,4.899-4.9l11.55,11.551l11.55-11.551
		c3.15-3.149,8.05,1.75,4.9,4.9L1265.322,575.871z"/>
	<path d="M1008.429,612.621c2.1,2.101,4.9,1.75,6.3,0.351c1.4-1.4,1.75-4.2-0.35-6.3l-17.85-17.851l-8.4,3.5L1008.429,612.621z"/>
</g>
<g>
	<polygon fill="#FFDD00" points="1377.324,353.268 1388.874,348.717 1415.823,375.668 1423.173,405.068 1393.773,397.718 
		1366.824,370.768 1371.374,359.217 	"/>
	<path fill="#FFDD00" d="M1369.624,522.67c0-1.4,0.351-2.1,1.75-2.1h8.75v-31.501l-5.95,4.899c0,0-1.05,1.051-2.1-0.35l-1.75-2.1
		c-0.7-1.051,0-1.75,0.351-2.1l8.399-6.65c1.05-0.7,1.399-1.051,2.8-1.051h2.45c1.399,0,1.75,0.701,1.75,2.101v36.751h9.449
		c1.4,0,1.75,0.699,1.75,2.1v1.05c0,1.4-0.35,2.101-1.75,2.101h-24.149c-1.399,0-1.75-0.7-1.75-2.101V522.67z"/>
	<path d="M1390.273,387.567c2.101,2.101,4.9,1.75,6.3,0.351c1.4-1.4,1.75-4.201-0.35-6.301l-20.3-20.301l-3.499,8.4
		L1390.273,387.567z"/>
	<path d="M1399.724,378.117c2.1,2.1,4.899,1.75,6.3,0.35c1.4-1.399,1.75-4.199-0.35-6.299l-17.85-17.852l-8.4,3.5L1399.724,378.117z
		"/>
	<path d="M1396.224,392.818l14,3.85l4.55-4.551l-3.851-14c0,4.2-4.199,6.65-8.05,6.65
		C1403.224,392.468,1396.224,392.818,1396.224,392.818z"/>
	<path fill="#FFDD00" d="M1419.323,568.521c-2.45,2.101-4.55,2.101-6.65-0.35l-12.949-16.101c-3.5-4.55,2.1-9.1,5.6-4.55l8.05,10.5
		l7.35-68.601c0.7-5.601,7.7-4.551,7.351,0.35l-7.351,68.951l10.15-8.4c4.55-3.15,8.399,2.45,4.55,5.6L1419.323,568.521z"/>
	<path fill="#FFDD00" d="M1436.822,405.768c7,0,13.3,5.95,13.3,13.301c0,7.35-6.3,13.3-13.3,13.3c-6.999,0-13.299-5.95-13.299-13.3
		C1423.523,411.718,1429.823,405.768,1436.822,405.768z"/>
	<path fill="#FFDD00" d="M1624.067,541.92c-4.55,0.351-6.3-2.449-6.649-6.65l-1.05-18.199c-0.351-4.9,7-5.25,7,0l0.699,12.949
		c7.351-8.399,15.05-20.65,19.6-36.051c2.45-9.1,3.851-17.85,3.851-26.25c0-37.801-24.85-73.501-93.448-73.501l-71.748,0.351
		c-5.25,0-4.899-7.001,0-7.001l71.748-0.35c73.498,0,100.447,39.2,100.447,80.501c0,9.801-1.399,19.25-3.85,28.351
		c-4.899,16.8-13.3,29.051-21.35,38.501l13.3-1.4c5.6-0.699,5.95,6.65,0.7,7L1624.067,541.92z"/>
	<path fill="#FFDD00" d="M1545.67,650.422c-0.351,3.851-2.1,5.95-5.95,5.95l-19.6-0.7c-5.25-0.35-4.55-7.35,0.351-7l12.949,0.7
		c-20.649-19.95-33.599-42.351-42.349-73.151c-1.4-5.25,5.95-7,7-2.1c8.75,30.45,21.35,52.15,40.948,70.701l0.7-13.301
		c0.351-5.25,7.35-4.55,7,0L1545.67,650.422z"/>
	<path fill="#FFDD00" d="M1576.469,588.821c0.7-0.351,1.4,0,1.75,0.7c1.75,3.149,4.2,6.3,9.8,6.3c4.55,0,8.75-3.15,8.75-8.75
		c0-6.3-4.2-9.8-10.149-9.8h-1.75c-0.7,0-1.051-0.351-1.051-1.4v-1.75c0-0.7,0-1.051,0.7-1.75l10.15-11.201h-17.85
		c-0.7,0-1.051-0.699-1.051-1.399v-2.101c0-0.699,0.351-1.399,1.051-1.399h22.399c0.699,0,1.05,0.7,1.05,1.399v3.15
		c0,0.35,0,1.4-0.7,2.1l-9.1,9.801c8.399,1.75,12.25,6.301,12.25,14.351c0,7.7-6.65,14-14.7,14c-8.399,0-12.6-4.2-15.05-9.101
		c-0.35-0.699,0-1.399,0.7-1.75L1576.469,588.821z"/>
	<path fill="#FFDD00" d="M1630.018,655.322l11.55,11.551c3.149,3.149-1.75,8.049-4.9,4.899l-11.549-11.55l-11.55,11.55
		c-3.15,3.149-8.05-1.75-4.9-4.899l11.55-11.551l-11.55-11.551c-3.149-3.149,1.75-8.05,4.9-4.899l11.55,11.55l11.549-11.55
		c3.15-3.15,8.05,1.75,4.9,4.899L1630.018,655.322z"/>
	<path fill="#FFDD00" d="M1652.417,397.367c0-1.049,0.35-1.75,1.05-2.449l15.75-15.4c3.149-3.15,4.55-6.65,4.55-10.15
		c0-4.55-3.5-7.35-8.05-7.35c-4.9,0-7.7,3.5-9.1,7.35c-0.351,1.051-1.05,1.051-2.101,0.7l-2.449-1.05c-0.7-0.351-1.051-0.7-0.7-1.75
		c1.75-4.9,6.649-10.5,14.699-10.5c8.4,0,13.649,5.949,13.649,11.55c0,5.95-2.1,10.5-6.3,14.7l-13.649,13.301h19.6
		c1.4,0,1.75,0.699,1.75,2.1v1.05c0,1.399-0.35,2.101-1.75,2.101h-25.199c-1.4,0-1.75-0.701-1.75-2.101V397.367z"/>
</g>
<g>
	<polygon fill="#FFDD00" points="1757.77,588.121 1769.319,583.57 1796.269,610.521 1803.618,639.922 1774.22,632.572 
		1747.27,605.621 1751.82,594.071 	"/>
	<path d="M1770.72,622.422c2.1,2.1,4.899,1.75,6.3,0.35c1.399-1.4,1.75-4.199-0.351-6.3l-20.299-20.3l-3.5,8.399L1770.72,622.422z"
		/>
	<path d="M1780.169,612.972c2.1,2.1,4.9,1.75,6.3,0.35c1.4-1.399,1.75-4.2-0.35-6.3l-17.85-17.851l-8.399,3.5L1780.169,612.972z"/>
	<path fill="#FFDD00" d="M1770.02,561.521c0-1.399,0.35-2.101,1.75-2.101h8.75v-31.5l-5.95,4.9c0,0-1.05,1.05-2.1-0.35l-1.75-2.101
		c-0.7-1.05,0-1.75,0.35-2.101l8.399-6.649c1.051-0.7,1.4-1.05,2.8-1.05h2.45c1.4,0,1.75,0.699,1.75,2.1v36.75h9.45
		c1.399,0,1.75,0.701,1.75,2.101v1.05c0,1.4-0.351,2.101-1.75,2.101h-24.149c-1.4,0-1.75-0.7-1.75-2.101V561.521z"/>
	<path d="M1776.669,627.672l14,3.85l4.55-4.55l-3.85-14c0,4.2-4.2,6.649-8.05,6.649
		C1783.669,627.322,1776.669,627.672,1776.669,627.672z"/>
	<path fill="#FFDD00" d="M1819.019,640.271c6.999,0,13.299,5.951,13.299,13.301s-6.3,13.301-13.299,13.301
		c-7,0-13.3-5.951-13.3-13.301S1812.019,640.271,1819.019,640.271z"/>
	<path fill="#FFDD00" d="M1824.968,487.319c2.45-2.101,4.55-2.101,6.65,0.351l12.949,16.1c3.5,4.551-2.1,9.1-5.6,4.551l-8.05-10.501
		l-7.35,68.602c-0.7,5.601-7.7,4.55-7.351-0.351l7.351-68.951l-10.15,8.4c-4.55,3.15-8.399-2.45-4.55-5.6L1824.968,487.319z"/>
	<path fill="#FFDD00" d="M1873.267,379.518c0-1.051,0.35-1.75,1.05-2.45l15.75-15.4c3.149-3.149,4.55-6.649,4.55-10.149
		c0-4.551-3.5-7.351-8.05-7.351c-4.9,0-7.7,3.5-9.1,7.351c-0.351,1.049-1.05,1.049-2.101,0.699l-2.449-1.05
		c-0.7-0.351-1.051-0.7-0.7-1.75c1.75-4.9,6.649-10.501,14.699-10.501c8.4,0,13.65,5.951,13.65,11.551c0,5.95-2.101,10.5-6.3,14.7
		l-13.65,13.3h19.6c1.4,0,1.75,0.701,1.75,2.101v1.05c0,1.4-0.35,2.1-1.75,2.1h-25.199c-1.4,0-1.75-0.699-1.75-2.1V379.518z"/>
	<path fill="#FFDD00" d="M1945.715,470.52c-1.05,4.55-3.5,5.6-7,4.55l-19.6-5.95c-5.6-1.75-3.5-8.4,2.101-7l12.6,3.85l-33.6-60.201
		c-2.8-4.9,3.85-8.4,6.3-3.85l33.949,60.551l3.15-12.95c1.75-5.25,8.05-2.8,6.999,1.75L1945.715,470.52z"/>
	<path fill="#FFDD00" d="M2053.162,487.319c2.45-2.101,4.55-2.101,6.649,0.351l12.95,16.1c3.5,4.551-2.101,9.1-5.601,4.551
		l-8.049-10.501l-7.351,68.602c-0.7,5.601-7.699,4.55-7.35-0.351l7.35-68.951l-10.149,8.4c-4.55,3.15-8.399-2.45-4.55-5.6
		L2053.162,487.319z"/>
	<path fill="#FFDD00" d="M2061.562,419.068l11.55,11.55c3.15,3.15-1.75,8.05-4.899,4.9l-11.55-11.55l-11.55,11.55
		c-3.15,3.149-8.05-1.75-4.9-4.9l11.55-11.55l-11.55-11.551c-3.149-3.15,1.75-8.05,4.9-4.9l11.55,11.551l11.55-11.551
		c3.149-3.149,8.05,1.75,4.899,4.9L2061.562,419.068z"/>
	<path fill="#FFDD00" d="M2078.711,577.271c0.7-0.351,1.4,0,1.75,0.699c1.75,3.15,4.2,6.301,9.8,6.301c4.55,0,8.75-3.15,8.75-8.75
		c0-6.301-4.2-9.801-10.149-9.801h-1.75c-0.7,0-1.05-0.35-1.05-1.4v-1.75c0-0.699,0-1.05,0.699-1.75l10.15-11.199h-17.85
		c-0.7,0-1.05-0.701-1.05-1.4v-2.101c0-0.7,0.35-1.399,1.05-1.399h22.399c0.7,0,1.05,0.699,1.05,1.399v3.15
		c0,0.351,0,1.399-0.7,2.101l-9.1,9.799c8.399,1.75,12.25,6.301,12.25,14.352c0,7.699-6.65,14-14.7,14
		c-8.399,0-12.6-4.201-15.05-9.101c-0.35-0.7,0-1.399,0.7-1.75L2078.711,577.271z"/>
</g>
</svg>
